<svg width="266" height="256" viewBox="0 0 266 256" fill="none" xmlns="http://www.w3.org/2000/svg">
<g clip-path="url(#clip0_710_460)">
<path d="M216.736 203.102H249.297C249.939 203.102 250.573 202.976 251.166 202.731C251.758 202.486 252.297 202.126 252.751 201.674C253.204 201.221 253.564 200.683 253.809 200.091C254.055 199.5 254.182 198.866 254.182 198.225V22.4446C254.182 21.0032 253.608 19.6209 252.588 18.6016C251.567 17.5824 250.182 17.0098 248.739 17.0098H166.24L216.736 203.102Z" fill="#F7F8FA"/>
<path d="M249.295 203.581H216.368L216.272 203.226L165.611 16.5283H248.738C250.309 16.53 251.814 17.1537 252.925 18.2626C254.036 19.3715 254.66 20.875 254.662 22.4432V198.224C254.66 199.644 254.094 201.006 253.088 202.011C252.081 203.015 250.717 203.579 249.295 203.581ZM217.104 202.621H249.295C250.462 202.619 251.581 202.155 252.406 201.331C253.232 200.507 253.697 199.389 253.698 198.224V22.4432C253.696 21.1295 253.173 19.8701 252.243 18.9412C251.312 18.0124 250.052 17.4899 248.736 17.4883H166.864L217.104 202.621Z" fill="#080B50"/>
<path d="M240.624 86.0106L215.68 211.074C215.511 211.927 215.052 212.695 214.379 213.246C213.706 213.798 212.863 214.1 211.992 214.1H21.7587C21.2034 214.1 20.6549 213.977 20.1529 213.74C19.6508 213.503 19.2073 213.158 18.8547 212.73C18.502 212.301 18.249 211.801 18.1133 211.262C17.9776 210.725 17.9628 210.164 18.0701 209.62L55.8944 19.9878C56.0632 19.1351 56.5231 18.3672 57.1958 17.8154C57.8684 17.2635 58.7119 16.9619 59.5825 16.9619H249.816C250.371 16.9619 250.92 17.0848 251.422 17.3217C251.924 17.5586 252.367 17.9036 252.72 18.332C253.073 18.7603 253.326 19.2614 253.461 19.7991C253.597 20.3369 253.612 20.8979 253.504 21.4419L243.171 73.4442L240.624 86.0106Z" fill="#0D1F2D"/>
<path d="M211.993 214.58H21.7592C21.1324 214.58 20.5132 214.442 19.9465 214.175C19.3798 213.908 18.8798 213.518 18.4824 213.033C18.084 212.55 17.7983 211.985 17.6455 211.378C17.4928 210.771 17.4768 210.137 17.5993 209.524L55.4239 19.8923C55.6163 18.9315 56.1357 18.0668 56.8939 17.445C57.6522 16.8231 58.6023 16.4823 59.5836 16.4805H249.816C250.443 16.4793 251.063 16.6175 251.63 16.885C252.196 17.1524 252.696 17.5424 253.094 18.0267C253.492 18.5097 253.778 19.0752 253.931 19.6822C254.084 20.2892 254.099 20.9227 253.977 21.5365L243.644 73.5371L241.097 86.1061L216.153 211.168C215.961 212.129 215.441 212.994 214.683 213.616C213.925 214.237 212.974 214.578 211.993 214.58ZM59.583 17.4392C58.8241 17.4405 58.0891 17.704 57.5026 18.185C56.9162 18.666 56.5145 19.3348 56.366 20.0779L18.5416 209.709C18.4469 210.184 18.4591 210.674 18.5772 211.143C18.6954 211.613 18.9166 212.05 19.2248 212.423C19.5319 212.797 19.9186 213.099 20.3568 213.305C20.795 213.512 21.2739 213.619 21.7586 213.618H211.992C212.751 213.617 213.486 213.353 214.072 212.872C214.659 212.391 215.061 211.722 215.209 210.979L240.154 85.9141L242.701 73.347L253.033 21.347C253.128 20.8724 253.115 20.3827 252.997 19.9134C252.879 19.4441 252.658 19.0069 252.349 18.6334C252.042 18.259 251.656 17.9573 251.217 17.7505C250.78 17.5436 250.301 17.4366 249.816 17.4373L59.583 17.4392Z" fill="white"/>
<path d="M47.748 137.896L51.7302 117.013H73.7846L69.8023 137.896H47.748Z" fill="#DA2C38"/>
<path d="M72.5584 137.896L76.5407 117.013H98.5944L94.6127 137.896H72.5584Z" fill="white"/>
<path d="M97.3701 137.896L101.352 117.013H123.407L119.424 137.896H97.3701Z" fill="white"/>
<path d="M122.181 137.896L126.163 117.013H148.217L144.235 137.896H122.181Z" fill="white"/>
<path d="M146.988 137.896L150.97 117.013H173.024L169.042 137.896H146.988Z" fill="white"/>
<path d="M171.802 137.896L175.784 117.013H197.839L193.856 137.896H171.802Z" fill="white"/>
<path d="M196.613 137.896L200.595 117.013H222.649L218.667 137.896H196.613Z" fill="white"/>
<path d="M43.3367 161.239L47.319 140.355H69.3735L65.3911 161.239H43.3367Z" fill="white"/>
<path d="M68.1479 161.239L72.1303 140.355H94.1845L90.2022 161.239H68.1479Z" fill="white"/>
<path d="M92.9584 161.239L96.9407 140.355H118.995L115.013 161.239H92.9584Z" fill="white"/>
<path d="M117.77 161.239L121.752 140.355H143.806L139.824 161.239H117.77Z" fill="#DA2C38"/>
<path d="M142.581 161.239L146.563 140.355H168.617L164.635 161.239H142.581Z" fill="white"/>
<path d="M167.392 161.239L171.374 140.355H193.428L189.446 161.239H167.392Z" fill="white"/>
<path d="M192.202 161.239L196.184 140.355H218.238L214.256 161.239H192.202Z" fill="white"/>
<path d="M56.5694 91.2107L60.5516 70.3281H82.6061L78.6238 91.2107H56.5694Z" fill="white"/>
<path d="M81.3915 91.1898L85.3738 70.3066H107.428L103.446 91.1898H81.3915Z" fill="white"/>
<path d="M106.194 91.2107L110.175 70.3281H132.23L128.247 91.2107H106.194Z" fill="white"/>
<path d="M131.002 91.2107L134.984 70.3281H157.039L153.056 91.2107H131.002Z" fill="white"/>
<path d="M155.813 91.2107L159.795 70.3281H181.849L177.867 91.2107H155.813Z" fill="white"/>
<path d="M180.624 91.2107L184.606 70.3281H206.66L202.678 91.2107H180.624Z" fill="white"/>
<path d="M205.435 91.2107L209.417 70.3281H231.471L227.489 91.2107H205.435Z" fill="white"/>
<path d="M52.1598 114.554L56.142 93.6709H78.1963L74.214 114.554H52.1598Z" fill="white"/>
<path d="M76.9695 114.554L80.9511 93.6709H103.005L99.0231 114.554H76.9695Z" fill="white"/>
<path d="M101.78 114.554L105.762 93.6709H127.816L123.834 114.554H101.78Z" fill="white"/>
<path d="M126.591 114.554L130.573 93.6709H152.628L148.645 114.554H126.591Z" fill="#347BB1"/>
<path d="M151.402 114.554L155.384 93.6709H177.438L173.456 114.554H151.402Z" fill="white"/>
<path d="M200.73 114.554L204.712 93.6709H226.767L222.784 114.554H200.73Z" fill="#347BB1"/>
<path d="M176.213 114.554L180.195 93.6709H202.248L198.267 114.554H176.213Z" fill="white"/>
<path d="M96.0401 17.0685C95.9766 17.0685 95.9145 17.0561 95.8561 17.032C95.7978 17.0079 95.7446 16.9725 95.7004 16.9279C95.6555 16.8833 95.6202 16.8305 95.5959 16.7722C95.5722 16.714 95.5594 16.6516 95.5594 16.5885C95.5715 13.1092 94.4088 9.72729 92.2597 6.98873C92.2206 6.93913 92.1917 6.8823 92.1751 6.82157C92.1578 6.76083 92.1533 6.69734 92.161 6.63481C92.1687 6.57228 92.1885 6.51187 92.2199 6.45702C92.2513 6.40224 92.293 6.35413 92.3424 6.31547C92.3924 6.27668 92.4494 6.24806 92.5103 6.23125C92.5712 6.21444 92.6346 6.20976 92.6975 6.21749C92.7596 6.22521 92.8199 6.24519 92.875 6.27628C92.9301 6.30737 92.9782 6.34896 93.0173 6.39867C95.2991 9.30566 96.533 12.8957 96.5208 16.5892C96.5202 16.7164 96.4695 16.8383 96.3798 16.9282C96.2894 17.018 96.167 17.0685 96.0401 17.0685Z" fill="#951C24"/>
<path d="M79.9077 33.1775C75.5029 33.1724 71.2803 31.423 68.1658 28.3132C65.0514 25.2032 63.2991 20.9868 63.2942 16.5888C63.2991 12.1908 65.0514 7.97434 68.1658 4.86442C71.2803 1.75451 75.5029 0.00511989 79.9077 3.80608e-05C83.3535 -0.00735469 86.716 1.06237 89.5221 3.05923C89.6259 3.13316 89.6958 3.24517 89.717 3.37066C89.7381 3.49615 89.7086 3.6249 89.6349 3.72867C89.5606 3.83234 89.449 3.90249 89.3228 3.92372C89.1971 3.94496 89.0683 3.91555 88.9645 3.84195C86.3205 1.96119 83.1522 0.954106 79.9064 0.961958C75.7561 0.966701 71.7783 2.61484 68.844 5.54478C65.9096 8.47475 64.2592 12.4472 64.2547 16.5907C64.2592 20.7341 65.9096 24.7066 68.844 27.6366C71.7783 30.5665 75.7561 32.2147 79.9064 32.2194C80.0333 32.2194 80.1563 32.27 80.2461 32.36C80.3365 32.4501 80.3871 32.5721 80.3871 32.6994C80.3865 32.8262 80.3358 32.9476 80.2461 33.0371C80.1563 33.1267 80.0346 33.1772 79.9077 33.1775Z" fill="#951C24"/>
<path d="M117.653 17.0687C117.525 17.0687 117.403 17.0182 117.313 16.9281C117.223 16.8381 117.172 16.716 117.172 16.5887C117.186 13.0282 115.969 9.57197 113.726 6.80416C113.686 6.75507 113.656 6.69869 113.639 6.63821C113.621 6.57766 113.615 6.5143 113.622 6.45165C113.629 6.38899 113.648 6.32829 113.679 6.27303C113.709 6.21777 113.75 6.16904 113.799 6.12961C113.848 6.09006 113.904 6.06057 113.965 6.04283C114.026 6.02508 114.089 6.01944 114.152 6.02621C114.215 6.03299 114.276 6.05206 114.331 6.08232C114.386 6.11258 114.435 6.15345 114.475 6.20258C116.84 9.1495 118.13 12.8124 118.133 16.5887C118.133 16.716 118.083 16.8381 117.992 16.9281C117.902 17.0182 117.78 17.0687 117.653 17.0687Z" fill="#951C24"/>
<path d="M101.518 33.1775C97.1131 33.1726 92.8904 31.4233 89.776 28.3133C86.6615 25.2034 84.9091 20.9869 84.9047 16.5887C84.9091 12.1907 86.6615 7.97408 89.776 4.86418C92.8904 1.75425 97.1131 0.00493441 101.518 2.19341e-05C104.78 -0.00528399 107.97 0.95216 110.688 2.75201C110.741 2.78688 110.786 2.83176 110.821 2.88408C110.856 2.9364 110.88 2.99515 110.893 3.05697C110.905 3.11878 110.906 3.18244 110.894 3.24432C110.882 3.3062 110.857 3.36509 110.823 3.41761C110.752 3.52359 110.642 3.59726 110.517 3.62246C110.392 3.64765 110.262 3.62232 110.156 3.55201C107.595 1.85804 104.59 0.9576 101.518 0.963859C97.3682 0.968602 93.3897 2.61672 90.4554 5.54665C87.5211 8.47661 85.8706 12.4491 85.8661 16.5926C85.8706 20.7361 87.5211 24.7086 90.4554 27.6385C93.3897 30.5685 97.3682 32.2166 101.518 32.2213C101.645 32.2215 101.768 32.2721 101.858 32.3621C101.948 32.4521 101.999 32.5741 101.999 32.7013C101.998 32.8279 101.947 32.9489 101.857 33.0381C101.766 33.1272 101.645 33.1773 101.518 33.1775Z" fill="#951C24"/>
<path d="M139.266 17.0697C139.139 17.0695 139.016 17.0188 138.926 16.9289C138.836 16.8389 138.785 16.7169 138.785 16.5897C138.783 12.9745 137.528 9.47151 135.233 6.6756C135.193 6.62703 135.163 6.57103 135.144 6.51074C135.125 6.45051 135.119 6.38719 135.125 6.32443C135.131 6.26167 135.149 6.2007 135.179 6.14499C135.208 6.08929 135.248 6.03994 135.297 5.99977C135.346 5.95959 135.402 5.92937 135.462 5.91085C135.522 5.89232 135.586 5.88584 135.648 5.89179C135.711 5.89773 135.773 5.91597 135.829 5.94548C135.884 5.97499 135.934 6.01519 135.974 6.06377C138.41 9.03189 139.742 12.7503 139.744 16.5877C139.745 16.7149 139.694 16.8371 139.605 16.9275C139.515 17.0178 139.393 17.0689 139.266 17.0697Z" fill="#951C24"/>
<path d="M123.133 33.1775C118.728 33.1724 114.506 31.423 111.391 28.3132C108.277 25.2032 106.524 20.9868 106.52 16.5887C106.524 12.1908 108.277 7.97434 111.391 4.86442C114.506 1.75451 118.728 0.00511768 123.133 3.58464e-05C126.527 -0.00702893 129.84 1.03034 132.622 2.97091C132.674 3.00687 132.719 3.05269 132.753 3.10575C132.787 3.15882 132.81 3.21809 132.821 3.28015C132.832 3.34222 132.831 3.40587 132.817 3.46746C132.804 3.52904 132.778 3.58736 132.742 3.63906C132.706 3.69085 132.66 3.73505 132.607 3.76911C132.554 3.80316 132.495 3.82642 132.433 3.83754C132.371 3.84865 132.306 3.84742 132.245 3.83389C132.183 3.82037 132.124 3.79484 132.073 3.75874C129.451 1.93212 126.33 0.95625 123.133 0.963872C118.983 0.968614 115.005 2.61676 112.071 5.5467C109.136 8.47667 107.486 12.4492 107.481 16.5926C107.486 20.7361 109.136 24.7085 112.071 27.6385C115.005 30.5685 118.983 32.2166 123.133 32.2214C123.261 32.2214 123.383 32.2719 123.473 32.3619C123.563 32.452 123.614 32.574 123.614 32.7013C123.612 32.828 123.561 32.9491 123.471 33.0383C123.381 33.1275 123.26 33.1775 123.133 33.1775Z" fill="#951C24"/>
<path d="M160.879 17.0696C160.751 17.0694 160.629 17.0188 160.538 16.9288C160.449 16.8388 160.398 16.7168 160.398 16.5896C160.397 12.9264 159.108 9.37976 156.757 6.56779C156.675 6.47012 156.635 6.34406 156.646 6.21724C156.657 6.09041 156.718 5.97319 156.816 5.89131C156.864 5.85081 156.921 5.82024 156.981 5.80134C157.041 5.78244 157.105 5.7756 157.168 5.78118C157.23 5.78677 157.291 5.80469 157.347 5.83391C157.403 5.86312 157.453 5.90307 157.493 5.95147C159.989 8.93637 161.358 12.7011 161.359 16.5896C161.359 16.7168 161.308 16.8388 161.218 16.9288C161.128 17.0188 161.006 17.0694 160.879 17.0696Z" fill="#951C24"/>
<path d="M144.746 33.1775C140.342 33.1724 136.119 31.423 133.005 28.3131C129.89 25.2032 128.138 20.9868 128.133 16.5887C128.138 12.1908 129.89 7.97434 133.005 4.8644C136.119 1.7545 140.342 0.00510608 144.746 2.42466e-05C148.057 -0.00564047 151.292 0.981402 154.035 2.83329C154.087 2.86867 154.132 2.91397 154.167 2.96664C154.202 3.0193 154.226 3.07828 154.238 3.14021C154.249 3.20214 154.249 3.26581 154.236 3.32757C154.224 3.38934 154.199 3.44799 154.163 3.50017C154.092 3.60543 153.981 3.67804 153.856 3.70204C153.731 3.72604 153.601 3.69947 153.496 3.62817C150.912 1.8853 147.864 0.957126 144.746 0.963859C140.597 0.968602 136.618 2.61674 133.684 5.54669C130.75 8.47661 129.099 12.4491 129.095 16.5926C129.099 20.7361 130.75 24.7085 133.684 27.6385C136.618 30.5685 140.597 32.2166 144.746 32.2213C144.874 32.2213 144.996 32.2719 145.086 32.3619C145.176 32.452 145.227 32.574 145.227 32.7013C145.226 32.828 145.174 32.9491 145.085 33.0383C144.994 33.1275 144.873 33.1775 144.746 33.1775Z" fill="#951C24"/>
<path d="M182.492 17.069C182.364 17.069 182.242 17.0184 182.152 16.9284C182.062 16.8384 182.011 16.7163 182.011 16.589C182.025 13.0608 180.829 9.63428 178.623 6.87806C178.584 6.82865 178.555 6.77207 178.537 6.71147C178.52 6.65079 178.515 6.58737 178.522 6.52471C178.529 6.46212 178.549 6.40151 178.58 6.34637C178.61 6.29125 178.651 6.24271 178.701 6.20352C178.801 6.12447 178.928 6.08823 179.055 6.10275C179.181 6.11726 179.297 6.18135 179.376 6.28095C181.717 9.20676 182.986 12.844 182.972 16.589C182.972 16.7162 182.921 16.8382 182.831 16.9282C182.741 17.0182 182.62 17.0688 182.492 17.069Z" fill="#951C24"/>
<path d="M166.359 33.1775C161.954 33.1724 157.732 31.423 154.617 28.3131C151.503 25.2032 149.751 20.9868 149.746 16.5887C149.751 12.1908 151.503 7.97434 154.617 4.8644C157.732 1.7545 161.954 0.00510499 166.359 2.31588e-05C169.657 -0.00549113 172.88 0.973856 175.616 2.81217C175.668 2.84748 175.713 2.89274 175.748 2.94534C175.783 2.99795 175.807 3.05688 175.819 3.11875C175.831 3.18063 175.831 3.24425 175.818 3.30596C175.805 3.36767 175.78 3.42628 175.745 3.47841C175.709 3.5306 175.664 3.57531 175.611 3.61C175.558 3.64468 175.5 3.66865 175.438 3.68054C175.375 3.69243 175.311 3.692 175.25 3.67928C175.188 3.66656 175.129 3.6418 175.077 3.60641C172.5 1.87756 169.464 0.957325 166.359 0.963859C162.209 0.968435 158.23 2.6165 155.296 5.54646C152.362 8.47642 150.711 12.449 150.707 16.5926C150.711 20.7362 152.362 24.7088 155.296 27.6387C158.23 30.5687 162.209 32.2168 166.359 32.2213C166.487 32.2215 166.608 32.2721 166.699 32.3621C166.788 32.4521 166.84 32.5741 166.84 32.7013C166.838 32.8279 166.787 32.9489 166.697 33.0381C166.607 33.1272 166.486 33.1773 166.359 33.1775Z" fill="#951C24"/>
<path d="M204.103 17.0688C203.976 17.0688 203.854 17.0182 203.764 16.9282C203.674 16.8382 203.623 16.7161 203.623 16.5888C203.636 13.0786 202.453 9.66852 200.268 6.91844C200.189 6.81854 200.154 6.69143 200.169 6.56503C200.183 6.4387 200.248 6.32339 200.348 6.24453C200.448 6.16576 200.576 6.12995 200.702 6.14495C200.829 6.15995 200.944 6.22454 201.024 6.32453C203.343 9.24343 204.598 12.863 204.584 16.5888C204.584 16.7161 204.533 16.8382 204.444 16.9282C204.353 17.0182 204.231 17.0688 204.103 17.0688Z" fill="#951C24"/>
<path d="M187.972 33.1775C183.567 33.1724 179.344 31.423 176.229 28.3132C173.115 25.2032 171.364 20.9868 171.359 16.5887C171.364 12.1908 173.115 7.97434 176.229 4.8644C179.344 1.75449 183.567 0.00509972 187.972 1.78849e-05C191.196 -0.00471841 194.351 0.931341 197.05 2.69313C197.157 2.76272 197.232 2.87181 197.258 2.99639C197.284 3.12097 197.259 3.25085 197.19 3.35745C197.12 3.46408 197.011 3.53868 196.886 3.56484C196.761 3.591 196.63 3.56659 196.524 3.49697C193.981 1.83868 191.009 0.958246 187.972 0.963853C183.822 0.968595 179.843 2.61674 176.909 5.54669C173.975 8.47661 172.324 12.4491 172.32 16.5926C172.324 20.7361 173.975 24.7085 176.909 27.6385C179.843 30.5685 183.822 32.2166 187.972 32.2214C188.099 32.2214 188.221 32.2719 188.311 32.3619C188.402 32.452 188.452 32.574 188.452 32.7013C188.451 32.828 188.4 32.9491 188.31 33.0383C188.22 33.1275 188.099 33.1775 187.972 33.1775Z" fill="#951C24"/>
<path d="M225.718 17.0693C225.59 17.0693 225.468 17.0187 225.378 16.9287C225.288 16.8387 225.237 16.7166 225.237 16.5893C225.235 12.9937 223.993 9.5084 221.721 6.71896C221.681 6.67019 221.651 6.614 221.632 6.55365C221.615 6.49323 221.608 6.42987 221.615 6.36718C221.621 6.30447 221.64 6.24363 221.67 6.18814C221.7 6.13264 221.74 6.0836 221.79 6.0438C221.838 6.0039 221.895 5.97402 221.955 5.95586C222.015 5.93771 222.079 5.93163 222.141 5.93799C222.204 5.94436 222.265 5.96302 222.321 5.99292C222.377 6.02283 222.425 6.06339 222.466 6.11228C224.878 9.07307 226.196 12.7726 226.199 16.5893C226.199 16.7166 226.148 16.8387 226.058 16.9287C225.967 17.0187 225.846 17.0693 225.718 17.0693Z" fill="#951C24"/>
<path d="M209.586 33.1778C205.181 33.1728 200.959 31.4234 197.844 28.3134C194.73 25.2036 192.978 20.9871 192.973 16.5891C192.978 12.1912 194.73 7.97494 197.844 4.86515C200.959 1.75538 205.181 0.00607306 209.586 0.000991539C212.797 -0.00332448 215.939 0.925299 218.631 2.67363C218.684 2.70792 218.73 2.75234 218.766 2.80433C218.801 2.85631 218.827 2.91483 218.84 2.97655C218.853 3.03827 218.854 3.10196 218.842 3.16398C218.831 3.22599 218.807 3.28511 218.772 3.33794C218.738 3.39083 218.693 3.43642 218.641 3.47212C218.589 3.50782 218.531 3.53293 218.469 3.546C218.407 3.55908 218.344 3.55987 218.281 3.54833C218.219 3.53679 218.16 3.51314 218.107 3.47875C215.571 1.83295 212.61 0.95927 209.586 0.964192C205.436 0.968761 201.457 2.61683 198.523 5.5468C195.589 8.47677 193.938 12.4493 193.934 16.5929C193.94 20.7359 195.59 24.7075 198.524 27.6366C201.459 30.5657 205.437 32.2133 209.586 32.2178C209.714 32.2178 209.836 32.2685 209.926 32.3584C210.016 32.4485 210.067 32.5705 210.067 32.6978C210.067 32.8252 210.016 32.9472 209.926 33.0373C209.836 33.1273 209.714 33.1778 209.586 33.1778Z" fill="#951C24"/>
<path d="M231.198 33.1775C226.793 33.1726 222.57 31.4232 219.455 28.3133C216.341 25.2033 214.589 20.9868 214.584 16.5887C214.589 12.1907 216.341 7.97414 219.455 4.8642C222.57 1.75425 226.793 0.00491279 231.198 0C235.602 0.00491247 239.825 1.75423 242.94 4.86416C246.055 7.97408 247.806 12.1907 247.811 16.5887C247.811 16.716 247.761 16.838 247.67 16.928C247.58 17.018 247.458 17.0686 247.331 17.0687C247.203 17.0687 247.081 17.0182 246.99 16.9282C246.9 16.8382 246.849 16.7161 246.849 16.5887C246.844 12.446 245.192 8.47443 242.259 5.54531C239.324 2.61619 235.347 0.968576 231.198 0.96384C227.048 0.968583 223.069 2.61672 220.135 5.54667C217.201 8.47661 215.55 12.4491 215.546 16.5926C215.55 20.7361 217.201 24.7085 220.135 27.6385C223.069 30.5685 227.048 32.2166 231.198 32.2213C231.325 32.2213 231.447 32.2719 231.537 32.3619C231.628 32.452 231.678 32.574 231.678 32.7013C231.677 32.828 231.626 32.9491 231.536 33.0383C231.446 33.1275 231.325 33.1775 231.198 33.1775Z" fill="#951C24"/>
<path d="M80.2179 36.1211C79.7365 36.1205 79.2609 36.0203 78.82 35.8269C78.3796 35.6335 77.9841 35.351 77.6579 34.9973C77.6156 34.9509 77.5822 34.8966 77.5605 34.8374C77.5387 34.7782 77.5291 34.7152 77.5316 34.6523C77.5342 34.5892 77.5496 34.5274 77.5758 34.4702C77.6028 34.413 77.6399 34.3616 77.6867 34.3189C77.781 34.2327 77.9053 34.1872 78.0322 34.1927C78.1598 34.1981 78.2803 34.2538 78.3668 34.3477C78.6027 34.6034 78.8879 34.8077 79.2071 34.9476C79.5257 35.0875 79.8699 35.16 80.2179 35.1605C80.8839 35.1596 81.5223 34.895 81.9934 34.4247C82.4638 33.9543 82.7292 33.3168 82.7298 32.6517C82.7292 31.9867 82.4638 31.349 81.9934 30.8787C81.5223 30.4084 80.8839 30.1438 80.2179 30.143C79.8224 30.1438 79.4327 30.2375 79.0802 30.4164C78.7277 30.5952 78.4219 30.8543 78.1886 31.1727C78.113 31.2755 78.0002 31.3442 77.8739 31.3638C77.7476 31.3833 77.6194 31.3521 77.5162 31.277C77.413 31.2018 77.3445 31.0889 77.3252 30.9631C77.306 30.8374 77.3368 30.709 77.4124 30.6063C77.7354 30.1663 78.1578 29.8083 78.6456 29.5612C79.1327 29.3141 79.6712 29.1847 80.2179 29.1836C81.139 29.1848 82.0216 29.5506 82.6728 30.2009C83.324 30.8512 83.69 31.7328 83.6913 32.6523C83.69 33.5719 83.324 34.4535 82.6728 35.1038C82.0216 35.754 81.139 36.1199 80.2179 36.1211Z" fill="#951C24"/>
<path d="M101.459 36.1211C100.977 36.1206 100.502 36.0204 100.062 35.827C99.6205 35.6335 99.2251 35.351 98.8995 34.9973C98.8565 34.9509 98.8232 34.8966 98.8014 34.8374C98.7796 34.7782 98.77 34.7152 98.7726 34.6523C98.7751 34.5892 98.7905 34.5274 98.8168 34.4702C98.8437 34.413 98.8809 34.3616 98.9277 34.3189C98.9738 34.2762 99.0283 34.2431 99.0879 34.2215C99.1469 34.1998 99.2103 34.1901 99.2731 34.1927C99.336 34.1954 99.3981 34.2105 99.4558 34.237C99.5129 34.2637 99.5641 34.3012 99.6071 34.3477C99.843 34.6035 100.129 34.8078 100.448 34.9477C100.767 35.0876 101.111 35.16 101.459 35.1605C102.125 35.1596 102.763 34.895 103.234 34.4247C103.705 33.9543 103.97 33.3168 103.971 32.6517C103.97 31.9867 103.705 31.349 103.234 30.8787C102.763 30.4084 102.125 30.1438 101.459 30.143C101.063 30.1439 100.674 30.2375 100.321 30.4164C99.9686 30.5953 99.6629 30.8543 99.4289 31.1727C99.3533 31.2754 99.2405 31.3442 99.1142 31.3638C98.9886 31.3833 98.8597 31.3521 98.7572 31.277C98.654 31.2019 98.5854 31.089 98.5655 30.9632C98.5463 30.8375 98.5771 30.7091 98.6527 30.6063C98.9757 30.1663 99.3981 29.8084 99.8859 29.5613C100.373 29.3142 100.911 29.1848 101.458 29.1836C102.379 29.1846 103.263 29.5504 103.914 30.2007C104.565 30.851 104.931 31.7327 104.932 32.6523C104.931 33.5719 104.565 34.4535 103.914 35.1038C103.263 35.754 102.38 36.1199 101.459 36.1211Z" fill="#951C24"/>
<path d="M122.698 36.1211C122.216 36.1205 121.741 36.0203 121.3 35.8269C120.86 35.6335 120.464 35.351 120.138 34.9973C120.095 34.9508 120.062 34.8965 120.041 34.8372C120.019 34.778 120.01 34.7151 120.012 34.6521C120.015 34.5891 120.03 34.5273 120.056 34.4701C120.083 34.4129 120.12 34.3615 120.167 34.3189C120.213 34.2762 120.268 34.2431 120.328 34.2215C120.386 34.1998 120.45 34.1901 120.513 34.1927C120.576 34.1954 120.638 34.2105 120.695 34.237C120.752 34.2637 120.804 34.3012 120.847 34.3477C121.083 34.6035 121.368 34.8078 121.687 34.9477C122.006 35.0876 122.35 35.16 122.698 35.1605C123.364 35.1598 124.003 34.8952 124.474 34.4249C124.945 33.9545 125.21 33.3168 125.21 32.6517C125.21 31.9867 124.945 31.349 124.474 30.8787C124.003 30.4084 123.364 30.1438 122.698 30.143C122.303 30.1437 121.913 30.2374 121.561 30.4162C121.208 30.5951 120.902 30.8542 120.669 31.1727C120.594 31.2753 120.48 31.3439 120.354 31.3635C120.228 31.383 120.099 31.3519 119.997 31.277C119.894 31.2018 119.826 31.0889 119.806 30.9632C119.786 30.8375 119.817 30.7091 119.892 30.6063C120.215 30.1663 120.638 29.8083 121.126 29.5612C121.613 29.3141 122.152 29.1847 122.698 29.1836C123.619 29.1848 124.502 29.5506 125.153 30.2009C125.805 30.8512 126.171 31.7328 126.172 32.6523C126.171 33.572 125.805 34.4537 125.153 35.104C124.502 35.7543 123.619 36.1201 122.698 36.1211Z" fill="#951C24"/>
<path d="M144.546 36.1217C144.065 36.1211 143.589 36.021 143.149 35.8275C142.709 35.6341 142.313 35.3516 141.988 34.9979C141.945 34.9516 141.911 34.8972 141.89 34.838C141.868 34.7787 141.858 34.7158 141.861 34.6527C141.863 34.5897 141.879 34.5278 141.905 34.4706C141.932 34.4134 141.97 34.3621 142.016 34.3195C142.063 34.2768 142.117 34.2438 142.177 34.2221C142.236 34.2005 142.299 34.1908 142.362 34.1934C142.425 34.1961 142.487 34.2112 142.544 34.2377C142.601 34.2643 142.652 34.3019 142.695 34.3483C142.93 34.6041 143.217 34.8083 143.536 34.9481C143.854 35.088 144.198 35.1606 144.546 35.1611C145.212 35.1604 145.851 34.8959 146.322 34.4256C146.793 33.9552 147.058 33.3175 147.059 32.6523C147.058 31.9872 146.793 31.3495 146.322 30.8791C145.851 30.4088 145.212 30.1443 144.546 30.1436C144.151 30.1446 143.761 30.2383 143.409 30.4171C143.056 30.596 142.751 30.855 142.517 31.1734C142.48 31.2242 142.433 31.2672 142.379 31.3C142.325 31.3328 142.265 31.3547 142.203 31.3643C142.141 31.374 142.077 31.3714 142.016 31.3565C141.955 31.3416 141.897 31.3148 141.846 31.2777C141.743 31.2025 141.674 31.0897 141.654 30.9639C141.635 30.8381 141.667 30.7097 141.742 30.607C142.065 30.1668 142.487 29.8086 142.974 29.5614C143.461 29.3141 144 29.1847 144.546 29.1836C145.467 29.1846 146.35 29.5504 147.001 30.2007C147.653 30.851 148.019 31.7327 148.02 32.6523C148.02 33.5721 147.654 34.4541 147.002 35.1046C146.351 35.7551 145.467 36.1209 144.546 36.1217Z" fill="#951C24"/>
<path d="M166.011 36.1211C165.53 36.1206 165.053 36.0204 164.613 35.827C164.173 35.6336 163.777 35.351 163.451 34.9973C163.408 34.9508 163.375 34.8965 163.354 34.8372C163.332 34.778 163.322 34.7151 163.325 34.6521C163.327 34.5891 163.342 34.5273 163.369 34.4701C163.396 34.4129 163.433 34.3615 163.48 34.3189C163.526 34.2762 163.58 34.2431 163.64 34.2215C163.699 34.1998 163.762 34.1901 163.825 34.1927C163.889 34.1954 163.95 34.2105 164.008 34.237C164.065 34.2637 164.116 34.3012 164.159 34.3477C164.395 34.6034 164.681 34.8077 165 34.9476C165.319 35.0875 165.663 35.16 166.011 35.1605C166.677 35.1598 167.316 34.8953 167.787 34.4249C168.258 33.9546 168.523 33.3168 168.524 32.6517C168.523 31.9865 168.258 31.3488 167.787 30.8785C167.316 30.4082 166.677 30.1436 166.011 30.143C165.615 30.1437 165.226 30.2374 164.873 30.4162C164.521 30.5951 164.215 30.8542 163.981 31.1727C163.906 31.2753 163.793 31.3439 163.666 31.3635C163.541 31.383 163.412 31.3519 163.309 31.277C163.206 31.2019 163.138 31.089 163.118 30.9632C163.098 30.8375 163.129 30.7091 163.205 30.6063C163.528 30.1662 163.951 29.8082 164.438 29.5611C164.925 29.3139 165.464 29.1846 166.011 29.1836C166.932 29.1846 167.815 29.5504 168.466 30.2007C169.118 30.851 169.484 31.7327 169.485 32.6523C169.484 33.572 169.118 34.4537 168.466 35.104C167.815 35.7543 166.932 36.1201 166.011 36.1211Z" fill="#951C24"/>
<path d="M188.498 36.1211C188.017 36.1206 187.541 36.0204 187.1 35.827C186.66 35.6335 186.264 35.351 185.939 34.9973C185.896 34.9508 185.862 34.8965 185.84 34.8372C185.819 34.778 185.809 34.7151 185.812 34.6521C185.815 34.5891 185.83 34.5273 185.856 34.4701C185.883 34.4129 185.921 34.3615 185.967 34.3189C186.013 34.2762 186.068 34.2431 186.128 34.2215C186.187 34.1998 186.25 34.1901 186.313 34.1927C186.376 34.1954 186.438 34.2105 186.495 34.237C186.553 34.2637 186.604 34.3012 186.647 34.3477C186.882 34.6035 187.169 34.8078 187.487 34.9477C187.806 35.0876 188.15 35.16 188.499 35.1605C189.164 35.1596 189.803 34.895 190.274 34.4247C190.745 33.9543 191.01 33.3168 191.01 32.6517C191.01 31.9867 190.745 31.349 190.274 30.8787C189.803 30.4084 189.164 30.1438 188.499 30.143C188.103 30.1437 187.713 30.2374 187.361 30.4162C187.008 30.5951 186.703 30.8542 186.469 31.1727C186.393 31.2753 186.28 31.3439 186.154 31.3635C186.028 31.383 185.9 31.3519 185.797 31.277C185.694 31.2019 185.625 31.089 185.605 30.9632C185.586 30.8375 185.617 30.7091 185.692 30.6063C186.015 30.1663 186.438 29.8083 186.925 29.5612C187.413 29.3141 187.951 29.1847 188.498 29.1836C189.419 29.1846 190.302 29.5504 190.953 30.2007C191.604 30.851 191.971 31.7327 191.971 32.6523C191.971 33.5719 191.604 34.4536 190.953 35.104C190.302 35.7543 189.419 36.1201 188.498 36.1211Z" fill="#951C24"/>
<path d="M209.74 36.1211C209.259 36.1206 208.783 36.0204 208.343 35.827C207.902 35.6335 207.506 35.351 207.181 34.9973C207.138 34.9509 207.104 34.8965 207.083 34.8373C207.061 34.778 207.051 34.7151 207.054 34.6521C207.056 34.5891 207.072 34.5272 207.099 34.47C207.125 34.4128 207.163 34.3614 207.21 34.3189C207.256 34.2762 207.31 34.2431 207.37 34.2215C207.429 34.1998 207.492 34.1901 207.555 34.1927C207.618 34.1954 207.68 34.2105 207.738 34.237C207.795 34.2637 207.846 34.3012 207.889 34.3477C208.125 34.6034 208.411 34.8077 208.729 34.9476C209.048 35.0875 209.392 35.16 209.74 35.1605C210.406 35.1598 211.045 34.8953 211.516 34.4249C211.987 33.9546 212.252 33.3168 212.253 32.6517C212.252 31.9865 211.987 31.3488 211.516 30.8785C211.045 30.4082 210.406 30.1436 209.74 30.143C209.345 30.1438 208.955 30.2375 208.602 30.4164C208.25 30.5952 207.944 30.8543 207.71 31.1727C207.634 31.2754 207.522 31.3442 207.395 31.3638C207.27 31.3833 207.141 31.3521 207.038 31.277C206.935 31.2019 206.867 31.089 206.847 30.9632C206.827 30.8375 206.858 30.7091 206.934 30.6063C207.257 30.1664 207.679 29.8084 208.167 29.5613C208.654 29.3142 209.193 29.1848 209.739 29.1836C210.66 29.1846 211.544 29.5504 212.195 30.2007C212.846 30.851 213.212 31.7327 213.213 32.6523C213.212 33.5719 212.846 34.4536 212.195 35.104C211.544 35.7543 210.661 36.1201 209.74 36.1211Z" fill="#951C24"/>
<path d="M230.98 36.1211C230.498 36.1206 230.023 36.0204 229.582 35.8269C229.142 35.6335 228.747 35.351 228.421 34.9973C228.378 34.951 228.345 34.8966 228.323 34.8374C228.301 34.7782 228.291 34.7152 228.294 34.6522C228.297 34.5892 228.312 34.5273 228.338 34.4701C228.365 34.4129 228.402 34.3615 228.449 34.3189C228.495 34.2762 228.55 34.2431 228.609 34.2215C228.668 34.1998 228.732 34.1901 228.795 34.1927C228.857 34.1954 228.92 34.2105 228.977 34.237C229.034 34.2637 229.086 34.3012 229.129 34.3477C229.364 34.6034 229.65 34.8077 229.969 34.9476C230.287 35.0875 230.632 35.16 230.98 35.1605C231.646 35.1598 232.285 34.8953 232.756 34.4249C233.227 33.9546 233.492 33.3168 233.492 32.6517C233.492 31.9865 233.227 31.3488 232.756 30.8785C232.285 30.4082 231.646 30.1436 230.98 30.143C230.584 30.1438 230.194 30.2375 229.842 30.4164C229.489 30.5952 229.184 30.8543 228.95 31.1727C228.913 31.2235 228.866 31.2666 228.812 31.2994C228.758 31.3321 228.698 31.354 228.636 31.3637C228.573 31.3734 228.51 31.3707 228.449 31.3558C228.387 31.341 228.329 31.3142 228.279 31.277C228.175 31.2019 228.107 31.089 228.087 30.9632C228.068 30.8375 228.099 30.7091 228.174 30.6063C228.497 30.1663 228.92 29.8083 229.407 29.5612C229.895 29.3141 230.433 29.1847 230.98 29.1836C231.901 29.1846 232.784 29.5504 233.435 30.2007C234.086 30.851 234.452 31.7327 234.454 32.6523C234.452 33.572 234.086 34.4537 233.435 35.104C232.784 35.7543 231.901 36.1201 230.98 36.1211Z" fill="#951C24"/>
<path d="M238.109 238.127H248.274L244.614 230.979L236.532 231.683L238.109 238.127Z" fill="white"/>
<path d="M248.274 238.608H238.11C238.002 238.608 237.898 238.572 237.813 238.506C237.728 238.439 237.668 238.347 237.642 238.242L236.066 231.801C236.049 231.733 236.047 231.664 236.06 231.596C236.073 231.528 236.101 231.463 236.141 231.407C236.182 231.351 236.234 231.304 236.294 231.27C236.354 231.236 236.421 231.215 236.49 231.209L244.572 230.505C244.667 230.496 244.763 230.516 244.847 230.562C244.931 230.608 244.999 230.679 245.042 230.764L248.701 237.913C248.738 237.986 248.757 238.068 248.754 238.149C248.75 238.231 248.726 238.311 248.683 238.382C248.64 238.451 248.58 238.508 248.508 238.548C248.436 238.587 248.356 238.608 248.274 238.608ZM238.487 237.648H247.488L244.333 231.486L237.133 232.116L238.487 237.648Z" fill="#080B50"/>
<path d="M245.424 236.731L240.926 233.329C240.665 233.133 240.487 232.846 240.427 232.525C240.367 232.205 240.427 231.874 240.598 231.596C241.588 230.006 244.334 224.015 247.549 221.847C247.954 221.56 248.455 221.44 248.947 221.511C249.439 221.582 249.886 221.84 250.193 222.231L263.714 240.279C263.858 240.484 263.955 240.718 263.998 240.965C264.042 241.211 264.03 241.465 263.964 241.707C263.899 241.948 263.781 242.173 263.619 242.363C263.456 242.555 263.254 242.708 263.026 242.812C261.849 243.38 259.983 243.703 257.285 242.631C252.918 240.896 247.934 238.338 246.374 237.523C246.102 237.382 245.859 237.19 245.658 236.957C245.589 236.874 245.51 236.798 245.424 236.731Z" fill="#DA2C38"/>
<path d="M260.599 243.817C259.399 243.796 258.213 243.545 257.107 243.08C252.684 241.323 247.602 238.71 246.15 237.951C245.824 237.781 245.533 237.551 245.293 237.273C245.245 237.214 245.191 237.162 245.133 237.115L240.634 233.713C240.276 233.445 240.032 233.054 239.949 232.616C239.866 232.178 239.95 231.725 240.185 231.345C240.377 231.037 240.649 230.535 240.965 229.954C242.326 227.447 244.604 223.25 247.275 221.449C247.783 221.092 248.409 220.944 249.023 221.037C249.638 221.129 250.193 221.453 250.574 221.943L264.095 239.991C264.28 240.241 264.407 240.528 264.467 240.832C264.528 241.136 264.521 241.451 264.445 241.751C264.366 242.075 264.216 242.376 264.006 242.634C263.796 242.892 263.531 243.101 263.231 243.244C262.409 243.632 261.509 243.828 260.599 243.817ZM245.712 236.35C245.825 236.437 245.929 236.537 246.021 236.647C246.183 236.833 246.379 236.987 246.598 237.101C248.04 237.854 253.085 240.449 257.464 242.189C259.529 243.009 261.381 243.077 262.818 242.381C262.99 242.299 263.142 242.18 263.263 242.032C263.384 241.884 263.47 241.711 263.516 241.525C263.559 241.362 263.564 241.191 263.532 241.024C263.5 240.859 263.431 240.702 263.33 240.565L249.806 222.518C249.573 222.226 249.236 222.034 248.866 221.983C248.495 221.932 248.119 222.025 247.816 222.244C245.34 223.913 243.132 227.98 241.813 230.409C241.476 231.029 241.211 231.518 241.006 231.848C240.897 232.024 240.858 232.234 240.897 232.437C240.935 232.64 241.048 232.821 241.213 232.945L245.712 236.35Z" fill="#080B50"/>
<path d="M263.91 241.677C263.913 241.68 263.916 241.682 263.92 241.683C263.924 241.685 263.928 241.685 263.932 241.683C264.071 241.63 264.203 241.575 264.326 241.515C264.555 241.411 264.757 241.258 264.919 241.066C265.082 240.876 265.2 240.651 265.266 240.41C265.331 240.168 265.343 239.914 265.3 239.668C265.257 239.421 265.16 239.187 265.016 238.982L251.494 220.933C251.187 220.543 250.741 220.285 250.249 220.213C249.757 220.142 249.255 220.262 248.85 220.549C248.686 220.66 248.525 220.776 248.365 220.893C248.361 220.896 248.358 220.901 248.357 220.906C248.357 220.911 248.358 220.916 248.361 220.92L263.91 241.677Z" fill="#DA2C38"/>
<path d="M263.935 242.162C263.856 242.163 263.778 242.145 263.707 242.111C263.635 242.076 263.573 242.026 263.525 241.964L247.975 221.207C247.899 221.1 247.866 220.967 247.886 220.836C247.906 220.705 247.974 220.588 248.079 220.506C248.245 220.384 248.411 220.264 248.579 220.15C249.088 219.793 249.714 219.646 250.328 219.738C250.943 219.83 251.498 220.155 251.879 220.645L265.4 238.693C265.585 238.942 265.713 239.23 265.773 239.534C265.833 239.838 265.826 240.152 265.75 240.453C265.671 240.776 265.521 241.077 265.311 241.335C265.101 241.593 264.836 241.802 264.536 241.945C264.401 242.009 264.256 242.073 264.103 242.13C264.05 242.151 263.993 242.162 263.935 242.162ZM249.027 221.008L264.079 241.101L264.118 241.082C264.291 241 264.442 240.881 264.563 240.733C264.684 240.585 264.77 240.412 264.816 240.227C264.858 240.063 264.864 239.893 264.831 239.726C264.799 239.56 264.73 239.404 264.63 239.267L251.109 221.219C250.876 220.927 250.539 220.736 250.168 220.685C249.798 220.634 249.421 220.727 249.118 220.945L249.027 221.008Z" fill="#080B50"/>
<path d="M250.086 236.757C250.066 236.757 250.047 236.756 250.028 236.754C249.902 236.739 249.786 236.673 249.707 236.573C249.628 236.473 249.593 236.346 249.609 236.22L250.05 232.588C250.066 232.461 250.131 232.348 250.231 232.269C250.331 232.191 250.458 232.155 250.584 232.169C250.647 232.177 250.707 232.197 250.762 232.227C250.817 232.258 250.866 232.3 250.905 232.349C250.944 232.399 250.973 232.456 250.99 232.517C251.007 232.577 251.012 232.641 251.004 232.703L250.562 236.335C250.548 236.452 250.492 236.559 250.404 236.636C250.316 236.714 250.203 236.757 250.086 236.757Z" fill="#080B50"/>
<path d="M252.688 238.064C252.669 238.064 252.649 238.063 252.63 238.061C252.503 238.046 252.388 237.981 252.31 237.881C252.231 237.78 252.196 237.653 252.211 237.527L252.653 233.895C252.668 233.768 252.733 233.653 252.833 233.575C252.933 233.497 253.061 233.461 253.187 233.476C253.25 233.483 253.31 233.503 253.365 233.534C253.42 233.565 253.469 233.607 253.508 233.656C253.547 233.706 253.576 233.763 253.593 233.824C253.61 233.884 253.615 233.948 253.607 234.011L253.165 237.643C253.151 237.759 253.095 237.866 253.007 237.944C252.919 238.021 252.806 238.064 252.688 238.064Z" fill="#080B50"/>
<path d="M174.244 231.845L181.936 231.735C182.207 231.735 182.473 231.817 182.697 231.97C182.921 232.123 183.094 232.34 183.193 232.592C183.898 234.328 185.348 238.386 185.216 242.257C185.21 242.754 185.014 243.229 184.666 243.585C184.319 243.941 183.848 244.15 183.352 244.169L160.779 244.492C160.529 244.488 160.281 244.429 160.056 244.319C159.831 244.209 159.633 244.051 159.476 243.856C159.318 243.661 159.206 243.434 159.146 243.19C159.087 242.947 159.081 242.694 159.13 242.448C159.361 241.163 160.196 239.466 162.649 237.915C166.623 235.406 171.623 232.88 173.199 232.098C173.524 231.937 173.881 231.851 174.244 231.845Z" fill="#DA2C38"/>
<path d="M160.757 244.974C160.452 244.973 160.15 244.905 159.873 244.775C159.596 244.646 159.351 244.457 159.155 244.223C158.94 243.97 158.784 243.672 158.698 243.351C158.612 243.03 158.599 242.694 158.658 242.367C158.889 241.087 159.724 239.201 162.393 237.514C166.409 234.975 171.517 232.401 172.986 231.673C173.374 231.479 173.801 231.375 174.236 231.369L181.927 231.259H181.954C182.318 231.261 182.673 231.373 182.973 231.579C183.273 231.785 183.505 232.076 183.637 232.415C184.301 234.045 185.832 238.269 185.696 242.277C185.687 242.897 185.439 243.49 185.003 243.932C184.567 244.375 183.978 244.633 183.357 244.653L160.785 244.976L160.757 244.974ZM174.25 232.327C173.96 232.331 173.674 232.401 173.414 232.53C171.955 233.254 166.884 235.809 162.907 238.322C161.029 239.51 159.886 240.966 159.606 242.534C159.57 242.722 159.578 242.915 159.627 243.1C159.676 243.284 159.765 243.456 159.889 243.602C159.997 243.731 160.133 243.835 160.286 243.906C160.438 243.977 160.605 244.014 160.774 244.014L183.346 243.691C183.719 243.674 184.073 243.514 184.332 243.245C184.591 242.975 184.736 242.616 184.737 242.242C184.865 238.42 183.391 234.348 182.75 232.775C182.689 232.613 182.581 232.473 182.439 232.374C182.298 232.274 182.13 232.22 181.957 232.217H181.946L174.25 232.327Z" fill="#080B50"/>
<path d="M159.246 242.016C159.241 242.016 159.237 242.018 159.234 242.02C159.231 242.023 159.228 242.027 159.227 242.03C159.188 242.173 159.156 242.313 159.131 242.448C159.082 242.693 159.088 242.947 159.147 243.19C159.207 243.433 159.319 243.661 159.477 243.856C159.634 244.051 159.832 244.209 160.058 244.319C160.283 244.429 160.529 244.488 160.781 244.493L183.352 244.169C183.85 244.149 184.321 243.941 184.667 243.585C185.015 243.229 185.212 242.753 185.217 242.256C185.224 242.059 185.224 241.861 185.223 241.663C185.223 241.658 185.221 241.653 185.217 241.65C185.214 241.646 185.209 241.645 185.205 241.645L159.246 242.016Z" fill="#DA2C38"/>
<path d="M160.758 244.972C160.452 244.971 160.15 244.903 159.873 244.773C159.596 244.644 159.351 244.455 159.155 244.222C158.94 243.968 158.784 243.67 158.698 243.349C158.612 243.028 158.599 242.692 158.658 242.366C158.685 242.219 158.722 242.066 158.763 241.908C158.793 241.806 158.854 241.716 158.937 241.65C159.021 241.584 159.122 241.545 159.228 241.539H159.238L185.198 241.167H185.204C185.334 241.17 185.459 241.223 185.552 241.315C185.646 241.408 185.701 241.534 185.705 241.666C185.705 241.867 185.705 242.071 185.699 242.275C185.69 242.896 185.442 243.489 185.007 243.931C184.571 244.373 183.982 244.632 183.361 244.652L160.788 244.975L160.758 244.972ZM159.612 242.491C159.612 242.505 159.608 242.519 159.605 242.533C159.57 242.72 159.578 242.914 159.626 243.098C159.676 243.282 159.765 243.454 159.888 243.6C159.997 243.729 160.132 243.833 160.285 243.904C160.438 243.975 160.604 244.012 160.773 244.012L183.344 243.689C183.719 243.672 184.072 243.512 184.331 243.243C184.59 242.972 184.735 242.614 184.737 242.24C184.737 242.204 184.737 242.167 184.737 242.131L159.612 242.491Z" fill="#080B50"/>
<path d="M174.426 236.987C174.304 236.988 174.187 236.942 174.098 236.859L171.841 234.744C171.795 234.701 171.757 234.649 171.732 234.591C171.705 234.534 171.69 234.472 171.689 234.409C171.687 234.346 171.698 234.284 171.72 234.224C171.742 234.165 171.776 234.111 171.819 234.065C171.906 233.973 172.027 233.918 172.154 233.914C172.281 233.91 172.405 233.957 172.498 234.044L174.754 236.156C174.848 236.243 174.902 236.364 174.906 236.49C174.91 236.618 174.863 236.742 174.776 236.835C174.731 236.883 174.677 236.921 174.617 236.947C174.557 236.974 174.492 236.987 174.426 236.987Z" fill="#080B50"/>
<path d="M171.839 238.321C171.714 238.321 171.593 238.273 171.504 238.185L169.242 235.988C169.197 235.944 169.161 235.892 169.136 235.834C169.111 235.776 169.097 235.714 169.097 235.651C169.095 235.588 169.107 235.525 169.13 235.467C169.154 235.408 169.188 235.355 169.232 235.309C169.277 235.265 169.329 235.228 169.387 235.203C169.445 235.178 169.507 235.165 169.57 235.164C169.634 235.163 169.696 235.175 169.755 235.198C169.814 235.221 169.867 235.256 169.912 235.3L172.174 237.497C172.265 237.585 172.318 237.707 172.32 237.834C172.322 237.962 172.272 238.084 172.184 238.175C172.139 238.221 172.085 238.258 172.026 238.283C171.967 238.308 171.903 238.321 171.839 238.321Z" fill="#080B50"/>
<path d="M211.436 193.548C211.436 193.545 211.436 193.548 211.436 193.545C211.221 193.382 194.963 181.624 189.707 183.1C180.722 185.623 182.472 212.297 182.657 219.351C182.838 226.22 212.239 204.997 213.245 203.189C214.241 201.401 211.496 193.717 211.436 193.548Z" fill="#F7F8FA"/>
<path d="M184.237 221.189C184 221.192 183.764 221.166 183.532 221.113C183.135 221.029 182.78 220.807 182.532 220.487C182.284 220.165 182.159 219.767 182.179 219.361C182.164 218.799 182.139 218.112 182.111 217.322C181.763 207.667 180.948 185.059 189.579 182.634C195.14 181.072 211.564 193.036 211.726 193.158L211.849 193.251L211.894 193.389C212.38 194.747 214.72 201.527 213.668 203.418C213.103 204.435 206.483 209.377 200.304 213.395C194.708 217.034 187.584 221.188 184.237 221.189ZM190.764 183.446C190.451 183.442 190.141 183.479 189.839 183.559C181.935 185.779 182.761 208.67 183.071 217.287C183.1 218.081 183.124 218.771 183.139 219.335C183.112 219.527 183.161 219.721 183.274 219.877C183.387 220.034 183.556 220.14 183.746 220.176C188.622 221.427 211.995 204.374 212.828 202.952C213.469 201.8 212.086 196.811 211.033 193.841C208.343 191.85 195.946 183.447 190.76 183.447L190.764 183.446Z" fill="#080B50"/>
<path d="M182.955 217.572L182.866 217.65C177.233 222.673 174.82 226.69 175.222 233.119C175.615 239.404 184.662 246.073 213.644 242.8L217.842 242.526L241.414 242.159V225.284C232.654 224.674 223.866 224.586 215.095 225.022C214.974 225.028 214.854 224.988 214.761 224.91C214.667 224.832 214.607 224.721 214.592 224.6C214.577 224.479 214.608 224.357 214.68 224.259C214.752 224.16 214.858 224.092 214.977 224.069C222.369 222.67 231.883 220.498 234.851 218.012C241.088 212.789 240.428 204.851 239.077 199.196C235.136 182.691 210.528 199.922 210.357 199.964C210.308 199.993 207.027 201.895 202.696 204.508L182.955 217.572Z" fill="#F7F8FA"/>
<path d="M199.722 244.145C187.153 244.145 180.978 241.543 177.948 239.006C177.037 238.304 176.282 237.422 175.729 236.414C175.176 235.405 174.839 234.294 174.738 233.149C174.297 226.1 177.265 221.998 182.543 217.292L182.686 217.172L202.427 204.106C206.786 201.479 210.081 199.567 210.114 199.549L210.338 199.932L210.125 199.542C210.155 199.524 210.233 199.474 210.353 199.394C215.113 196.286 226.968 189.365 234.242 192.256C236.934 193.325 238.715 195.622 239.542 199.085C241.605 207.725 240.129 214.217 235.157 218.381C232.742 220.404 225.982 222.476 215.065 224.541C223.858 224.11 232.669 224.199 241.452 224.805L241.891 224.843V242.631L217.846 243.006L213.674 243.279C209.043 243.828 204.385 244.117 199.722 244.145ZM183.244 217.954L183.18 218.008C177.284 223.264 175.325 227.21 175.693 233.089C175.788 234.104 176.092 235.088 176.586 235.98C177.079 236.873 177.753 237.653 178.563 238.273C182.409 241.492 191.602 244.808 213.583 242.325L217.803 242.05L240.925 241.689V225.728C232.331 225.163 223.713 225.087 215.111 225.502C214.866 225.518 214.624 225.439 214.436 225.28C214.248 225.122 214.129 224.896 214.106 224.652C214.072 224.41 214.134 224.165 214.279 223.968C214.424 223.771 214.64 223.638 214.881 223.598C225.483 221.593 232.28 219.534 234.536 217.646C239.205 213.735 240.572 207.565 238.601 199.308C237.851 196.167 236.264 194.095 233.882 193.149C230.714 191.89 226.165 192.52 220.358 195.022C217.09 196.458 213.95 198.168 210.971 200.133L210.978 200.145L210.663 200.337C210.616 200.366 210.583 200.385 210.558 200.401C210.198 200.61 207.033 202.449 202.931 204.923L183.244 217.954Z" fill="#080B50"/>
<path d="M196.445 228.58C196.362 228.58 196.28 228.559 196.208 228.518C196.136 228.478 196.075 228.419 196.032 228.348C195.966 228.24 195.946 228.109 195.977 227.985C196.007 227.861 196.086 227.755 196.195 227.689C196.419 227.554 201.835 224.37 215.025 224.062C215.088 224.06 215.152 224.071 215.211 224.094C215.27 224.116 215.323 224.15 215.369 224.194C215.414 224.237 215.452 224.29 215.477 224.347C215.502 224.405 215.516 224.467 215.518 224.53C215.52 224.658 215.473 224.78 215.385 224.873C215.297 224.965 215.176 225.019 215.048 225.022C202.109 225.323 196.745 228.478 196.693 228.51C196.618 228.556 196.532 228.579 196.445 228.58Z" fill="#080B50"/>
<path d="M184.566 216.747C184.492 216.748 184.419 216.73 184.351 216.698C184.285 216.665 184.227 216.617 184.182 216.558C184.143 216.508 184.115 216.451 184.099 216.39C184.083 216.329 184.078 216.266 184.087 216.203C184.095 216.141 184.116 216.081 184.148 216.026C184.18 215.971 184.221 215.924 184.271 215.886C188.422 212.716 194.69 208.126 201.172 204.867C201.286 204.81 201.418 204.799 201.538 204.84C201.659 204.879 201.76 204.966 201.817 205.079C201.846 205.135 201.863 205.197 201.868 205.26C201.872 205.323 201.865 205.386 201.845 205.446C201.825 205.506 201.793 205.561 201.752 205.609C201.711 205.657 201.661 205.696 201.604 205.724C195.194 208.947 188.977 213.503 184.855 216.648C184.772 216.712 184.671 216.746 184.566 216.747Z" fill="#080B50"/>
<path d="M242.944 145.475C246.078 147.951 257.096 159.286 256.457 182.543C256.446 182.898 256.55 183.246 256.753 183.537C257.783 184.995 260.95 189.817 260.164 192.982C259.254 196.643 255.92 204.675 254.296 193.558C254.288 193.501 254.261 193.448 254.22 193.407C254.179 193.367 254.125 193.341 254.068 193.334C254.011 193.327 253.952 193.338 253.902 193.367C253.852 193.396 253.813 193.441 253.791 193.494C253.385 194.447 252.725 195.765 252.239 195.614C251.101 195.258 251.207 189.355 251.342 185.868C251.477 182.382 251.876 180.987 247.999 172.758C245.612 167.691 238.55 161.382 235.743 158.846C235.743 158.846 242.604 145.205 242.944 145.475Z" fill="white"/>
<path d="M256.649 199.707H256.585C255.373 199.647 254.525 197.94 253.932 194.351C253.262 195.741 252.701 196.261 252.096 196.073C251.262 195.813 250.532 194.394 250.859 185.852C250.869 185.596 250.88 185.349 250.891 185.111C251.028 182.126 251.103 180.482 247.561 172.965C245.269 168.101 238.505 161.991 235.616 159.382L235.147 158.959L235.311 158.633C242.084 145.168 242.545 145.065 242.82 145.005L243.044 144.956L243.241 145.101C244.716 146.267 257.631 157.224 256.937 182.559C256.928 182.811 257.002 183.058 257.146 183.263C258.465 185.129 261.445 189.823 260.631 193.1C260.563 193.369 258.962 199.707 256.649 199.707ZM254.033 192.853C254.066 192.854 254.099 192.856 254.132 192.86C254.293 192.88 254.444 192.953 254.56 193.067C254.676 193.181 254.751 193.33 254.773 193.49C255.496 198.442 256.45 198.738 256.632 198.747C257.449 198.794 258.922 195.985 259.697 192.866C260.436 189.892 257.329 185.186 256.359 183.814C256.096 183.441 255.961 182.991 255.975 182.534C256.616 159.081 245.469 148.252 242.993 146.143C241.998 147.665 238.56 154.323 236.335 158.738C239.306 161.422 246.077 167.56 248.431 172.558C252.075 180.29 251.991 182.122 251.851 185.157C251.84 185.393 251.828 185.636 251.819 185.89C251.535 193.293 252.105 194.797 252.332 195.102C252.778 194.572 253.121 193.965 253.346 193.31C253.402 193.174 253.497 193.058 253.619 192.977C253.742 192.895 253.886 192.852 254.033 192.853Z" fill="#080B50"/>
<path d="M180.706 141.356C180.706 141.356 170.393 146.87 165.68 146.397C159.047 145.731 151.713 125.546 151.202 124.158C150.691 122.77 149.257 115.084 147.211 112.842C145.659 111.142 144.198 107.722 143.587 106.168C143.473 105.863 143.248 105.614 142.958 105.468C142.667 105.323 142.332 105.292 142.02 105.384C141.459 105.566 141.04 106.096 141.603 107.484C142.254 109.089 143.036 111.058 143.578 112.433C143.618 112.523 143.628 112.624 143.605 112.721C143.583 112.817 143.53 112.904 143.453 112.967C143.377 113.031 143.282 113.068 143.184 113.072C143.084 113.077 142.986 113.049 142.905 112.993C142.045 112.373 140.96 111.803 140.251 112.201C138.921 112.949 138.205 117.966 140.354 121.489C142.504 125.012 144.864 124.185 145.58 125.893C146.296 127.601 152.242 149.789 154.682 153.626C158.194 159.144 180.889 159.77 184.573 159.664C188.256 159.557 180.706 141.356 180.706 141.356Z" fill="white"/>
<path d="M183.603 160.155C177.764 160.155 157.682 159.236 154.276 153.883C152.502 151.096 149.093 139.419 146.835 131.691C145.996 128.817 145.331 126.546 145.135 126.078C144.915 125.554 144.5 125.348 143.725 125.001C142.128 124.377 140.793 123.225 139.944 121.737C138.571 119.334 138.162 116.501 138.799 113.809C138.94 113.006 139.374 112.283 140.017 111.781C140.763 111.363 141.805 111.623 143.118 112.553C142.575 111.196 141.808 109.259 141.159 107.662C140.997 107.358 140.899 107.024 140.871 106.68C140.843 106.337 140.887 105.991 140.999 105.665C141.084 105.488 141.206 105.33 141.357 105.203C141.507 105.076 141.682 104.981 141.872 104.925C142.3 104.795 142.763 104.832 143.164 105.029C143.566 105.227 143.878 105.57 144.035 105.989C144.591 107.397 146.05 110.853 147.567 112.517C149.185 114.29 150.396 119.122 151.119 122.009C151.352 122.937 151.535 123.669 151.655 123.993L151.679 124.062C155.281 133.854 161.123 145.457 165.73 145.92C170.249 146.368 180.379 140.988 180.481 140.933L180.949 140.683L181.152 141.173C181.808 142.755 187.511 156.711 185.688 159.524C185.572 159.712 185.41 159.867 185.218 159.976C185.026 160.084 184.809 160.142 184.588 160.144C184.331 160.151 183.998 160.155 183.603 160.155ZM140.8 112.548C140.69 112.544 140.583 112.569 140.486 112.62C140.075 112.996 139.807 113.503 139.728 114.054C139.163 116.495 139.533 119.058 140.763 121.24C141.513 122.562 142.699 123.582 144.119 124.126C144.904 124.477 145.646 124.809 146.022 125.709C146.24 126.227 146.843 128.294 147.758 131.424C149.863 138.632 153.386 150.697 155.088 153.369C158.256 158.348 178.98 159.347 184.559 159.185C184.624 159.188 184.689 159.172 184.746 159.14C184.802 159.107 184.849 159.06 184.88 159.003C186.015 157.252 182.848 147.872 180.462 142.027C178.355 143.115 169.914 147.305 165.631 146.875C159.286 146.235 152.655 129.506 150.775 124.393L150.75 124.325C150.613 123.955 150.434 123.237 150.185 122.245C149.484 119.445 148.309 114.757 146.851 113.166C145.285 111.449 143.851 108.155 143.134 106.345C143.064 106.155 142.926 105.998 142.746 105.904C142.567 105.811 142.359 105.788 142.163 105.84C142.099 105.855 142.039 105.883 141.987 105.924C141.935 105.964 141.893 106.015 141.863 106.073C141.799 106.21 141.735 106.553 142.043 107.305C142.699 108.925 143.48 110.892 144.019 112.258C144.097 112.45 144.11 112.662 144.056 112.862C144.001 113.062 143.884 113.239 143.72 113.365C143.563 113.488 143.371 113.557 143.171 113.56C142.972 113.563 142.777 113.502 142.616 113.384C142.1 112.942 141.47 112.652 140.798 112.548H140.8Z" fill="#080B50"/>
<path d="M234.411 160.644C234.045 160.374 233.665 160.125 233.271 159.898C233.154 159.832 233.023 159.797 232.889 159.797C232.755 159.798 232.623 159.833 232.507 159.9C232.391 159.967 232.294 160.063 232.227 160.179C232.16 160.294 232.123 160.426 232.122 160.559C232.073 164.381 232.084 176.32 234.024 180.024C235.947 183.695 238.046 187.08 238.716 196.48C238.76 197.105 206.968 211.373 203.006 203.599C202.913 203.421 202.892 203.212 202.948 203.018C203.295 201.866 204.465 196.841 202.159 187.122C200.606 180.573 197.673 174.884 192.686 167.773C192.672 167.754 192.66 167.734 192.647 167.713C192.413 167.299 189.593 162.584 182.19 161.021C182.022 160.987 181.87 160.897 181.759 160.765C177.673 155.695 174.94 149.672 173.815 143.261C173.788 143.098 173.815 142.93 173.892 142.783C173.968 142.636 174.09 142.518 174.24 142.445C176.243 141.471 183.702 137.976 189.156 137.182C195.511 136.257 192.992 137.685 197.531 136.163C198.566 135.591 199.553 134.934 200.479 134.2C203.139 132.262 209.016 135.164 214.614 132.938C215.27 132.682 215.992 132.653 216.666 132.856C219.329 133.664 222.099 134.067 224.882 134.051C229.248 133.905 238.83 136.739 245.096 145.994C245.344 146.361 237.511 157.533 235.507 160.461C235.448 160.547 235.373 160.62 235.285 160.677C235.198 160.732 235.1 160.77 234.998 160.787C234.895 160.804 234.79 160.8 234.69 160.776C234.588 160.751 234.493 160.707 234.411 160.644Z" fill="#0D1F2D"/>
<path d="M228.823 177.256C228.74 177.256 228.659 177.235 228.588 177.194C228.515 177.153 228.455 177.095 228.412 177.025C225.513 172.493 223.677 167.365 223.042 162.025C222.179 155.289 219.74 148.85 215.922 143.23C215.885 143.179 215.858 143.121 215.843 143.06C215.827 142.999 215.824 142.935 215.834 142.873C215.843 142.81 215.864 142.751 215.897 142.697C215.93 142.643 215.973 142.595 216.023 142.558C216.074 142.52 216.131 142.494 216.193 142.478C216.254 142.463 216.318 142.46 216.38 142.469C216.442 142.478 216.502 142.5 216.556 142.532C216.611 142.565 216.657 142.608 216.695 142.658C220.61 148.416 223.112 155.014 223.998 161.917C224.619 167.118 226.409 172.112 229.234 176.526C229.3 176.635 229.32 176.766 229.29 176.889C229.26 177.013 229.182 177.12 229.073 177.185C228.998 177.232 228.911 177.256 228.823 177.256Z" fill="white"/>
<path d="M203.331 134.046L203.229 126.639C203.223 126.395 203.14 126.16 202.992 125.966C202.844 125.773 202.639 125.631 202.405 125.56L199.649 124.728C199.362 124.642 199.112 124.465 198.937 124.223C198.761 123.982 198.669 123.69 198.676 123.391L198.763 119.286C198.763 119.283 198.762 119.28 198.761 119.277C198.76 119.274 198.758 119.272 198.756 119.27L197.549 118.306C197.434 118.214 197.359 118.08 197.341 117.933C197.323 117.787 197.363 117.639 197.453 117.522L199.361 115.03C199.733 114.545 200.658 111.595 201.254 111.733C201.254 111.733 212.028 110.053 214.247 114.783C214.525 115.408 214.638 116.093 214.577 116.774C214.515 117.454 214.281 118.108 213.895 118.673L212.922 120.145C211.891 121.668 211.436 123.509 211.641 125.336C211.723 125.991 211.888 126.634 212.131 127.247L214.865 133.852C211.847 134.735 208.668 134.926 205.566 134.412L203.331 134.046Z" fill="white"/>
<path d="M208.978 135.176C207.809 135.177 206.642 135.081 205.488 134.89L203.252 134.52C203.141 134.501 203.04 134.444 202.966 134.359C202.893 134.274 202.852 134.166 202.85 134.053L202.75 126.646C202.745 126.504 202.696 126.367 202.609 126.255C202.523 126.143 202.404 126.061 202.268 126.021L199.511 125.189C199.125 125.071 198.787 124.831 198.55 124.505C198.313 124.179 198.189 123.784 198.197 123.381L198.28 119.503L197.25 118.681C197.037 118.509 196.9 118.262 196.867 117.992C196.834 117.721 196.908 117.448 197.073 117.231L198.981 114.739C199.157 114.415 199.312 114.081 199.446 113.737C200.11 112.175 200.563 111.188 201.252 111.249C202.292 111.095 212.412 109.736 214.685 114.581C214.996 115.28 215.124 116.047 215.057 116.809C214.99 117.571 214.729 118.303 214.3 118.938L213.328 120.41C212.36 121.838 211.933 123.564 212.124 125.278C212.202 125.893 212.356 126.494 212.585 127.07L215.317 133.669C215.343 133.731 215.355 133.798 215.353 133.865C215.351 133.932 215.335 133.999 215.306 134.06C215.277 134.121 215.236 134.175 215.184 134.22C215.132 134.264 215.072 134.296 215.007 134.316C213.049 134.887 211.018 135.177 208.978 135.176ZM203.806 133.64L205.646 133.945C208.499 134.414 211.419 134.277 214.215 133.542L211.688 127.438C211.428 126.785 211.253 126.101 211.165 125.404C210.945 123.464 211.425 121.508 212.519 119.889L213.492 118.417C213.831 117.92 214.038 117.346 214.094 116.748C214.151 116.149 214.053 115.546 213.812 114.995C211.769 110.643 201.432 112.2 201.327 112.216L201.291 112.22C200.9 112.815 200.577 113.453 200.329 114.12C200.175 114.543 199.979 114.948 199.743 115.331L197.835 117.823C197.828 117.832 197.823 117.841 197.819 117.852C197.817 117.862 197.816 117.873 197.817 117.884C197.818 117.895 197.822 117.906 197.827 117.916C197.833 117.925 197.84 117.933 197.849 117.94L199.056 118.904C199.113 118.952 199.16 119.012 199.192 119.08C199.224 119.147 199.242 119.221 199.244 119.295L199.156 123.411C199.153 123.604 199.212 123.793 199.326 123.949C199.44 124.106 199.602 124.221 199.787 124.277L202.543 125.109C202.873 125.208 203.164 125.409 203.374 125.683C203.584 125.957 203.701 126.29 203.709 126.634L203.806 133.64Z" fill="#080B50"/>
<path d="M207.791 118.717C207.883 118.473 207.991 118.235 208.116 118.005C208.93 116.501 210.003 116.165 209.982 115.33C209.936 114.94 209.745 114.583 209.448 114.328C208.506 113.348 206.994 113.568 204.033 113.588C200.357 113.612 199.931 113.643 199.309 113.257C197.726 112.277 197.137 110.012 197.373 108.28C197.437 107.794 197.863 105.226 200.285 104.3C201.197 103.985 202.179 103.926 203.123 104.129C204.068 104.332 204.938 104.79 205.64 105.452C205.774 105.147 205.969 104.871 206.212 104.641C206.455 104.411 206.742 104.233 207.056 104.116C208.81 103.59 210.872 105.856 211.594 106.65C212.767 107.952 213.598 109.525 214.012 111.228C214.474 111.059 214.966 110.983 215.457 111.005C215.949 111.028 216.432 111.147 216.877 111.356C218.689 112.316 218.736 114.743 218.736 114.973C218.747 117.646 216.202 119.516 214.281 120.929C213.452 121.582 212.527 122.103 211.539 122.473L210.344 121.502L211.06 120.711C211.458 120.281 211.755 119.767 211.931 119.207C212.021 119.007 212.062 118.788 212.051 118.568C212.04 118.349 211.977 118.135 211.868 117.944C211.676 117.784 211.451 117.669 211.209 117.607C210.967 117.546 210.715 117.54 210.47 117.589C209.155 117.767 208.605 119.184 208.558 119.31C208.304 119.113 208.049 118.915 207.791 118.717Z" fill="#0D1F2D"/>
<path d="M160.672 52.675C160.524 53.4619 160.263 54.2232 159.895 54.9348C159.536 55.6618 159.04 56.3135 158.436 56.8548C158.125 57.126 157.786 57.3631 157.425 57.562C157.239 57.6618 157.048 57.7502 156.852 57.827L156.525 57.93L156.204 57.9825C155.402 58.0466 154.595 57.9955 153.807 57.8308C153.05 57.706 152.313 57.5659 151.585 57.4948C150.887 57.4014 150.177 57.4352 149.491 57.5947C149.333 57.6336 149.179 57.6883 149.031 57.7579L148.82 57.8571L148.618 57.9966C148.341 58.1978 148.087 58.4303 147.863 58.6897C147.385 59.2545 146.942 59.847 146.535 60.4644C146.105 61.1134 145.634 61.735 145.126 62.3256C144.585 62.9747 143.887 63.4731 143.096 63.772C142.656 63.8958 142.192 63.9121 141.745 63.8193C141.531 63.7867 141.34 63.7201 141.138 63.6696C140.949 63.6024 140.754 63.5416 140.573 63.4673C139.837 63.1768 139.155 62.8312 138.474 62.5233C137.84 62.1998 137.16 61.977 136.458 61.8628L136.22 61.8513C136.147 61.8564 136.074 61.8651 136.002 61.8776C135.966 61.8827 135.929 61.8846 135.893 61.8916L135.783 61.9307C135.709 61.9523 135.636 61.9797 135.565 62.0126C135.267 62.1604 134.993 62.3549 134.756 62.5886C134.253 63.1179 133.805 63.6969 133.419 64.3165C133.209 64.6301 132.999 64.9521 132.765 65.2701C132.529 65.6247 132.231 65.9345 131.885 66.1841C131.846 66.2103 131.803 66.2289 131.756 66.2378C131.71 66.2474 131.662 66.2474 131.615 66.2385C131.569 66.2289 131.524 66.2109 131.485 66.1847C131.446 66.1585 131.412 66.1245 131.385 66.0855C131.333 66.0068 131.313 65.9101 131.331 65.8173C131.349 65.7239 131.403 65.642 131.481 65.5882L131.496 65.578C131.758 65.3693 131.983 65.1185 132.161 64.8356C132.37 64.5373 132.57 64.2199 132.774 63.8974C133.178 63.2206 133.651 62.5871 134.184 62.0068C134.483 61.701 134.829 61.4455 135.209 61.2504C135.31 61.2013 135.415 61.1597 135.522 61.1262L135.681 61.0705C135.737 61.0577 135.795 61.05 135.852 61.0404C135.966 61.0193 136.082 61.0048 136.197 60.9969L136.53 61.0078C136.742 61.0265 136.952 61.0598 137.159 61.1076C137.351 61.1646 137.559 61.2088 137.743 61.2804C138.122 61.4084 138.486 61.5588 138.837 61.715C139.542 62.0248 140.222 62.355 140.903 62.6161C141.497 62.9012 142.164 62.9958 142.814 62.8868C143.446 62.6342 144.003 62.2243 144.433 61.6958C144.912 61.1331 145.355 60.5412 145.761 59.9236C146.187 59.2723 146.653 58.647 147.154 58.051C147.426 57.7359 147.733 57.4533 148.07 57.2088L148.338 57.0251L148.64 56.8779C148.836 56.7854 149.041 56.7131 149.252 56.6622C150.048 56.4776 150.873 56.4394 151.684 56.5496C152.469 56.6321 153.222 56.7819 153.965 56.908C154.336 56.972 154.702 57.0296 155.06 57.0648C155.241 57.0916 155.414 57.0897 155.591 57.1038C155.759 57.1068 155.928 57.0996 156.095 57.082L156.336 57.0494L156.554 56.9854C156.712 56.9258 156.866 56.8572 157.016 56.78C157.323 56.6191 157.612 56.426 157.878 56.204C158.939 55.233 159.669 53.9556 159.967 52.5501L159.974 52.5226C159.995 52.4299 160.053 52.3494 160.133 52.2989C160.214 52.2484 160.311 52.2319 160.404 52.2532C160.495 52.2756 160.573 52.332 160.623 52.4106C160.672 52.4891 160.69 52.5839 160.672 52.675Z" fill="#DA2C38"/>
<path d="M189.373 58.3697C189.089 59.1182 188.698 59.8212 188.21 60.4566C187.727 61.1094 187.124 61.664 186.432 62.0904C186.078 62.3026 185.702 62.4762 185.311 62.6081C185.111 62.6737 184.907 62.7271 184.701 62.7681L184.362 62.8116L184.034 62.8065C183.233 62.7269 182.447 62.533 181.701 62.2306C180.978 61.9746 180.277 61.7058 179.574 61.5068C178.903 61.2915 178.199 61.1995 177.496 61.2354C177.333 61.2459 177.172 61.2724 177.015 61.3148L176.789 61.3749L176.567 61.4773C176.257 61.6261 175.966 61.8102 175.699 62.0258C175.129 62.4973 174.588 63.0022 174.078 63.538C173.539 64.1 172.965 64.6286 172.361 65.1202C171.715 65.6635 170.938 66.0309 170.107 66.1858C169.652 66.2299 169.193 66.164 168.769 65.9938C168.565 65.924 168.388 65.8248 168.199 65.7378C168.025 65.6379 167.844 65.5458 167.677 65.4389C167.005 65.0229 166.396 64.5621 165.78 64.139C165.213 63.709 164.583 63.3696 163.912 63.1329L163.68 63.0798C163.604 63.0657 163.534 63.0734 163.46 63.067C163.423 63.067 163.387 63.0606 163.35 63.0619L163.236 63.0804C163.159 63.0885 163.082 63.1027 163.007 63.1227C162.688 63.2162 162.384 63.3598 162.11 63.5483C161.52 63.9812 160.977 64.4725 160.486 65.0152C160.225 65.2872 159.961 65.5662 159.674 65.8382C159.38 66.1448 159.032 66.3963 158.649 66.5819C158.605 66.6005 158.558 66.6107 158.512 66.612C158.464 66.6126 158.417 66.6043 158.373 66.5877C158.328 66.5704 158.289 66.5448 158.255 66.5122C158.22 66.4789 158.192 66.4398 158.174 66.397C158.135 66.3099 158.134 66.2114 158.167 66.1224C158.202 66.0341 158.27 65.9624 158.357 65.924L158.372 65.917C158.667 65.7576 158.932 65.5502 159.158 65.3038C159.415 65.0478 159.671 64.7694 159.928 64.4891C160.444 63.8941 161.021 63.3539 161.649 62.8769C161.996 62.6287 162.381 62.4383 162.789 62.3131C162.898 62.2837 163.007 62.2623 163.119 62.2491L163.286 62.2229C163.343 62.2229 163.402 62.2229 163.46 62.2229C163.576 62.2224 163.692 62.2286 163.807 62.2414L164.133 62.3106C164.338 62.3665 164.539 62.4364 164.734 62.5198C164.916 62.6107 165.11 62.69 165.279 62.7931C165.63 62.9851 165.96 63.1982 166.279 63.4139C166.92 63.8432 167.528 64.2907 168.152 64.6658C168.686 65.051 169.326 65.2622 169.984 65.2699C170.652 65.1336 171.273 64.829 171.789 64.3848C172.36 63.9154 172.901 63.4112 173.41 62.875C173.945 62.3082 174.514 61.7739 175.113 61.2751C175.436 61.013 175.789 60.7892 176.164 60.6083L176.461 60.4745L176.781 60.383C176.991 60.3266 177.205 60.2918 177.422 60.2793C178.24 60.2388 179.058 60.3472 179.837 60.5993C180.594 60.8188 181.311 61.0997 182.016 61.3551C182.369 61.4831 182.721 61.6046 183.066 61.7032C183.239 61.7614 183.409 61.7902 183.578 61.8357C183.744 61.8686 183.911 61.8913 184.079 61.9035L184.321 61.9138L184.547 61.8875C184.713 61.8572 184.878 61.8172 185.039 61.7678C185.369 61.6628 185.688 61.5229 185.989 61.3506C187.204 60.5825 188.15 59.4544 188.692 58.1239L188.703 58.0977C188.722 58.0543 188.749 58.015 188.782 57.9821C188.816 57.9491 188.856 57.9231 188.9 57.9056C188.944 57.888 188.991 57.8793 189.038 57.8799C189.085 57.8805 189.132 57.8903 189.175 57.9089C189.262 57.945 189.33 58.0133 189.368 58.0993C189.405 58.1853 189.407 58.2823 189.373 58.3697Z" fill="#347BB1"/>
<path d="M18.5756 22.877C17.6341 22.876 16.7316 22.5021 16.0659 21.8373C15.4002 21.1725 15.0257 20.2712 15.0247 19.3311C15.0257 18.3909 15.4002 17.4896 16.0659 16.8248C16.7316 16.1601 17.6341 15.7862 18.5756 15.7852C19.517 15.7862 20.4196 16.1601 21.0853 16.8248C21.751 17.4896 22.1256 18.3909 22.1266 19.3311C22.1254 20.2712 21.7507 21.1724 21.085 21.8371C20.4193 22.5018 19.517 22.8758 18.5756 22.877ZM18.5756 16.7452C17.8891 16.7459 17.2309 17.0186 16.7453 17.5034C16.2599 17.9882 15.9867 18.6454 15.9861 19.3311C15.9867 20.0166 16.2599 20.674 16.7453 21.1588C17.2309 21.6436 17.8891 21.9162 18.5756 21.9169C19.2621 21.9161 19.9201 21.6433 20.4055 21.1586C20.891 20.6739 21.1643 20.0166 21.1652 19.3311C21.1648 18.6453 20.8917 17.9876 20.4062 17.5025C19.9207 17.0175 19.2624 16.7446 18.5756 16.7439V16.7452Z" fill="#347BB1"/>
<path d="M189.868 50.0664C189.316 50.0657 188.787 49.8465 188.397 49.457C188.007 49.0674 187.788 48.5392 187.787 47.9883C187.788 47.4373 188.007 46.9091 188.397 46.5196C188.787 46.13 189.316 45.9108 189.868 45.9102C190.419 45.9108 190.949 46.13 191.339 46.5196C191.729 46.9091 191.949 47.4373 191.949 47.9883C191.949 48.5392 191.729 49.0674 191.339 49.457C190.949 49.8465 190.419 50.0657 189.868 50.0664ZM189.868 46.8702C189.571 46.8703 189.286 46.9882 189.077 47.1978C188.866 47.4075 188.748 47.6918 188.748 47.9883C188.748 48.2847 188.866 48.569 189.077 48.7787C189.286 48.9884 189.571 49.1062 189.868 49.1064C190.165 49.1061 190.45 48.9881 190.66 48.7785C190.869 48.5689 190.987 48.2847 190.988 47.9883C190.987 47.6919 190.869 47.4076 190.66 47.198C190.45 46.9884 190.165 46.8705 189.868 46.8702Z" fill="#347BB1"/>
<path d="M116.159 233.859C115.184 233.858 114.248 233.47 113.558 232.781C112.869 232.093 112.48 231.159 112.48 230.185C112.48 229.211 112.869 228.277 113.558 227.588C114.248 226.899 115.184 226.512 116.159 226.511C117.135 226.511 118.07 226.899 118.76 227.588C119.45 228.276 119.838 229.211 119.839 230.185C119.838 231.159 119.45 232.093 118.76 232.782C118.07 233.471 117.135 233.858 116.159 233.859ZM116.159 227.471C115.438 227.471 114.747 227.757 114.238 228.266C113.728 228.775 113.442 229.465 113.441 230.185C113.442 230.904 113.728 231.594 114.238 232.103C114.747 232.612 115.438 232.898 116.159 232.899C116.88 232.898 117.571 232.612 118.08 232.103C118.59 231.594 118.876 230.904 118.878 230.185C118.876 229.465 118.59 228.775 118.08 228.266C117.571 227.757 116.88 227.471 116.159 227.471Z" fill="#347BB1"/>
<path d="M21.8201 50.4494C21.757 50.4494 21.6947 50.437 21.6364 50.4128C21.5781 50.3887 21.5251 50.3533 21.4805 50.3086L19.8978 48.7279C19.8532 48.6833 19.8178 48.6304 19.7936 48.5721C19.7695 48.5139 19.757 48.4514 19.757 48.3884C19.757 48.3253 19.7695 48.2629 19.7936 48.2046C19.8178 48.1463 19.8532 48.0934 19.8978 48.0489C19.9424 48.0043 19.9957 47.9689 20.054 47.9447C20.1124 47.9206 20.1749 47.9082 20.238 47.9082C20.3012 47.9082 20.3637 47.9206 20.4221 47.9447C20.4804 47.9689 20.5333 48.0043 20.5779 48.0489L22.1606 49.629C22.2507 49.7191 22.3011 49.8412 22.3011 49.9685C22.3011 50.0958 22.2507 50.2179 22.1606 50.308C22.116 50.3528 22.0628 50.3883 22.0044 50.4127C21.946 50.4369 21.8834 50.4494 21.8201 50.4494Z" fill="#DA2C38"/>
<path d="M27.3594 55.9804C27.2963 55.9804 27.2337 55.968 27.1754 55.9438C27.1171 55.9196 27.0641 55.8843 27.0195 55.8396L25.4372 54.2593C25.3924 54.2148 25.3568 54.1618 25.3326 54.1036C25.3084 54.0453 25.296 53.9828 25.296 53.9197C25.296 53.8566 25.3084 53.7941 25.3326 53.7359C25.3568 53.6777 25.3924 53.6247 25.4372 53.5802C25.4818 53.5356 25.5347 53.5002 25.593 53.4761C25.6514 53.4519 25.7139 53.4395 25.7771 53.4395C25.8402 53.4395 25.9027 53.4519 25.9611 53.4761C26.0194 53.5002 26.0726 53.5356 26.1172 53.5802L27.6996 55.1605C27.7443 55.2051 27.7799 55.258 27.8042 55.3163C27.8283 55.3745 27.8408 55.437 27.8408 55.5001C27.8408 55.5631 27.8283 55.6256 27.8042 55.6838C27.7799 55.742 27.7443 55.795 27.6996 55.8396C27.655 55.8844 27.6022 55.9199 27.5438 55.9441C27.4854 55.9683 27.4227 55.9806 27.3594 55.9804Z" fill="#DA2C38"/>
<path d="M20.2377 55.9804C20.1746 55.9804 20.112 55.968 20.0537 55.9438C19.9954 55.9196 19.9424 55.8843 19.8978 55.8396C19.8532 55.795 19.8178 55.742 19.7936 55.6838C19.7695 55.6256 19.757 55.5631 19.757 55.5001C19.757 55.437 19.7695 55.3745 19.7936 55.3163C19.8178 55.258 19.8532 55.2051 19.8978 55.1605L21.4805 53.5802C21.5252 53.5356 21.5781 53.5002 21.6364 53.4761C21.6947 53.4519 21.7573 53.4395 21.8204 53.4395C21.8835 53.4395 21.9461 53.4519 22.0044 53.4761C22.0628 53.5002 22.116 53.5356 22.1606 53.5802C22.2507 53.6703 22.3011 53.7924 22.3011 53.9197C22.3011 54.0471 22.2507 54.1692 22.1606 54.2593L20.5779 55.8396C20.5333 55.8843 20.4802 55.9197 20.4218 55.9439C20.3633 55.968 20.3009 55.9804 20.2377 55.9804Z" fill="#DA2C38"/>
<path d="M25.7774 50.4486C25.7143 50.4486 25.652 50.4361 25.5937 50.4119C25.5354 50.3878 25.4824 50.3524 25.4378 50.3078C25.3931 50.2632 25.3575 50.2103 25.3333 50.152C25.3091 50.0938 25.2967 50.0313 25.2967 49.9683C25.2967 49.9052 25.3091 49.8427 25.3333 49.7845C25.3575 49.7262 25.3931 49.6733 25.4378 49.6288L27.0202 48.0489C27.0648 48.0043 27.1177 47.9689 27.1761 47.9447C27.2343 47.9206 27.2969 47.9082 27.3601 47.9082C27.4232 47.9082 27.4855 47.9206 27.5438 47.9447C27.6021 47.9689 27.6551 48.0043 27.6997 48.0489C27.7443 48.0934 27.78 48.1463 27.8042 48.2046C27.8284 48.2628 27.8408 48.3253 27.8408 48.3883C27.8408 48.4514 27.8284 48.5138 27.8042 48.5721C27.78 48.6303 27.7443 48.6832 27.6997 48.7278L26.1173 50.3084C26.0726 50.3529 26.0197 50.3882 25.9614 50.4123C25.9031 50.4363 25.8405 50.4486 25.7774 50.4486Z" fill="#DA2C38"/>
<path d="M142.658 82.1875H140.982C140.854 82.1875 140.732 82.137 140.642 82.0467C140.552 81.9571 140.501 81.8349 140.501 81.7075C140.501 81.5802 140.552 81.4579 140.642 81.3683C140.732 81.2781 140.854 81.2275 140.982 81.2275H142.658C142.786 81.2275 142.907 81.2781 142.998 81.3683C143.088 81.4586 143.139 81.5802 143.139 81.7075C143.139 81.8349 143.088 81.9565 142.998 82.0467C142.907 82.137 142.786 82.1875 142.658 82.1875Z" fill="#080B50"/>
<path d="M148.522 82.1875H146.845C146.719 82.1875 146.596 82.137 146.506 82.0467C146.416 81.9571 146.365 81.8349 146.365 81.7075C146.365 81.5802 146.416 81.4579 146.506 81.3683C146.596 81.2781 146.719 81.2275 146.845 81.2275H148.522C148.649 81.2275 148.772 81.2781 148.861 81.3683C148.952 81.4586 149.002 81.5802 149.002 81.7075C149.002 81.8349 148.952 81.9565 148.861 82.0467C148.772 82.137 148.649 82.1875 148.522 82.1875Z" fill="#080B50"/>
<path d="M144.752 85.952C144.625 85.952 144.502 85.9014 144.412 85.8112C144.322 85.7209 144.271 85.5993 144.271 85.472V83.7984C144.271 83.671 144.322 83.5488 144.412 83.4585C144.502 83.3689 144.625 83.3184 144.752 83.3184C144.88 83.3184 145.001 83.3689 145.092 83.4585C145.182 83.5488 145.233 83.671 145.233 83.7984V85.472C145.233 85.5993 145.182 85.7209 145.092 85.8112C145.001 85.9014 144.88 85.952 144.752 85.952Z" fill="#080B50"/>
<path d="M144.752 80.0958C144.625 80.0958 144.502 80.0453 144.412 79.955C144.322 79.8654 144.271 79.7432 144.271 79.6158V77.9429C144.271 77.8155 144.322 77.6933 144.412 77.6037C144.502 77.5134 144.625 77.4629 144.752 77.4629C144.88 77.4629 145.001 77.5134 145.092 77.6037C145.182 77.6933 145.233 77.8155 145.233 77.9429V79.6158C145.233 79.7432 145.182 79.8654 145.092 79.955C145.001 80.0453 144.88 80.0958 144.752 80.0958Z" fill="#080B50"/>
<path d="M6.03256 171.314C4.98423 171.313 3.97901 170.897 3.23773 170.156C2.49645 169.416 2.07968 168.413 2.07849 167.366C2.07985 166.319 2.49678 165.316 3.23805 164.576C3.97931 163.836 4.98434 163.42 6.03256 163.419C7.0807 163.42 8.0856 163.836 8.82675 164.576C9.5679 165.317 9.98484 166.319 9.986 167.366C9.98484 168.413 9.5679 169.416 8.82675 170.156C8.0856 170.896 7.08077 171.313 6.03256 171.314ZM6.03256 164.379C5.23923 164.38 4.47854 164.694 3.91751 165.254C3.35648 165.814 3.04096 166.574 3.03994 167.366C3.04078 168.158 3.35614 168.918 3.91719 169.478C4.47824 170.038 5.23912 170.353 6.03256 170.354C6.82592 170.353 7.58642 170.038 8.14733 169.478C8.70824 168.918 9.02372 168.158 9.02455 167.366C9.02353 166.574 8.70785 165.815 8.14701 165.255C7.5861 164.695 6.82579 164.38 6.03256 164.379Z" fill="#347BB1"/>
<path d="M237.426 72.7114C237.358 72.7114 237.29 72.6967 237.227 72.6686C237.165 72.6398 237.109 72.5988 237.064 72.547C230.821 65.4231 216.072 59.2197 206.123 59.5282C206.06 59.5308 205.997 59.5207 205.938 59.4986C205.878 59.4766 205.824 59.4429 205.778 59.3997C205.732 59.3564 205.695 59.3044 205.669 59.2467C205.644 59.189 205.63 59.1267 205.628 59.0636C205.626 59.0005 205.637 58.9377 205.658 58.8787C205.681 58.8198 205.715 58.7658 205.758 58.7198C205.801 58.6739 205.853 58.6369 205.91 58.611C205.968 58.585 206.03 58.5707 206.094 58.5688C216.285 58.2399 231.389 64.6122 237.788 71.9153C237.83 71.9626 237.861 72.0177 237.882 72.0772C237.901 72.1374 237.91 72.2001 237.905 72.2634C237.901 72.3262 237.885 72.3876 237.857 72.4439C237.828 72.5002 237.79 72.5508 237.742 72.5924C237.655 72.6692 237.542 72.7114 237.426 72.7114Z" fill="#DA2C38"/>
<path d="M248.748 89.2826C248.663 89.2826 248.58 89.2602 248.506 89.218C248.432 89.1751 248.372 89.1137 248.33 89.0401C246.633 86.0609 244.777 83.1757 242.77 80.3969C242.695 80.2938 242.664 80.1652 242.685 80.0397C242.705 79.9137 242.775 79.8017 242.878 79.7268C242.929 79.6897 242.987 79.6634 243.048 79.6487C243.11 79.634 243.173 79.6321 243.236 79.6417C243.298 79.6519 243.358 79.6743 243.412 79.7069C243.466 79.7402 243.512 79.7837 243.55 79.8349C245.577 82.6426 247.451 85.5572 249.164 88.5658C249.196 88.6209 249.216 88.681 249.224 88.7437C249.232 88.8058 249.227 88.8698 249.211 88.9306C249.194 88.9914 249.166 89.0484 249.127 89.0976C249.088 89.1476 249.039 89.1892 248.984 89.2205C248.913 89.2615 248.831 89.2826 248.748 89.2826Z" fill="#DA2C38"/>
<path d="M258.864 181.162C258.808 181.162 258.753 181.152 258.701 181.133C258.581 181.09 258.483 181.001 258.429 180.886C258.375 180.77 258.369 180.638 258.412 180.519C265.969 159.671 265.555 130.416 257.356 105.984C257.336 105.925 257.328 105.862 257.332 105.799C257.337 105.735 257.353 105.674 257.382 105.618C257.409 105.561 257.449 105.511 257.496 105.469C257.544 105.428 257.6 105.396 257.66 105.376C257.719 105.357 257.782 105.348 257.846 105.353C257.908 105.357 257.97 105.373 258.026 105.401C258.083 105.43 258.133 105.469 258.175 105.517C258.216 105.564 258.248 105.62 258.267 105.679C266.53 130.303 266.945 159.807 259.318 180.845C259.285 180.938 259.223 181.019 259.142 181.076C259.06 181.132 258.964 181.162 258.864 181.162Z" fill="#347BB1"/>
<path d="M161.125 250.89C161.017 250.89 160.912 250.854 160.827 250.787C160.743 250.721 160.683 250.628 160.658 250.524C160.642 250.463 160.64 250.399 160.649 250.337C160.659 250.275 160.68 250.215 160.713 250.161C160.746 250.107 160.789 250.06 160.84 250.023C160.891 249.985 160.949 249.959 161.009 249.944C164.107 249.187 167.246 248.334 170.338 247.407C170.46 247.37 170.591 247.384 170.703 247.443C170.816 247.504 170.9 247.605 170.937 247.727C170.973 247.849 170.96 247.98 170.9 248.092C170.84 248.204 170.738 248.288 170.616 248.325C167.508 249.256 164.354 250.117 161.24 250.874C161.202 250.884 161.163 250.889 161.125 250.89Z" fill="#347BB1"/>
<path d="M123.523 255.688C119.46 255.688 115.499 255.499 111.638 255.121C111.575 255.115 111.514 255.097 111.458 255.067C111.403 255.037 111.353 254.997 111.313 254.948C111.273 254.899 111.243 254.843 111.225 254.783C111.207 254.722 111.2 254.659 111.207 254.596C111.212 254.534 111.231 254.473 111.261 254.417C111.291 254.361 111.331 254.312 111.38 254.272C111.428 254.232 111.485 254.202 111.546 254.184C111.606 254.166 111.669 254.159 111.732 254.166C123.597 255.328 136.503 254.685 150.093 252.255C150.219 252.232 150.348 252.26 150.453 252.333C150.557 252.406 150.628 252.517 150.651 252.642C150.662 252.704 150.661 252.768 150.648 252.83C150.634 252.891 150.609 252.95 150.573 253.001C150.537 253.053 150.491 253.097 150.437 253.131C150.384 253.165 150.325 253.189 150.263 253.2C141.44 254.816 132.492 255.648 123.523 255.688Z" fill="#347BB1"/>
<path d="M69.3472 241.916C69.2581 241.916 69.1709 241.891 69.0946 241.844C65.6975 239.746 62.2809 237.417 58.9421 234.922C58.8401 234.846 58.7727 234.732 58.7546 234.606C58.7365 234.48 58.7691 234.352 58.8454 234.25C58.922 234.148 59.0358 234.081 59.1621 234.062C59.2883 234.045 59.4166 234.077 59.5189 234.153C62.8346 236.633 66.2263 238.945 69.6003 241.028C69.6542 241.061 69.701 241.105 69.7382 241.156C69.7747 241.207 69.8016 241.265 69.8157 241.326C69.8305 241.388 69.8324 241.452 69.8221 241.514C69.8119 241.576 69.7894 241.636 69.7567 241.689C69.7132 241.759 69.6529 241.816 69.5818 241.856C69.51 241.895 69.4292 241.916 69.3472 241.916Z" fill="#DA2C38"/>
<path d="M18.2866 189.975C18.2041 189.975 18.1231 189.954 18.0512 189.913C17.9794 189.873 17.9191 189.815 17.8763 189.744C14.8418 184.787 12.1197 179.646 9.72528 174.351C9.67317 174.234 9.66933 174.102 9.71464 173.983C9.75996 173.865 9.85066 173.768 9.96693 173.716C10.0244 173.69 10.0866 173.676 10.1497 173.674C10.2127 173.672 10.2754 173.683 10.3343 173.705C10.3934 173.727 10.4474 173.761 10.4934 173.805C10.5392 173.847 10.5764 173.899 10.6023 173.957C12.9802 179.216 15.6837 184.322 18.6975 189.245C18.7637 189.354 18.7839 189.485 18.7538 189.608C18.7238 189.732 18.646 189.838 18.5373 189.904C18.4619 189.951 18.375 189.975 18.2866 189.975Z" fill="#DA2C38"/>
<path d="M4.79804 160.336C4.70027 160.336 4.60496 160.306 4.52481 160.249C4.44466 160.194 4.38334 160.115 4.34924 160.023C-0.536849 146.835 -1.3226 133.228 2.07581 120.674C2.10928 120.551 2.19001 120.446 2.30052 120.382C2.41104 120.319 2.54229 120.302 2.66545 120.335C2.78855 120.368 2.89325 120.449 2.95683 120.559C3.0204 120.67 3.03752 120.8 3.0044 120.924C-0.341446 133.285 0.435627 146.69 5.25185 159.69C5.27379 159.749 5.28366 159.811 5.28126 159.875C5.27887 159.938 5.26413 160 5.23776 160.057C5.21139 160.114 5.17392 160.166 5.1276 160.209C5.08127 160.252 5.02689 160.285 4.96767 160.307C4.91331 160.327 4.85598 160.337 4.79804 160.336Z" fill="#DA2C38"/>
<path d="M2.53694 121.276C2.48574 121.276 2.43466 121.268 2.38609 121.252C2.32612 121.232 2.27055 121.201 2.22271 121.16C2.17488 121.118 2.13594 121.068 2.10754 121.012C2.07914 120.956 2.06209 120.894 2.05746 120.832C2.05284 120.769 2.06046 120.705 2.08031 120.646C2.67963 118.838 3.39277 117.07 4.21539 115.351C6.77244 110.075 10.1228 105.221 14.1503 100.957C14.2376 100.864 14.3581 100.81 14.4855 100.806C14.6128 100.801 14.7366 100.848 14.8298 100.935C14.9229 101.022 14.9779 101.142 14.9822 101.269C14.9865 101.397 14.94 101.52 14.8529 101.613C10.8924 105.806 7.59755 110.578 5.08326 115.766C4.2777 117.448 3.57994 119.179 2.99387 120.95C2.96161 121.045 2.9 121.128 2.81798 121.187C2.73597 121.245 2.63777 121.276 2.53694 121.276Z" fill="#DA2C38"/>
<path d="M80.5865 243.965C80.5121 243.965 80.439 243.947 80.373 243.915C78.702 243.086 77.0086 242.19 75.3395 241.252C75.2844 241.221 75.2357 241.179 75.1972 241.129C75.1582 241.08 75.1293 241.023 75.1126 240.962C75.0953 240.902 75.0902 240.838 75.0979 240.775C75.1056 240.713 75.1255 240.653 75.1569 240.598C75.219 240.487 75.3235 240.406 75.4459 240.371C75.569 240.337 75.6998 240.353 75.8113 240.415C77.465 241.346 79.1443 242.233 80.7999 243.054C80.914 243.111 81.0012 243.21 81.0416 243.331C81.0826 243.451 81.0736 243.583 81.0172 243.697C80.9775 243.778 80.9159 243.845 80.8397 243.892C80.7634 243.94 80.6756 243.965 80.5865 243.965Z" fill="#DA2C38"/>
<path d="M8.07419 153.88C7.96734 153.88 7.86344 153.844 7.77903 153.779C7.69468 153.714 7.63462 153.622 7.60815 153.518C4.32064 140.611 5.10325 128.942 9.93228 118.834C10.0011 118.69 10.0702 118.546 10.1398 118.404C10.1957 118.29 10.2947 118.203 10.4149 118.162C10.535 118.121 10.6665 118.128 10.7808 118.184C10.8948 118.24 10.982 118.338 11.0233 118.459C11.0646 118.578 11.0568 118.71 11.0014 118.824C10.933 118.964 10.8654 119.103 10.7983 119.244C6.06795 129.143 5.30752 140.594 8.53864 153.278C8.56991 153.402 8.5512 153.533 8.48608 153.642C8.42095 153.751 8.31475 153.831 8.19123 153.862C8.15303 153.873 8.11387 153.879 8.07419 153.88Z" fill="#347BB1"/>
<path d="M15.4462 111.07C15.3438 111.07 15.2442 111.036 15.1617 110.976C15.059 110.901 14.9906 110.787 14.9714 110.661C14.9522 110.536 14.9836 110.407 15.059 110.305C17.4953 107.022 20.2576 103.992 23.3033 101.263C23.3501 101.221 23.4047 101.188 23.4642 101.167C23.5237 101.146 23.5867 101.136 23.6498 101.139C23.7128 101.142 23.7746 101.158 23.8316 101.185C23.8886 101.212 23.9396 101.251 23.9818 101.297C24.0242 101.344 24.0571 101.398 24.0782 101.458C24.0994 101.518 24.1084 101.58 24.1051 101.644C24.1019 101.706 24.0864 101.768 24.0591 101.825C24.0319 101.882 23.9937 101.933 23.9468 101.975C20.9494 104.66 18.231 107.64 15.8333 110.871C15.789 110.932 15.731 110.982 15.6637 111.016C15.5964 111.051 15.5218 111.069 15.4462 111.07Z" fill="#DA2C38"/>
<path d="M175.442 48.6055C175.379 48.6054 175.316 48.593 175.258 48.5689C175.2 48.5447 175.147 48.5093 175.102 48.4647L173.756 47.1208C173.666 47.0307 173.616 46.9087 173.616 46.7816C173.616 46.6545 173.666 46.5325 173.756 46.4424C173.801 46.3978 173.854 46.3624 173.912 46.3383C173.97 46.3142 174.033 46.3018 174.096 46.3018C174.159 46.3018 174.222 46.3142 174.28 46.3383C174.338 46.3624 174.392 46.3978 174.436 46.4424L175.782 47.7864C175.827 47.8308 175.863 47.8838 175.887 47.942C175.911 48.0003 175.923 48.0628 175.923 48.1258C175.923 48.1889 175.911 48.2514 175.887 48.3096C175.863 48.3679 175.827 48.4208 175.782 48.4653C175.738 48.5099 175.684 48.5452 175.626 48.5693C175.568 48.5933 175.505 48.6056 175.442 48.6055Z" fill="#DA2C38"/>
<path d="M180.144 53.3018C180.081 53.3019 180.018 53.2894 179.96 53.2652C179.902 53.2411 179.849 53.2057 179.804 53.161L178.458 51.8171C178.369 51.727 178.318 51.605 178.318 51.4779C178.318 51.3508 178.369 51.2288 178.458 51.1387C178.503 51.0941 178.556 51.0587 178.614 51.0346C178.673 51.0105 178.735 50.998 178.798 50.998C178.862 50.998 178.924 51.0105 178.982 51.0346C179.04 51.0587 179.094 51.0941 179.138 51.1387L180.484 52.4827C180.529 52.5272 180.565 52.5801 180.588 52.6384C180.613 52.6966 180.626 52.7591 180.626 52.8221C180.626 52.8852 180.613 52.9477 180.588 53.0059C180.565 53.0642 180.529 53.1171 180.484 53.1616C180.44 53.2062 180.386 53.2416 180.328 53.2656C180.27 53.2897 180.207 53.302 180.144 53.3018Z" fill="#DA2C38"/>
<path d="M174.099 53.3015C174.035 53.3015 173.973 53.289 173.915 53.2648C173.856 53.2407 173.803 53.2053 173.759 53.1607C173.668 53.0705 173.618 52.9484 173.618 52.8211C173.618 52.6938 173.668 52.5718 173.759 52.4817L175.104 51.1377C175.149 51.0931 175.202 51.0578 175.261 51.0336C175.319 51.0095 175.382 50.9971 175.445 50.9971C175.508 50.9971 175.57 51.0095 175.629 51.0336C175.687 51.0578 175.74 51.0931 175.784 51.1377C175.829 51.1823 175.864 51.2352 175.889 51.2933C175.913 51.3516 175.925 51.4139 175.925 51.4769C175.925 51.5399 175.913 51.6023 175.889 51.6606C175.864 51.7187 175.829 51.7716 175.784 51.8161L174.439 53.16C174.394 53.2049 174.341 53.2405 174.283 53.2648C174.224 53.289 174.161 53.3015 174.099 53.3015Z" fill="#DA2C38"/>
<path d="M178.8 48.6058C178.737 48.6059 178.674 48.5935 178.616 48.5693C178.558 48.5451 178.505 48.5097 178.46 48.465C178.37 48.375 178.319 48.2529 178.319 48.1256C178.319 47.9983 178.37 47.8762 178.46 47.7861L179.806 46.4424C179.851 46.3978 179.904 46.3624 179.962 46.3383C180.02 46.3142 180.083 46.3018 180.146 46.3018C180.209 46.3018 180.272 46.3142 180.33 46.3383C180.388 46.3624 180.441 46.3978 180.486 46.4424C180.531 46.4869 180.566 46.5398 180.59 46.5979C180.614 46.6561 180.627 46.7185 180.627 46.7815C180.627 46.8445 180.614 46.9069 180.59 46.9651C180.566 47.0233 180.531 47.0762 180.486 47.1206L179.14 48.4644C179.095 48.5091 179.042 48.5446 178.984 48.5689C178.926 48.5932 178.863 48.6057 178.8 48.6058Z" fill="#DA2C38"/>
<path d="M150.818 194.144C150.791 194.144 150.763 194.142 150.735 194.137C150.648 194.121 150.565 194.081 150.498 194.021C150.431 193.962 150.382 193.884 150.357 193.799L146.619 181.057C146.595 180.979 146.592 180.896 146.61 180.816C146.629 180.736 146.667 180.663 146.722 180.602C146.776 180.541 146.845 180.495 146.922 180.468C147 180.442 147.083 180.435 147.164 180.45L158.719 182.498C158.8 182.512 158.875 182.547 158.939 182.598C159.001 182.649 159.051 182.716 159.081 182.791C159.112 182.867 159.122 182.949 159.112 183.03C159.102 183.111 159.071 183.187 159.024 183.253L151.203 193.946C151.159 194.007 151.101 194.057 151.035 194.09C150.967 194.125 150.894 194.143 150.818 194.144ZM147.759 181.53L151.005 192.594L157.793 183.31L147.759 181.53Z" fill="#DA2C38"/>
</g>
<defs>
<clipPath id="clip0_710_460">
<rect width="266" height="256" fill="white"/>
</clipPath>
</defs>
</svg>
