<svg width="376" height="251" viewBox="0 0 376 251" fill="none" xmlns="http://www.w3.org/2000/svg">
<path d="M88.4356 39.9551H12.0825V91.144H88.4356V39.9551Z" fill="white"/>
<path d="M88.4304 91.1485C88.4304 91.1485 88.4304 90.8273 88.4304 90.2148C88.4304 89.6024 88.4304 88.7088 88.4304 87.514C88.4304 85.1446 88.4304 81.6708 88.4053 77.218C88.4053 68.3276 88.3702 55.5417 88.3451 39.9546L88.4554 40.065L12.1124 40.0951L12.2477 39.9546C12.2477 58.1922 12.2477 75.5363 12.2477 91.1586L12.1224 91.0331L67.1287 91.0933L82.8405 91.1284H87.0216H88.0995H88.4705H88.1145H87.0517H82.8956L67.2089 91.1586L12.1224 91.2238H11.9971V91.0983C11.9971 75.4861 11.9971 58.142 11.9971 39.8943V39.7588H12.1425L88.4855 39.7889H88.5958V39.8943C88.5707 55.5116 88.5507 68.3176 88.5406 77.2281C88.5406 81.6657 88.5156 85.1346 88.5106 87.499C88.5106 88.6686 88.5106 89.5672 88.5106 90.1797C88.5106 90.7921 88.4304 91.1485 88.4304 91.1485Z" fill="#E0E0E0"/>
<path d="M12.0825 44.5232C12.0825 44.4479 29.1579 44.3877 50.224 44.3877C71.29 44.3877 88.3704 44.4479 88.3704 44.5232C88.3704 44.5985 71.295 44.6638 50.224 44.6638C29.1529 44.6638 12.0825 44.6036 12.0825 44.5232Z" fill="#E0E0E0"/>
<g opacity="0.3">
<path d="M15.0904 42.2189C15.0904 42.3813 15.026 42.5371 14.9113 42.6519C14.7966 42.7668 14.641 42.8313 14.4788 42.8313C14.3166 42.8313 14.161 42.7668 14.0463 42.6519C13.9316 42.5371 13.8672 42.3813 13.8672 42.2189C13.8672 42.0565 13.9316 41.9007 14.0463 41.7858C14.161 41.671 14.3166 41.6064 14.4788 41.6064C14.641 41.6064 14.7966 41.671 14.9113 41.7858C15.026 41.9007 15.0904 42.0565 15.0904 42.2189Z" fill="#E0E0E0"/>
</g>
<g opacity="0.3">
<path d="M17.191 42.2189C17.191 42.34 17.1552 42.4584 17.0879 42.5591C17.0207 42.6599 16.9252 42.7384 16.8135 42.7847C16.7017 42.8311 16.5787 42.8432 16.4601 42.8196C16.3414 42.7959 16.2325 42.7376 16.1469 42.6519C16.0614 42.5663 16.0031 42.4572 15.9795 42.3384C15.9559 42.2196 15.968 42.0964 16.0143 41.9845C16.0606 41.8726 16.139 41.777 16.2396 41.7097C16.3402 41.6424 16.4584 41.6064 16.5794 41.6064C16.7416 41.6064 16.8972 41.671 17.0119 41.7858C17.1266 41.9007 17.191 42.0565 17.191 42.2189Z" fill="#E0E0E0"/>
</g>
<g opacity="0.3">
<path d="M19.2565 42.2189C19.2565 42.34 19.2206 42.4584 19.1534 42.5591C19.0862 42.6599 18.9907 42.7384 18.8789 42.7847C18.7671 42.8311 18.6442 42.8432 18.5255 42.8196C18.4069 42.7959 18.2979 42.7376 18.2123 42.6519C18.1268 42.5663 18.0686 42.4572 18.045 42.3384C18.0214 42.2196 18.0335 42.0964 18.0798 41.9845C18.1261 41.8726 18.2044 41.777 18.305 41.7097C18.4056 41.6424 18.5239 41.6064 18.6448 41.6064C18.807 41.6064 18.9626 41.671 19.0773 41.7858C19.192 41.9007 19.2565 42.0565 19.2565 42.2189Z" fill="#E0E0E0"/>
</g>
<path d="M39.0087 49.8643H18.6445V70.2605H39.0087V49.8643Z" fill="#E0E0E0"/>
<path d="M77.9624 55.6267C77.9624 55.702 70.0163 55.7623 60.2202 55.7623C50.4242 55.7623 42.478 55.702 42.478 55.6267C42.478 55.5514 50.4242 55.4912 60.2202 55.4912C70.0163 55.4912 77.9624 55.5514 77.9624 55.6267Z" fill="#E0E0E0"/>
<path d="M77.9624 59.4168C77.9624 59.4921 70.0163 59.5523 60.2202 59.5523C50.4242 59.5523 42.478 59.4921 42.478 59.4168C42.478 59.3415 50.4242 59.2812 60.2202 59.2812C70.0163 59.2812 77.9624 59.3415 77.9624 59.4168Z" fill="#E0E0E0"/>
<path d="M77.9624 63.2068C77.9624 63.2821 70.0163 63.3424 60.2202 63.3424C50.4242 63.3424 42.478 63.2821 42.478 63.2068C42.478 63.1315 50.4242 63.0713 60.2202 63.0713C70.0163 63.0713 77.9624 63.1315 77.9624 63.2068Z" fill="#E0E0E0"/>
<path d="M63.4488 66.9978C63.1768 67.0394 62.9017 67.0578 62.6266 67.0531L60.3806 67.0932C58.4806 67.0932 55.8686 67.1334 52.9659 67.1334C50.0632 67.1334 47.4513 67.1334 45.5512 67.0932L43.3052 67.0531C43.0284 67.0576 42.7518 67.0391 42.478 66.9978C42.7518 66.9566 43.0284 66.9381 43.3052 66.9426L45.5512 66.9025C47.4462 66.8774 50.0632 66.8623 52.9659 66.8623C55.8686 66.8623 58.4806 66.8623 60.3806 66.9025L62.6266 66.9426C62.9017 66.9379 63.1768 66.9563 63.4488 66.9978Z" fill="#E0E0E0"/>
<path d="M29.4884 77.1328H19.918V86.716H29.4884V77.1328Z" fill="#E0E0E0"/>
<path d="M46.8449 77.1328H37.2744V86.716H46.8449V77.1328Z" fill="#E0E0E0"/>
<path d="M64.2057 77.1328H54.6353V86.716H64.2057V77.1328Z" fill="#E0E0E0"/>
<path d="M81.5622 77.1328H71.9917V86.716H81.5622V77.1328Z" fill="#E0E0E0"/>
<path d="M165.47 15.0801H99.7002V41.8317H165.47V15.0801Z" fill="white"/>
<path d="M165.47 41.8321C165.47 41.8321 165.47 41.6665 165.47 41.3301C165.47 40.9938 165.47 40.547 165.47 39.9396C165.47 38.7197 165.47 36.9276 165.47 34.6184C165.47 30 165.445 23.3234 165.43 15.0404L165.505 15.1157L99.7354 15.1458L99.8357 15.0404C99.8357 24.4077 99.8357 33.4537 99.8357 41.792L99.7404 41.6916L146.896 41.7367L160.572 41.7669H164.237H160.597L146.941 41.792L99.7204 41.8422H99.6201V41.7418C99.6201 33.4035 99.6201 24.3575 99.6201 14.9902V14.8848H99.7254L165.495 14.9199H165.565V15.0605C165.565 23.3485 165.535 30.0401 165.525 34.6686C165.525 36.9677 165.525 38.7599 165.525 39.9747C165.525 40.5771 165.525 41.0339 165.525 41.3502C165.525 41.6665 165.47 41.8321 165.47 41.8321Z" fill="#E0E0E0"/>
<path d="M99.7656 18.6904C99.7656 18.6301 114.465 18.585 132.593 18.585C150.721 18.585 165.43 18.6301 165.43 18.6904C165.43 18.7506 150.731 18.7958 132.593 18.7958C114.455 18.7958 99.7656 18.7456 99.7656 18.6904Z" fill="#E0E0E0"/>
<g opacity="0.3">
<path d="M102.518 17.0687C102.518 17.1619 102.49 17.2531 102.439 17.3309C102.388 17.4086 102.315 17.4697 102.229 17.5064C102.144 17.5431 102.049 17.5539 101.958 17.5374C101.866 17.521 101.781 17.478 101.714 17.4138C101.646 17.3496 101.599 17.267 101.578 17.1762C101.557 17.0854 101.563 16.9904 101.595 16.9029C101.627 16.8155 101.684 16.7394 101.759 16.6841C101.834 16.6288 101.924 16.5967 102.017 16.5918C102.145 16.5916 102.269 16.6411 102.363 16.7298C102.456 16.8186 102.512 16.94 102.518 17.0687Z" fill="#EBEBEB"/>
</g>
<g opacity="0.3">
<path d="M104.152 17.0687C104.152 17.163 104.124 17.2552 104.072 17.3336C104.02 17.4121 103.945 17.4732 103.858 17.5093C103.771 17.5454 103.675 17.5548 103.583 17.5364C103.491 17.518 103.406 17.4726 103.339 17.4059C103.273 17.3392 103.227 17.2542 103.209 17.1617C103.19 17.0692 103.2 16.9733 103.236 16.8862C103.272 16.7991 103.333 16.7246 103.411 16.6722C103.49 16.6198 103.582 16.5918 103.676 16.5918C103.8 16.5979 103.918 16.6501 104.006 16.7382C104.094 16.8264 104.146 16.9442 104.152 17.0687Z" fill="#EBEBEB"/>
</g>
<g opacity="0.3">
<path d="M105.29 17.5505C105.553 17.5505 105.766 17.337 105.766 17.0736C105.766 16.8102 105.553 16.5967 105.29 16.5967C105.027 16.5967 104.814 16.8102 104.814 17.0736C104.814 17.337 105.027 17.5505 105.29 17.5505Z" fill="#EBEBEB"/>
</g>
<path d="M121.177 23.0371H105.29V38.9455H121.177V23.0371Z" fill="#E0E0E0"/>
<path d="M160.928 27.2988C160.928 27.359 152.751 27.4042 142.67 27.4042C132.588 27.4042 124.411 27.359 124.411 27.2988C124.411 27.2385 132.588 27.1934 142.67 27.1934C152.751 27.1934 160.928 27.2436 160.928 27.2988Z" fill="#E0E0E0"/>
<path d="M160.928 30.5419C160.928 30.5972 152.751 30.6423 142.67 30.6423C132.588 30.6423 124.411 30.5972 124.411 30.5419C124.411 30.4867 132.588 30.4365 142.67 30.4365C152.751 30.4365 160.928 30.4817 160.928 30.5419Z" fill="#E0E0E0"/>
<path d="M147.894 33.78C147.814 33.792 147.733 33.792 147.653 33.78H146.971L144.465 33.8151L136.158 33.8452L127.84 33.8553L125.334 33.8201H124.647C124.567 33.8317 124.486 33.8317 124.406 33.8201C124.486 33.8118 124.567 33.8118 124.647 33.8201H125.334L127.84 33.79L136.152 33.7549L144.46 33.79L146.966 33.8201H147.648C147.728 33.7975 147.811 33.784 147.894 33.78Z" fill="#E0E0E0"/>
<path d="M342.912 50.7826C343.018 50.6259 343.143 50.4826 343.283 50.3559C343.579 50.0647 343.94 49.6983 344.366 49.2716C345.283 48.3579 346.567 47.113 347.996 45.7576L348.031 45.7274V45.9082C346.592 44.5728 345.298 43.353 344.376 42.4594L343.288 41.3952C343.148 41.2708 343.021 41.131 342.912 40.9785C343.072 41.0739 343.221 41.1885 343.353 41.3199L344.496 42.3239C345.449 43.1823 346.762 44.3821 348.201 45.7174L348.301 45.8128L348.201 45.9031L348.171 45.9333C346.742 47.2987 345.439 48.5236 344.486 49.3971L343.353 50.4312C343.217 50.5617 343.07 50.6794 342.912 50.7826Z" fill="#E0E0E0"/>
<path d="M331.818 40.9736C331.709 41.1267 331.585 41.268 331.447 41.3953L330.379 42.4847C329.461 43.3933 328.178 44.6382 326.749 45.9986L326.714 46.0288V45.843C328.153 47.1834 329.446 48.4032 330.369 49.2968L331.457 50.361C331.599 50.4838 331.725 50.6238 331.833 50.7777C331.673 50.6791 331.525 50.5629 331.392 50.4313L330.248 49.4273C329.296 48.5689 327.982 47.3691 326.544 46.0288L326.443 45.9384L326.544 45.8481L326.574 45.8129C328.002 44.4525 329.306 43.2276 330.258 42.3491L331.381 41.325C331.512 41.1908 331.659 41.0728 331.818 40.9736Z" fill="#E0E0E0"/>
<path d="M334.67 53.0925C334.605 53.0674 335.768 49.7893 337.272 45.7683C338.776 41.7473 340.044 38.5043 340.11 38.5294C340.175 38.5545 339.007 41.8326 337.508 45.8536C336.009 49.8746 334.735 53.1176 334.67 53.0925Z" fill="#E0E0E0"/>
<path d="M355.541 60.1096C355.541 60.1096 355.541 59.9188 355.541 59.5624C355.541 59.206 355.541 58.6689 355.541 57.9861C355.541 56.6006 355.541 54.5776 355.541 52.0073C355.541 46.8618 355.511 39.5075 355.486 30.6422L355.591 30.7476H319.495L319.62 30.6221C319.62 41.2746 319.62 51.3346 319.62 60.0895L319.51 59.9791L345.579 60.0343L352.969 60.0644H354.934H355.616H355.45H354.949H353.009L345.639 60.0945L319.485 60.1498H319.375V60.0343C319.375 51.2794 319.375 41.2193 319.375 30.5669V30.4414H319.505H355.601H355.706V30.6221C355.706 39.5125 355.666 46.8919 355.651 52.0525C355.651 54.6177 355.651 56.6257 355.651 58.0062C355.651 58.6839 355.651 59.206 355.651 59.5674C355.651 59.9289 355.541 60.1096 355.541 60.1096Z" fill="#E0E0E0"/>
<path d="M355.827 35.0151C355.827 35.0854 347.67 35.1406 337.613 35.1406C327.556 35.1406 319.405 35.0854 319.405 35.0151C319.405 34.9449 327.556 34.8896 337.613 34.8896C347.67 34.8896 355.827 34.9449 355.827 35.0151Z" fill="#E0E0E0"/>
<path d="M322.358 32.8614C322.358 32.9607 322.328 33.0577 322.273 33.1403C322.218 33.2228 322.14 33.2872 322.048 33.3252C321.957 33.3632 321.856 33.3731 321.759 33.3537C321.661 33.3344 321.572 33.2865 321.502 33.2163C321.432 33.1461 321.384 33.0567 321.365 32.9593C321.345 32.8619 321.355 32.761 321.393 32.6693C321.431 32.5775 321.495 32.4991 321.578 32.444C321.66 32.3888 321.757 32.3594 321.856 32.3594C321.989 32.3594 322.117 32.4123 322.211 32.5064C322.305 32.6006 322.358 32.7282 322.358 32.8614Z" fill="#E0E0E0"/>
<path d="M324.142 32.8614C324.142 32.9607 324.113 33.0577 324.058 33.1403C324.003 33.2228 323.924 33.2872 323.833 33.3252C323.741 33.3632 323.64 33.3731 323.543 33.3537C323.446 33.3344 323.357 33.2865 323.286 33.2163C323.216 33.1461 323.169 33.0567 323.149 32.9593C323.13 32.8619 323.14 32.761 323.178 32.6693C323.216 32.5775 323.28 32.4991 323.362 32.444C323.445 32.3888 323.542 32.3594 323.641 32.3594C323.774 32.3594 323.901 32.4123 323.995 32.5064C324.089 32.6006 324.142 32.7282 324.142 32.8614Z" fill="#E0E0E0"/>
<path d="M325.912 32.8614C325.912 32.9607 325.882 33.0577 325.827 33.1403C325.772 33.2228 325.694 33.2872 325.602 33.3252C325.511 33.3632 325.41 33.3731 325.313 33.3537C325.215 33.3344 325.126 33.2865 325.056 33.2163C324.986 33.1461 324.938 33.0567 324.919 32.9593C324.899 32.8619 324.909 32.761 324.947 32.6693C324.985 32.5775 325.05 32.4991 325.132 32.444C325.214 32.3888 325.311 32.3594 325.411 32.3594C325.543 32.3594 325.671 32.4123 325.765 32.5064C325.859 32.6006 325.912 32.7282 325.912 32.8614Z" fill="#E0E0E0"/>
<path d="M347.218 189.706C349.304 188.627 351.766 188.486 354.082 188.872C355.325 189.078 356.623 189.45 357.471 190.378C358.318 191.307 358.473 192.959 357.506 193.767C356.877 194.189 356.123 194.38 355.37 194.309C353.555 194.309 351.54 193.968 350.091 195.062C349.264 195.685 348.717 196.719 347.725 197.025C347.23 197.14 346.711 197.091 346.247 196.884C345.783 196.677 345.399 196.325 345.153 195.88C344.683 194.97 344.579 193.914 344.862 192.929C344.982 192.247 345.257 191.601 345.665 191.042C346.074 190.484 346.605 190.026 347.218 189.706Z" fill="#EBEBEB"/>
<path d="M342.436 180.464C343.714 182.287 346.196 181.684 347.344 180.57C348.492 179.455 348.978 177.839 349.425 176.303C350.427 172.789 351.43 169.094 350.703 165.51C350.52 164.423 350.044 163.407 349.324 162.573C348.962 162.16 348.498 161.849 347.978 161.673C347.457 161.497 346.9 161.461 346.362 161.569C345.108 161.9 344.356 163.125 343.77 164.29C342.115 167.737 341.248 171.509 341.233 175.334C341.233 177.111 341.433 178.973 342.436 180.444" fill="#EBEBEB"/>
<path d="M338.931 183.08C340.315 181.433 340.581 179.034 339.964 176.971C339.264 174.921 338.014 173.104 336.349 171.72C334.46 170.036 332.262 168.737 329.877 167.894C328.954 167.52 327.96 167.349 326.965 167.392C326.465 167.425 325.981 167.579 325.554 167.841C325.128 168.104 324.772 168.467 324.518 168.898C323.841 170.199 324.518 171.78 325.2 173.065C326.445 175.335 327.867 177.504 329.451 179.551C330.725 181.192 332.183 182.819 334.129 183.567C336.074 184.315 338.089 184.224 339.117 182.874" fill="#EBEBEB"/>
<path d="M342.351 207.999C342.417 207.726 342.456 207.447 342.466 207.166C342.526 206.563 342.596 205.805 342.687 204.902C342.777 203.998 342.932 202.818 343.188 201.584C343.486 200.247 343.89 198.936 344.396 197.663C344.894 196.393 345.569 195.199 346.401 194.119C347.073 193.242 347.929 192.524 348.908 192.015C349.579 191.684 350.298 191.46 351.039 191.353C351.316 191.342 351.592 191.302 351.861 191.232C351.583 191.205 351.302 191.205 351.024 191.232C350.255 191.289 349.502 191.485 348.803 191.81C347.765 192.301 346.854 193.026 346.141 193.928C345.274 195.025 344.575 196.245 344.065 197.547C343.554 198.837 343.154 200.169 342.872 201.528C342.658 202.64 342.51 203.763 342.431 204.892C342.361 205.856 342.331 206.634 342.316 207.171C342.297 207.447 342.309 207.725 342.351 207.999Z" fill="#E0E0E0"/>
<path d="M342.506 206.257C342.521 206.129 342.521 205.999 342.506 205.87V204.771C342.506 203.812 342.506 202.432 342.556 200.725C342.636 197.311 342.932 193.637 343.499 188.461C344.035 183.592 344.757 177.919 345.504 174.234C345.664 173.396 345.83 172.643 346.005 171.985C346.181 171.328 346.276 170.751 346.396 170.289C346.517 169.827 346.587 169.501 346.657 169.219C346.694 169.095 346.716 168.967 346.722 168.838C346.667 168.954 346.622 169.075 346.587 169.199C346.507 169.474 346.401 169.825 346.271 170.254C346.131 170.715 345.985 171.258 345.82 171.94C345.654 172.623 345.464 173.351 345.283 174.184C344.342 178.542 343.634 182.948 343.163 187.382C342.596 192.572 342.34 197.301 342.315 200.72C342.315 202.432 342.315 203.817 342.376 204.771C342.406 205.218 342.426 205.584 342.446 205.87C342.453 206.001 342.473 206.13 342.506 206.257Z" fill="#E0E0E0"/>
<path d="M342.531 197.141C342.556 196.758 342.556 196.374 342.531 195.991C342.491 195.253 342.386 194.184 342.18 192.879C341.93 191.356 341.595 189.847 341.178 188.361C340.684 186.525 340.051 184.729 339.283 182.99C337.966 179.784 336.081 176.843 333.718 174.31C333.308 173.877 332.871 173.472 332.409 173.095C332.209 172.924 332.028 172.754 331.848 172.618L331.346 172.267C331.041 172.035 330.717 171.829 330.379 171.649C331.492 172.527 332.55 173.473 333.547 174.481C335.834 177.032 337.669 179.955 338.972 183.125C339.726 184.854 340.365 186.632 340.882 188.446C341.3 189.919 341.643 191.412 341.91 192.919C342.15 194.214 342.286 195.269 342.371 196.001C342.392 196.385 342.446 196.766 342.531 197.141Z" fill="#E0E0E0"/>
<path d="M333.733 213.22L334.645 225.73H350.698L351.61 213.22H333.733Z" fill="#E0E0E0"/>
<path d="M353.52 208.285H332.179V213.215H353.52V208.285Z" fill="#E0E0E0"/>
<path d="M332.179 225.253V226.618H333.181H353.17V225.253H332.179Z" fill="#EBEBEB"/>
<path d="M334.164 229.028L333.181 226.618H352.407L351.259 229.028H334.164Z" fill="#E0E0E0"/>
<path d="M351.309 217.307C351.309 217.307 351.309 217.352 351.234 217.422L350.994 217.743L350.061 218.938L350.021 218.993L349.976 218.938C349.389 218.125 348.607 217.035 347.68 215.755H347.815L345.549 218.963L345.479 219.064L345.399 218.968L342.717 215.775H342.872L342.727 215.961L340.325 218.973L340.245 219.074L340.175 218.968C339.358 217.814 338.596 216.739 337.909 215.76H338.039L335.257 218.938L335.207 218.993L335.167 218.933L334.294 217.462L334.069 217.071C334.042 217.028 334.02 216.982 334.003 216.935C334.003 216.935 334.039 216.97 334.094 217.056L334.344 217.432L335.262 218.873H335.172L337.914 215.655L337.984 215.575L338.044 215.66L340.33 218.853H340.175L342.571 215.841L342.717 215.655L342.792 215.56L342.872 215.655L345.544 218.858H345.419L347.705 215.665L347.775 215.575L347.84 215.665L350.086 218.883H350.006L350.979 217.713L351.239 217.412C351.259 217.374 351.282 217.339 351.309 217.307Z" fill="#F5F5F5"/>
<path d="M351.831 213.135C351.831 213.19 347.82 213.235 342.847 213.235C337.874 213.235 333.863 213.19 333.863 213.135C333.863 213.079 337.874 213.034 342.847 213.034C347.82 213.034 351.831 213.079 351.831 213.135Z" fill="#F5F5F5"/>
<path d="M352.643 226.754C352.643 226.809 348.272 226.854 342.882 226.854C337.493 226.854 333.116 226.809 333.116 226.754C333.116 226.699 337.488 226.653 342.882 226.653C348.277 226.653 352.643 226.699 352.643 226.754Z" fill="#F5F5F5"/>
<path d="M54.7154 52.2529H310.827C311.723 52.2529 312.582 52.6094 313.216 53.2439C313.85 53.8785 314.206 54.7391 314.206 55.6364V219.374C314.206 221.314 313.436 223.174 312.066 224.546C310.696 225.917 308.838 226.688 306.901 226.688H58.1546C57.1936 226.691 56.2417 226.503 55.3531 226.137C54.4646 225.771 53.657 225.232 52.9766 224.553C52.2962 223.873 51.7563 223.066 51.388 222.177C51.0197 221.289 50.8301 220.336 50.8301 219.374V56.1485C50.8294 55.6371 50.9294 55.1307 51.1244 54.6581C51.3194 54.1855 51.6054 53.756 51.9663 53.3942C52.3271 53.0324 52.7557 52.7454 53.2274 52.5496C53.6991 52.3537 54.2048 52.2529 54.7154 52.2529Z" fill="#455A64"/>
<path d="M39.8159 213.767H325.18V222.135C325.18 223.962 324.455 225.713 323.165 227.005C321.875 228.297 320.126 229.022 318.302 229.022H46.6942C44.87 229.022 43.1205 228.297 41.8305 227.005C40.5406 225.713 39.8159 223.962 39.8159 222.135V213.767Z" fill="#455A64"/>
<path d="M306.41 59.1855H57.8989V206.472H306.41V59.1855Z" fill="#E0E0E0"/>
<path d="M156.562 213.767L160.101 219.404H209.928L213.217 213.767H156.562Z" fill="#263238"/>
<path d="M299.637 67.7197H65.2734V206.473H299.637V67.7197Z" fill="#263238"/>
<path d="M83.2562 202.396C83.1359 202.396 83.0356 172.849 83.0356 136.403C83.0356 99.9583 83.1359 70.3955 83.2562 70.3955C83.3766 70.3955 83.4768 99.9432 83.4768 136.403C83.4768 172.864 83.3766 202.396 83.2562 202.396Z" fill="#E0E0E0"/>
<path d="M78.5288 82.3625C78.5288 82.483 76.8243 82.5834 74.7237 82.5834C72.6231 82.5834 70.9136 82.483 70.9136 82.3625C70.9136 82.242 72.6181 82.1416 74.7237 82.1416C76.8293 82.1416 78.5288 82.242 78.5288 82.3625Z" fill="#E0E0E0"/>
<path d="M78.8197 74.8732C78.8197 74.9937 77.1152 75.0941 75.0146 75.0941C72.914 75.0941 71.2095 74.9937 71.2095 74.8732C71.2095 74.7527 72.914 74.6523 75.0146 74.6523C77.1152 74.6523 78.8197 74.7527 78.8197 74.8732Z" fill="#E0E0E0"/>
<path d="M78.5288 90.4347C78.5288 90.5552 76.8243 90.6556 74.7237 90.6556C72.6231 90.6556 70.9136 90.5552 70.9136 90.4347C70.9136 90.3143 72.6181 90.2139 74.7237 90.2139C76.8293 90.2139 78.5288 90.3143 78.5288 90.4347Z" fill="#E0E0E0"/>
<path d="M78.5288 98.5069C78.5288 98.6324 76.8243 98.7278 74.7237 98.7278C72.6231 98.7278 70.9136 98.6324 70.9136 98.5069C70.9136 98.3814 72.6181 98.291 74.7237 98.291C76.8293 98.291 78.5288 98.3914 78.5288 98.5069Z" fill="#E0E0E0"/>
<path d="M78.5288 106.584C78.5288 106.705 76.8243 106.805 74.7237 106.805C72.6231 106.805 70.9136 106.705 70.9136 106.584C70.9136 106.464 72.6181 106.363 74.7237 106.363C76.8293 106.363 78.5288 106.459 78.5288 106.584Z" fill="#E0E0E0"/>
<path d="M78.5288 114.656C78.5288 114.777 76.8243 114.877 74.7237 114.877C72.6231 114.877 70.9136 114.777 70.9136 114.656C70.9136 114.536 72.6181 114.436 74.7237 114.436C76.8293 114.436 78.5288 114.536 78.5288 114.656Z" fill="#E0E0E0"/>
<path d="M78.5288 122.729C78.5288 122.849 76.8243 122.95 74.7237 122.95C72.6231 122.95 70.9136 122.849 70.9136 122.729C70.9136 122.608 72.6181 122.508 74.7237 122.508C76.8293 122.508 78.5288 122.608 78.5288 122.729Z" fill="#E0E0E0"/>
<path d="M78.5288 130.801C78.5288 130.926 76.8243 131.022 74.7237 131.022C72.6231 131.022 70.9136 130.926 70.9136 130.801C70.9136 130.675 72.6181 130.585 74.7237 130.585C76.8293 130.585 78.5288 130.68 78.5288 130.801Z" fill="#E0E0E0"/>
<path d="M78.5288 138.878C78.5288 138.999 76.8243 139.094 74.7237 139.094C72.6231 139.094 70.9136 138.999 70.9136 138.878C70.9136 138.758 72.6181 138.657 74.7237 138.657C76.8293 138.657 78.5288 138.753 78.5288 138.878Z" fill="#E0E0E0"/>
<path d="M78.5288 146.95C78.5288 147.071 76.8243 147.171 74.7237 147.171C72.6231 147.171 70.9136 147.071 70.9136 146.95C70.9136 146.83 72.6181 146.729 74.7237 146.729C76.8293 146.729 78.5288 146.83 78.5288 146.95Z" fill="#E0E0E0"/>
<path d="M78.5288 155.023C78.5288 155.143 76.8243 155.244 74.7237 155.244C72.6231 155.244 70.9136 155.143 70.9136 155.023C70.9136 154.902 72.6181 154.802 74.7237 154.802C76.8293 154.802 78.5288 154.902 78.5288 155.023Z" fill="#E0E0E0"/>
<path d="M78.5288 163.095C78.5288 163.22 76.8243 163.316 74.7237 163.316C72.6231 163.316 70.9136 163.22 70.9136 163.095C70.9136 162.969 72.6181 162.879 74.7237 162.879C76.8293 162.879 78.5288 162.974 78.5288 163.095Z" fill="#E0E0E0"/>
<path d="M78.5288 171.182C78.5288 171.302 76.8243 171.398 74.7237 171.398C72.6231 171.398 70.9136 171.302 70.9136 171.182C70.9136 171.061 72.6181 170.961 74.7237 170.961C76.8293 170.961 78.5288 171.046 78.5288 171.182Z" fill="#E0E0E0"/>
<path d="M78.5288 179.244C78.5288 179.365 76.8243 179.465 74.7237 179.465C72.6231 179.465 70.9136 179.365 70.9136 179.244C70.9136 179.124 72.6181 179.023 74.7237 179.023C76.8293 179.023 78.5288 179.124 78.5288 179.244Z" fill="#E0E0E0"/>
<path d="M78.5288 187.316C78.5288 187.436 76.8243 187.536 74.7237 187.536C72.6231 187.536 70.9136 187.436 70.9136 187.316C70.9136 187.195 72.6181 187.095 74.7237 187.095C76.8293 187.095 78.5288 187.195 78.5288 187.316Z" fill="#E0E0E0"/>
<path d="M78.5288 195.388C78.5288 195.513 76.8243 195.609 74.7237 195.609C72.6231 195.609 70.9136 195.513 70.9136 195.388C70.9136 195.262 72.6181 195.167 74.7237 195.167C76.8293 195.167 78.5288 195.277 78.5288 195.388Z" fill="#E0E0E0"/>
<path d="M109.045 81.8859C109.045 82.0064 104.623 82.1068 99.1689 82.1068C93.7144 82.1068 89.2876 82.0064 89.2876 81.8859C89.2876 81.7654 93.7094 81.665 99.1689 81.665C104.628 81.665 109.045 81.7654 109.045 81.8859Z" fill="#347BB1"/>
<path d="M109.045 195.388C109.045 195.513 104.623 195.609 99.1689 195.609C93.7144 195.609 89.2876 195.513 89.2876 195.388C89.2876 195.262 93.7094 195.167 99.1689 195.167C104.628 195.167 109.045 195.277 109.045 195.388Z" fill="#347BB1"/>
<path d="M136.563 98.5069C136.563 98.6324 128.286 98.7278 118.079 98.7278C107.872 98.7278 99.5947 98.6324 99.5947 98.5069C99.5947 98.3814 107.867 98.291 118.079 98.291C128.291 98.291 136.563 98.3914 136.563 98.5069Z" fill="#347BB1"/>
<path d="M179.317 98.5069C179.317 98.6324 171.04 98.7278 160.833 98.7278C150.626 98.7278 142.344 98.6324 142.344 98.5069C142.344 98.3814 150.621 98.291 160.833 98.291C171.045 98.291 179.317 98.3914 179.317 98.5069Z" fill="#E0E0E0"/>
<path d="M162.979 106.584C162.979 106.705 150.781 106.805 135.736 106.805C120.691 106.805 108.494 106.705 108.494 106.584C108.494 106.464 120.686 106.363 135.736 106.363C150.786 106.363 162.979 106.459 162.979 106.584Z" fill="#E0E0E0"/>
<path d="M162.979 114.656C162.979 114.777 150.781 114.877 135.736 114.877C120.691 114.877 108.494 114.777 108.494 114.656C108.494 114.536 120.686 114.436 135.736 114.436C150.786 114.436 162.979 114.536 162.979 114.656Z" fill="#E0E0E0"/>
<path d="M200.483 138.878C200.483 138.999 188.281 139.094 173.241 139.094C158.201 139.094 145.993 138.999 145.993 138.878C145.993 138.758 158.191 138.657 173.241 138.657C188.291 138.657 200.483 138.753 200.483 138.878Z" fill="#E0E0E0"/>
<path d="M184.295 122.729C184.295 122.849 172.098 122.95 157.058 122.95C142.018 122.95 129.81 122.849 129.81 122.729C129.81 122.608 142.008 122.508 157.058 122.508C172.108 122.508 184.295 122.608 184.295 122.729Z" fill="#E0E0E0"/>
<path d="M250.877 122.729C250.877 122.849 238.68 122.95 223.64 122.95C208.6 122.95 196.393 122.849 196.393 122.729C196.393 122.608 208.59 122.508 223.64 122.508C238.69 122.508 250.877 122.608 250.877 122.729Z" fill="#E0E0E0"/>
<path d="M227.726 106.584C227.726 106.705 215.523 106.805 200.483 106.805C185.443 106.805 173.241 106.705 173.241 106.584C173.241 106.464 185.433 106.363 200.483 106.363C215.533 106.363 227.726 106.459 227.726 106.584Z" fill="#FAFAFA"/>
<path d="M265.361 138.878C265.361 138.999 253.163 139.094 238.118 139.094C223.073 139.094 210.876 138.999 210.876 138.878C210.876 138.758 223.068 138.657 238.118 138.657C253.168 138.657 265.361 138.753 265.361 138.878Z" fill="#FAFAFA"/>
<path d="M257.846 114.656C257.846 114.777 238.905 114.877 215.543 114.877C192.181 114.877 173.241 114.777 173.241 114.656C173.241 114.536 192.176 114.436 215.543 114.436C238.91 114.436 257.846 114.536 257.846 114.656Z" fill="#455A64"/>
<path d="M109.045 90.4347C109.045 90.5552 104.623 90.6556 99.1689 90.6556C93.7144 90.6556 89.2876 90.5552 89.2876 90.4347C89.2876 90.3143 93.7094 90.2139 99.1689 90.2139C104.628 90.2139 109.045 90.3143 109.045 90.4347Z" fill="#FAFAFA"/>
<path d="M109.045 187.316C109.045 187.436 104.623 187.536 99.1689 187.536C93.7144 187.536 89.2876 187.436 89.2876 187.316C89.2876 187.195 93.7094 187.095 99.1689 187.095C104.628 187.095 109.045 187.195 109.045 187.316Z" fill="#FAFAFA"/>
<path d="M118.816 122.729C118.816 122.849 114.395 122.95 108.935 122.95C103.475 122.95 99.0537 122.849 99.0537 122.729C99.0537 122.608 103.48 122.508 108.935 122.508C114.389 122.508 118.816 122.608 118.816 122.729Z" fill="#FAFAFA"/>
<path d="M277.202 122.729C277.202 122.849 272.781 122.95 267.326 122.95C261.872 122.95 257.445 122.849 257.445 122.729C257.445 122.608 261.867 122.508 267.326 122.508C272.786 122.508 277.202 122.608 277.202 122.729Z" fill="#FF725E"/>
<path d="M136.563 154.977C136.563 155.097 128.286 155.198 118.079 155.198C107.872 155.198 99.5947 155.097 99.5947 154.977C99.5947 154.856 107.867 154.756 118.079 154.756C128.291 154.756 136.563 154.851 136.563 154.977Z" fill="#347BB1"/>
<path d="M179.317 154.977C179.317 155.097 171.04 155.198 160.833 155.198C150.626 155.198 142.344 155.097 142.344 154.977C142.344 154.856 150.621 154.756 160.833 154.756C171.045 154.756 179.317 154.851 179.317 154.977Z" fill="#E0E0E0"/>
<path d="M162.979 163.049C162.979 163.169 150.781 163.27 135.736 163.27C120.691 163.27 108.494 163.169 108.494 163.049C108.494 162.929 120.686 162.828 135.736 162.828C150.786 162.828 162.979 162.929 162.979 163.049Z" fill="#E0E0E0"/>
<path d="M162.979 171.121C162.979 171.242 150.781 171.342 135.736 171.342C120.691 171.342 108.494 171.242 108.494 171.121C108.494 171.001 120.686 170.9 135.736 170.9C150.786 170.9 162.979 171.001 162.979 171.121Z" fill="#E0E0E0"/>
<path d="M184.295 179.214C184.295 179.339 172.098 179.435 157.058 179.435C142.018 179.435 129.81 179.339 129.81 179.214C129.81 179.088 142.008 178.998 157.058 178.998C172.108 178.998 184.295 179.073 184.295 179.214Z" fill="#E0E0E0"/>
<path d="M250.877 179.214C250.877 179.339 238.68 179.435 223.64 179.435C208.6 179.435 196.393 179.339 196.393 179.214C196.393 179.088 208.59 178.998 223.64 178.998C238.69 178.998 250.877 179.073 250.877 179.214Z" fill="#E0E0E0"/>
<path d="M227.726 163.049C227.726 163.169 215.523 163.27 200.483 163.27C185.443 163.27 173.241 163.169 173.241 163.049C173.241 162.929 185.433 162.828 200.483 162.828C215.533 162.828 227.726 162.929 227.726 163.049Z" fill="#FAFAFA"/>
<path d="M257.846 171.121C257.846 171.242 238.905 171.342 215.543 171.342C192.181 171.342 173.241 171.242 173.241 171.121C173.241 171.001 192.176 170.9 215.543 170.9C238.91 170.9 257.846 171.001 257.846 171.121Z" fill="#455A64"/>
<path d="M118.816 179.214C118.816 179.339 114.395 179.435 108.935 179.435C103.475 179.435 99.0537 179.339 99.0537 179.214C99.0537 179.088 103.48 178.998 108.935 178.998C114.389 178.998 118.816 179.073 118.816 179.214Z" fill="#FAFAFA"/>
<path d="M277.202 179.214C277.202 179.339 272.781 179.435 267.326 179.435C261.872 179.435 257.445 179.339 257.445 179.214C257.445 179.088 261.867 178.998 267.326 178.998C272.786 178.998 277.202 179.073 277.202 179.214Z" fill="#FF725E"/>
<path d="M282.471 218.872C282.471 218.942 232.017 219.002 169.792 219.002C107.566 219.002 57.1021 218.932 57.1021 218.872C57.1021 218.811 107.546 218.741 169.792 218.741C232.037 218.741 282.471 218.791 282.471 218.872Z" fill="#263238"/>
<path d="M48.6648 174.611C45.1559 171.096 40.7941 168.556 36.0081 167.24C31.222 165.924 26.1765 165.878 21.3672 167.106C29.5155 172.665 39.1309 175.672 48.9907 175.745" fill="#DA2C38"/>
<path d="M39.4049 141.78C40.5429 133.723 37.3996 124.662 31.3836 118.809C31.1881 126.79 34.552 135.771 39.4049 141.78Z" fill="#DA2C38"/>
<path d="M44.2226 156.995C39.8723 148.721 32.9465 142.093 24.4951 138.115C25.8162 142.753 28.3471 146.954 31.8275 150.288C35.3079 153.621 39.6122 155.966 44.2978 157.081" fill="#347BB1"/>
<path d="M45.2202 159.928C40.3623 160.068 35.4442 159.897 30.7467 158.652C26.0492 157.407 21.5573 155.013 18.4189 151.288C27.9362 151.318 37.2332 154.159 45.145 159.456" fill="#347BB1"/>
<path d="M42.7539 150.259C45.2205 141.002 49.2712 134.602 56.5556 129.416C57.1124 133.967 56.0279 138.568 53.4975 142.389C50.9671 146.21 47.1572 149.001 42.7539 150.259Z" fill="#347BB1"/>
<path d="M61.0924 166.223C61.1107 163.523 60.3315 160.877 58.8525 158.619C57.3735 156.361 55.2609 154.591 52.7803 153.532C53.1864 158.311 56.9363 163.838 61.0924 166.223Z" fill="#DA2C38"/>
<path d="M63.4136 158.416C63.7523 154.541 65.1891 150.844 67.5551 147.759C69.9211 144.674 73.1178 142.33 76.7691 141.002C75.0896 148.738 70.6278 155.178 63.4136 158.416Z" fill="#347BB1"/>
<path d="M59.9146 172.267C61.6291 169.812 64.4265 168.286 67.3192 167.528C70.2119 166.77 73.235 166.7 76.2229 166.64C74.1872 168.852 71.6976 170.596 68.9249 171.754C66.1523 172.912 63.1623 173.455 60.1602 173.346" fill="#347BB1"/>
<path d="M56.4453 191.99C61.8978 190.305 67.7828 190.728 72.9392 193.175C78.0956 195.622 82.1489 199.915 84.2994 205.208C74.1975 203.31 64.1959 198.792 56.4453 191.99Z" fill="#DA2C38"/>
<path d="M45.3405 185.138C47.02 190.113 46.6941 196.126 42.9592 200.414C42.2149 197.848 42.0423 195.15 42.4538 192.511C42.8653 189.871 43.8508 187.354 45.3405 185.138Z" fill="#347BB1"/>
<path d="M38.7734 182.372C38.5025 185.579 37.4102 188.662 35.602 191.323C33.7938 193.984 31.3308 196.133 28.4509 197.562C28.317 197.648 28.167 197.705 28.0102 197.731C27.8533 197.757 27.6929 197.751 27.5385 197.713C27.0823 197.527 27.0372 196.904 27.0973 196.412C27.8293 190.042 32.5468 183.862 38.7734 182.356" fill="#DA2C38"/>
<path d="M34.4868 181.724C33.0606 183.267 31.333 184.501 29.4112 185.348C27.4894 186.194 25.4143 186.637 23.3146 186.648C21.2149 186.659 19.1354 186.238 17.2049 185.41C15.2745 184.583 13.5343 183.368 12.0923 181.84C19.2112 181.062 27.4231 180.54 34.4868 181.724Z" fill="#347BB1"/>
<path d="M33.4189 124.742C33.4189 124.742 33.4189 124.817 33.4841 124.953L33.7047 125.555C33.9052 126.098 34.206 126.871 34.562 127.865C34.9179 128.859 35.3892 130.094 35.9005 131.524L36.7227 133.813L37.6001 136.389C38.8634 139.998 40.2621 144.33 41.7762 149.154C43.2902 153.979 44.8193 159.32 46.3533 164.952C47.8874 170.585 49.2059 175.996 50.364 180.906C51.5221 185.815 52.4295 190.288 53.1163 194.053C53.2935 194.994 53.4606 195.887 53.6177 196.734C53.7747 197.581 53.9101 198.379 54.0237 199.129C54.2794 200.635 54.5 201.915 54.6504 202.974C54.8008 204.033 54.9362 204.836 55.0214 205.409C55.0682 205.673 55.1033 205.884 55.1267 206.041C55.1359 206.114 55.151 206.186 55.1718 206.257C55.1785 206.183 55.1785 206.11 55.1718 206.036C55.1718 205.88 55.1267 205.67 55.0916 205.404C55.0164 204.831 54.9111 204.008 54.7707 202.959C54.6304 201.91 54.4348 200.604 54.1892 199.103C54.0689 198.355 53.9385 197.552 53.8032 196.704C53.6678 195.855 53.4873 194.957 53.3018 194.018C52.6351 190.248 51.7026 185.79 50.6047 180.851C49.5067 175.911 48.1281 170.52 46.6241 164.877C45.1201 159.235 43.5258 153.913 42.0268 149.094C40.5279 144.275 39.079 139.943 37.7956 136.343C37.4614 135.44 37.1589 134.581 36.8882 133.768L36.0409 131.484C35.5396 130.058 35.0382 128.833 34.6622 127.84C34.2862 126.846 33.9654 126.088 33.7548 125.55C33.6496 125.299 33.5693 125.104 33.5142 124.958C33.4881 124.884 33.4563 124.812 33.4189 124.742Z" fill="#263238"/>
<path d="M72.5229 145.134C72.5229 145.134 72.4778 145.169 72.3976 145.249L72.0567 145.606C71.7609 145.922 71.3298 146.399 70.7933 147.026C69.2666 148.786 67.866 150.651 66.6022 152.609C64.7151 155.522 63.2405 158.682 62.2205 162.001C61.0424 165.736 60.3155 169.983 59.5885 174.425C58.1447 183.311 56.365 191.273 55.0765 197.015C54.4298 199.882 53.9034 202.206 53.5324 203.833C53.357 204.621 53.2216 205.243 53.1263 205.685C53.0812 205.886 53.0511 206.046 53.0261 206.187C53.0174 206.242 53.0174 206.298 53.0261 206.353C53.0261 206.353 53.0261 206.297 53.0762 206.192C53.1263 206.087 53.1514 205.911 53.2015 205.715L53.6628 203.873C54.0488 202.246 54.6053 199.932 55.2871 197.071C56.6206 191.323 58.4304 183.366 59.8793 174.481C60.6062 170.038 61.3231 165.801 62.4762 162.081C63.4807 158.781 64.9295 155.633 66.7827 152.724C68.0319 150.761 69.405 148.88 70.8936 147.092C71.3949 146.459 71.8361 145.972 72.1168 145.646L72.4377 145.269L72.5229 145.134Z" fill="#263238"/>
<path d="M32.3613 181.423C32.4438 181.451 32.53 181.466 32.617 181.468L33.354 181.554L33.8854 181.604L34.5171 181.699C34.9683 181.765 35.4846 181.835 36.0211 181.955L36.9084 182.136L37.8559 182.372C38.5127 182.523 39.1945 182.764 39.9214 182.985C41.4767 183.532 42.9856 184.203 44.4334 184.993C45.8671 185.798 47.2202 186.739 48.4742 187.804C49.0183 188.276 49.5355 188.779 50.0233 189.31C50.4593 189.758 50.8694 190.23 51.2516 190.725C51.5758 191.127 51.8787 191.546 52.159 191.98C52.3888 192.3 52.5965 192.636 52.7806 192.984L53.1566 193.622C53.2469 193.767 53.297 193.843 53.307 193.838C53.2868 193.754 53.2529 193.674 53.2068 193.602L52.8709 192.934C52.7007 192.585 52.5047 192.25 52.2843 191.93C52.0156 191.485 51.721 191.056 51.402 190.645C51.0288 190.134 50.6236 189.648 50.1887 189.189C49.6993 188.66 49.1822 188.157 48.6396 187.683C47.3891 186.566 46.0285 185.579 44.5788 184.736C43.1183 183.938 41.592 183.266 40.0167 182.728C39.2847 182.518 38.5979 182.282 37.9311 182.141L36.9736 181.915L36.0963 181.77C35.5298 181.654 35.0084 181.599 34.5522 181.549L33.9205 181.473L33.384 181.448L32.6421 181.418C32.5488 181.406 32.4541 181.408 32.3613 181.423Z" fill="#263238"/>
<path d="M30.3306 145.304C30.4799 145.488 30.6479 145.656 30.8319 145.806L32.3108 147.086C33.5541 148.15 35.2888 149.596 37.2089 151.207C39.129 152.819 40.8886 154.219 42.162 155.263L43.666 156.473C43.8475 156.627 44.0421 156.765 44.2476 156.885C44.0971 156.702 43.9292 156.534 43.7462 156.383L42.2824 155.118C41.039 154.054 39.3094 152.608 37.3843 151.001C35.4592 149.395 33.7096 147.989 32.4362 146.945L30.9322 145.735C30.7475 145.571 30.5459 145.426 30.3306 145.304Z" fill="#263238"/>
<path d="M28.5762 154.732C28.5762 154.807 32.2961 155.972 36.9234 157.342C41.5507 158.713 45.3307 159.767 45.3508 159.697C45.3708 159.626 41.6359 158.452 37.0036 157.081C32.3713 155.711 28.6063 154.662 28.5762 154.732Z" fill="#263238"/>
<path d="M42.3828 150.977C42.5315 150.813 42.661 150.633 42.7688 150.44L43.7715 148.934C44.6037 147.669 45.7768 145.922 47.1956 144.1C48.6144 142.277 49.9529 140.661 50.9456 139.516L52.1287 138.166C52.2855 138.015 52.4251 137.846 52.5448 137.664C52.3619 137.792 52.1937 137.94 52.0435 138.106C51.7377 138.407 51.3116 138.849 50.7952 139.406C49.7574 140.515 48.3788 142.107 46.97 143.949C45.5613 145.791 44.3932 147.548 43.596 148.844C43.2 149.491 42.8892 150.023 42.6836 150.395C42.5656 150.579 42.4649 150.774 42.3828 150.977Z" fill="#263238"/>
<path d="M55.3623 156.213C55.624 156.713 55.9171 157.196 56.2396 157.659C56.8011 158.537 57.5581 159.757 58.3402 161.138C59.1223 162.518 59.7891 163.793 60.2553 164.727C60.4862 165.246 60.7508 165.749 61.0474 166.233C60.8942 165.688 60.6876 165.16 60.4308 164.657C60.0047 163.703 59.368 162.408 58.5758 161.017C57.7837 159.626 57.0017 158.417 56.4001 157.563C56.0982 157.081 55.7507 156.629 55.3623 156.213Z" fill="#263238"/>
<path d="M59.8042 172.523C59.8042 172.558 60.5361 172.212 61.7043 171.684C62.8724 171.157 64.5017 170.47 66.3416 169.827C68.1815 169.185 69.886 168.698 71.1293 168.381C72.3726 168.065 73.1347 167.879 73.1347 167.854C72.9475 167.847 72.7602 167.865 72.5782 167.909C72.2222 167.965 71.7109 168.06 71.0742 168.196C67.7987 168.913 64.6221 170.026 61.614 171.509C61.0375 171.795 60.5763 172.041 60.2654 172.222C60.0995 172.302 59.9445 172.403 59.8042 172.523Z" fill="#263238"/>
<path d="M56.3101 192.021C56.3101 192.021 56.3853 192.061 56.5407 192.101L57.2125 192.272L59.7191 192.849C62.4597 193.423 65.1688 194.138 67.8357 194.992C70.4908 195.881 73.033 197.077 75.4109 198.557C76.3183 199.134 77.0252 199.646 77.5014 200.012C77.7411 200.212 77.9922 200.399 78.2534 200.57C78.2534 200.57 78.1983 200.499 78.083 200.389C77.9677 200.278 77.7972 200.118 77.5816 199.927C76.9276 199.378 76.243 198.867 75.5312 198.396C73.1669 196.858 70.6163 195.628 67.941 194.736C65.2644 193.875 62.5369 193.181 59.7743 192.658L57.2676 192.156C56.9516 192.091 56.6318 192.045 56.3101 192.021Z" fill="#263238"/>
<path d="M43.6665 196.829C43.7417 196.829 44.1678 194.214 44.6691 190.966C45.1705 187.718 45.4713 185.073 45.3961 185.063C45.3209 185.052 44.8947 187.678 44.3934 190.926C43.8921 194.174 43.6163 196.819 43.6665 196.829Z" fill="#263238"/>
<path d="M30.5015 192.045C30.9283 191.602 31.3252 191.131 31.6896 190.635C32.4015 189.746 33.3841 188.526 34.5021 187.196C35.6201 185.866 36.6478 184.686 37.3998 183.833C37.8304 183.387 38.2323 182.914 38.603 182.417C38.462 182.508 38.3338 182.618 38.222 182.743C37.9914 182.959 37.6705 183.29 37.2745 183.702C36.4874 184.525 35.4296 185.71 34.3116 187.02C33.1936 188.331 32.2311 189.596 31.5593 190.534C31.2184 190.996 30.9527 191.373 30.7772 191.634C30.6671 191.758 30.5743 191.896 30.5015 192.045Z" fill="#263238"/>
<path d="M65.3388 204.27V210.78H63.7095L57.9291 229.053H45.11L39.5101 210.961L37.3394 210.78V204.27H65.3388Z" fill="#951C24"/>
<g opacity="0.3">
<path d="M65.3388 204.27V210.78H63.7095L57.9291 229.053H45.11L39.5101 210.961L37.3394 210.78V204.27H65.3388Z" fill="black"/>
</g>
<path d="M38.4224 210.961C38.4224 211.036 44.0874 211.096 51.066 211.096C58.0446 211.096 63.7096 211.036 63.7096 210.961C63.7096 210.885 58.0496 210.825 51.066 210.825C44.0824 210.825 38.4224 210.885 38.4224 210.961Z" fill="#263238"/>
<path d="M29.2026 169.068C29.4699 169.165 29.745 169.239 30.0248 169.289L32.2758 169.836C34.1708 170.303 36.7878 171.016 39.6003 171.97C42.4128 172.924 44.9345 173.928 46.7292 174.701L48.8499 175.629C49.1034 175.757 49.3666 175.865 49.637 175.951C49.402 175.791 49.1538 175.652 48.895 175.534C48.3937 175.283 47.6968 174.937 46.8044 174.53C44.4823 173.471 42.1079 172.531 39.6905 171.714C37.2713 170.899 34.8115 170.21 32.3209 169.651C31.3634 169.44 30.5863 169.284 30.0449 169.194C29.7684 169.127 29.4866 169.085 29.2026 169.068Z" fill="#263238"/>
<path d="M42.6787 221.106C42.6787 221.182 46.6543 221.242 51.5523 221.242C56.4503 221.242 60.4209 221.182 60.4209 221.106C60.4209 221.031 56.4503 220.971 51.5523 220.971C46.6543 220.971 42.6787 221.031 42.6787 221.106Z" fill="#FAFAFA"/>
<path d="M42.1821 219.595C42.1821 219.671 46.3933 219.731 51.5821 219.731C56.7709 219.731 60.9821 219.671 60.9821 219.595C60.9821 219.52 56.7759 219.46 51.5821 219.46C46.3883 219.46 42.1821 219.52 42.1821 219.595Z" fill="#FAFAFA"/>
<path d="M355.676 229.153C355.676 229.228 279.253 229.289 185.002 229.289C90.7514 229.289 14.3081 229.228 14.3081 229.153C14.3081 229.078 90.7414 229.022 184.992 229.022C279.243 229.022 355.676 229.083 355.676 229.153Z" fill="#263238"/>
<path d="M308.842 38.2178H174.489V121.53H287.59L294.594 137.659L300.8 121.53H308.842V38.2178Z" fill="#FAFAFA"/>
<path d="M308.822 38.2127C308.822 39.0209 308.857 70.3407 308.922 121.545V121.645H300.8L300.895 121.58C298.955 126.635 296.86 132.082 294.694 137.709L294.599 137.965L294.488 137.714C292.293 132.664 289.921 127.197 287.47 121.585L287.575 121.655H185.303H174.359V121.525C174.359 91.8313 174.359 63.654 174.359 38.1926V38.0771H174.479L308.837 38.1926L174.479 38.3131L174.6 38.1926C174.6 63.639 174.6 91.8162 174.6 121.525L174.469 121.394H185.288H287.56H287.635L287.665 121.464L294.684 137.599H294.478L300.705 121.484L300.73 121.414H308.822L308.721 121.515C308.822 70.3206 308.822 39.0209 308.822 38.2127Z" fill="#263238"/>
<path d="M308.772 46.3452C308.772 46.4456 278.752 46.531 241.733 46.531C204.715 46.531 174.69 46.4456 174.69 46.3452C174.69 46.2448 204.705 46.1846 241.733 46.1846C278.762 46.1846 308.772 46.2448 308.772 46.3452Z" fill="#263238"/>
<path d="M181.628 42.6708C181.628 42.8895 181.563 43.1032 181.442 43.2849C181.321 43.4666 181.148 43.6082 180.946 43.6916C180.744 43.7751 180.522 43.7966 180.308 43.7536C180.094 43.7106 179.898 43.6049 179.744 43.45C179.59 43.295 179.485 43.0977 179.443 42.8832C179.401 42.6686 179.424 42.4464 179.508 42.2447C179.592 42.043 179.734 41.8708 179.916 41.7501C180.098 41.6293 180.312 41.5654 180.53 41.5664C180.822 41.5677 181.101 41.6847 181.307 41.8917C181.513 42.0986 181.628 42.3788 181.628 42.6708Z" fill="#263238"/>
<path d="M185.614 42.6708C185.614 42.8895 185.549 43.1032 185.427 43.2849C185.306 43.4666 185.133 43.6082 184.932 43.6916C184.73 43.7751 184.508 43.7966 184.294 43.7536C184.08 43.7106 183.883 43.6049 183.729 43.45C183.575 43.295 183.47 43.0977 183.428 42.8832C183.386 42.6686 183.409 42.4464 183.493 42.2447C183.577 42.043 183.72 41.8708 183.902 41.7501C184.084 41.6293 184.297 41.5654 184.516 41.5664C184.807 41.5677 185.087 41.6847 185.292 41.8917C185.498 42.0986 185.614 42.3788 185.614 42.6708Z" fill="#263238"/>
<path d="M189.599 42.6708C189.599 42.8892 189.535 43.1028 189.414 43.2844C189.292 43.466 189.12 43.6075 188.919 43.6911C188.717 43.7747 188.495 43.7966 188.281 43.754C188.067 43.7114 187.871 43.6062 187.717 43.4517C187.562 43.2973 187.457 43.1005 187.415 42.8863C187.372 42.672 187.394 42.45 187.478 42.2482C187.561 42.0464 187.702 41.8739 187.884 41.7525C188.065 41.6312 188.278 41.5664 188.496 41.5664C188.789 41.5664 189.07 41.6828 189.276 41.8899C189.483 42.097 189.599 42.3779 189.599 42.6708Z" fill="#263238"/>
<path d="M189.143 61.2449L185.955 62.4798L189.143 63.7097V64.4577L185.132 62.8664V62.0983L189.143 60.502V61.2449Z" fill="#263238"/>
<path d="M192.462 58.0566H193.244L190.276 66.5304H189.504L192.462 58.0566Z" fill="#263238"/>
<path d="M197.525 62.0975V62.8706L193.515 64.4619V63.7139L196.713 62.484L193.515 61.2441V60.4961L197.525 62.0975Z" fill="#263238"/>
<path d="M198.558 65.0647C198.557 64.9839 198.572 64.9036 198.602 64.8287C198.632 64.7538 198.677 64.6857 198.734 64.6286C198.791 64.5714 198.859 64.5264 198.934 64.4961C199.009 64.4658 199.089 64.4509 199.17 64.4522C199.25 64.4515 199.329 64.467 199.402 64.4977C199.476 64.5284 199.543 64.5737 199.599 64.631C199.654 64.6882 199.698 64.7561 199.727 64.8306C199.756 64.9052 199.769 64.9848 199.766 65.0647C199.769 65.145 199.756 65.2251 199.727 65.3002C199.698 65.3753 199.655 65.4439 199.599 65.5019C199.544 65.5599 199.477 65.6062 199.403 65.638C199.329 65.6698 199.25 65.6865 199.17 65.6872C199.089 65.6872 199.008 65.671 198.933 65.6396C198.859 65.6082 198.791 65.5622 198.734 65.5042C198.677 65.4463 198.632 65.3776 198.602 65.3021C198.572 65.2267 198.557 65.1459 198.558 65.0647Z" fill="#263238"/>
<path d="M200.604 65.0648C200.602 64.9838 200.616 64.9032 200.646 64.828C200.676 64.7527 200.721 64.6844 200.778 64.6271C200.835 64.5698 200.904 64.5248 200.979 64.4947C201.054 64.4647 201.134 64.4503 201.215 64.4523C201.295 64.4523 201.373 64.4683 201.446 64.4993C201.52 64.5303 201.586 64.5757 201.641 64.6329C201.696 64.69 201.739 64.7577 201.768 64.8319C201.796 64.9061 201.81 64.9853 201.807 65.0648C201.81 65.1447 201.796 65.2244 201.768 65.2992C201.74 65.3739 201.697 65.4423 201.641 65.5002C201.586 65.5582 201.52 65.6045 201.447 65.6367C201.374 65.6688 201.295 65.686 201.215 65.6873C201.134 65.688 201.053 65.6723 200.978 65.6411C200.903 65.6099 200.835 65.564 200.778 65.5059C200.721 65.4478 200.676 65.3788 200.646 65.303C200.616 65.2273 200.602 65.1462 200.604 65.0648Z" fill="#263238"/>
<path d="M202.644 65.0648C202.642 64.9838 202.657 64.9032 202.687 64.828C202.717 64.7527 202.762 64.6844 202.819 64.6271C202.876 64.5698 202.944 64.5248 203.019 64.4947C203.095 64.4647 203.175 64.4503 203.256 64.4523C203.335 64.4523 203.414 64.4683 203.487 64.4993C203.56 64.5303 203.626 64.5757 203.681 64.6329C203.737 64.69 203.78 64.7577 203.808 64.8319C203.837 64.9061 203.85 64.9853 203.847 65.0648C203.85 65.1447 203.837 65.2244 203.808 65.2992C203.78 65.3739 203.737 65.4423 203.682 65.5002C203.627 65.5582 203.561 65.6045 203.488 65.6367C203.415 65.6688 203.336 65.686 203.256 65.6873C203.175 65.688 203.094 65.6723 203.019 65.6411C202.943 65.6099 202.875 65.564 202.818 65.5059C202.761 65.4478 202.716 65.3788 202.686 65.303C202.657 65.2273 202.642 65.1462 202.644 65.0648Z" fill="#263238"/>
<path d="M273.979 73.1467C273.979 73.2471 254.121 73.3274 229.626 73.3274C205.131 73.3274 185.268 73.2471 185.268 73.1467C185.268 73.0463 205.126 72.9609 229.626 72.9609C254.126 72.9609 273.979 73.0413 273.979 73.1467Z" fill="#455A64"/>
<path d="M288.467 73.4084C288.467 73.5088 286.562 73.5941 284.206 73.5941C281.85 73.5941 279.945 73.5088 279.945 73.4084C279.945 73.308 281.855 73.2227 284.206 73.2227C286.557 73.2227 288.467 73.2929 288.467 73.4084Z" fill="#263238"/>
<path d="M300.925 73.4084C300.925 73.5088 298.84 73.5941 296.273 73.5941C293.706 73.5941 291.616 73.5088 291.616 73.4084C291.616 73.308 293.701 73.2227 296.273 73.2227C298.845 73.2227 300.925 73.2929 300.925 73.4084Z" fill="#263238"/>
<path d="M241.758 80.632C241.758 80.7324 229.134 80.8127 213.563 80.8127C197.992 80.8127 185.373 80.7324 185.373 80.632C185.373 80.5316 197.992 80.4463 213.563 80.4463C229.134 80.4463 241.758 80.5266 241.758 80.632Z" fill="#455A64"/>
<path d="M241.352 108.558C241.352 108.658 228.729 108.739 213.162 108.739C197.596 108.739 184.967 108.658 184.967 108.558C184.967 108.457 197.591 108.372 213.162 108.372C228.734 108.372 241.352 108.457 241.352 108.558Z" fill="#455A64"/>
<path d="M262.243 80.632C262.243 80.7324 258.809 80.8127 254.572 80.8127C250.336 80.8127 246.902 80.7324 246.902 80.632C246.902 80.5316 250.336 80.4463 254.572 80.4463C258.809 80.4463 262.243 80.5266 262.243 80.632Z" fill="#263238"/>
<path d="M262.082 108.558C262.082 108.658 258.648 108.739 254.412 108.739C250.175 108.739 246.741 108.658 246.741 108.558C246.741 108.457 250.175 108.372 254.412 108.372C258.648 108.372 262.082 108.457 262.082 108.558Z" fill="#263238"/>
<path d="M189.073 84.4366C189.073 84.537 188.221 84.6223 187.168 84.6223C186.115 84.6223 185.268 84.537 185.268 84.4366C185.268 84.3362 186.12 84.2559 187.168 84.2559C188.216 84.2559 189.073 84.3362 189.073 84.4366Z" fill="#FF725E"/>
<path d="M202.183 84.5168C202.183 84.6172 200.333 84.6975 198.052 84.6975C195.771 84.6975 193.921 84.6172 193.921 84.5168C193.921 84.4164 195.771 84.3311 198.052 84.3311C200.333 84.3311 202.183 84.4164 202.183 84.5168Z" fill="#263238"/>
<path d="M210.56 84.5168C210.56 84.6172 208.976 84.6975 207.021 84.6975C205.066 84.6975 203.481 84.6172 203.481 84.5168C203.481 84.4164 205.066 84.3311 207.021 84.3311C208.976 84.3311 210.56 84.4164 210.56 84.5168Z" fill="#263238"/>
<path d="M221.199 84.5168C221.199 84.6172 219.584 84.6975 217.594 84.6975C215.604 84.6975 213.984 84.6172 213.984 84.5168C213.984 84.4164 215.599 84.3311 217.594 84.3311C219.589 84.3311 221.199 84.4164 221.199 84.5168Z" fill="#263238"/>
<path d="M230.508 84.5168C230.508 84.6172 229.039 84.6975 227.229 84.6975C225.42 84.6975 223.951 84.6172 223.951 84.5168C223.951 84.4164 225.42 84.3311 227.229 84.3311C229.039 84.3311 230.508 84.4164 230.508 84.5168Z" fill="#263238"/>
<path d="M261.325 84.5168C261.325 84.6172 254.868 84.6975 246.902 84.6975C238.936 84.6975 232.474 84.6172 232.474 84.5168C232.474 84.4164 238.931 84.3311 246.902 84.3311C254.873 84.3311 261.325 84.4164 261.325 84.5168Z" fill="#263238"/>
<path d="M188.547 89.2961C188.547 89.3965 187.815 89.4818 186.907 89.4818C186 89.4818 185.268 89.3965 185.268 89.2961C185.268 89.1957 186 89.1104 186.907 89.1104C187.815 89.1104 188.547 89.1957 188.547 89.2961Z" fill="#FF725E"/>
<path d="M188.677 94.2863C188.677 94.3867 187.915 94.4721 186.973 94.4721C186.03 94.4721 185.268 94.3867 185.268 94.2863C185.268 94.1859 186.03 94.1006 186.973 94.1006C187.915 94.1006 188.677 94.1859 188.677 94.2863Z" fill="#FF725E"/>
<path d="M188.677 99.9338C188.677 100.034 187.915 100.115 186.973 100.115C186.03 100.115 185.268 100.034 185.268 99.9338C185.268 99.8334 186.03 99.748 186.973 99.748C187.915 99.748 188.677 99.8284 188.677 99.9338Z" fill="#FF725E"/>
<path d="M219.755 99.667C219.755 99.7725 214.059 99.8528 207.036 99.8528C200.012 99.8528 194.317 99.7725 194.317 99.667C194.317 99.5616 200.012 99.4863 207.036 99.4863C214.059 99.4863 219.755 99.5666 219.755 99.667Z" fill="#263238"/>
<path d="M217.529 94.2863C217.529 94.3867 212.094 94.4721 205.396 94.4721C198.698 94.4721 193.269 94.3867 193.269 94.2863C193.269 94.1859 198.698 94.1006 205.396 94.1006C212.094 94.1006 217.529 94.1859 217.529 94.2863Z" fill="#263238"/>
<path d="M276.145 89.0353C276.145 89.1357 257.645 89.2161 234.84 89.2161C212.034 89.2161 193.53 89.1357 193.53 89.0353C193.53 88.9349 212.019 88.8496 234.84 88.8496C257.66 88.8496 276.145 88.9299 276.145 89.0353Z" fill="#263238"/>
<path d="M317.093 72.2881V143.09L306.099 152.272H317.093H318.176H363.597V72.2881H317.093Z" fill="#FAFAFA"/>
<path d="M317.094 72.2885C317.094 72.2885 317.369 72.2885 317.906 72.2885H320.312H329.572L363.597 72.2383H363.698V72.3387C363.698 93.7088 363.698 121.62 363.728 152.322V152.453H355.536H306.099H305.769L306.024 152.237L317.023 143.055L316.978 143.146C317.003 121.976 317.024 104.266 317.039 91.8414C317.039 85.6417 317.064 80.7622 317.069 77.429C317.069 75.7724 317.069 74.5023 317.069 73.6338C317.069 73.2122 317.069 72.8859 317.069 72.665C317.069 72.4441 317.069 72.3437 317.069 72.3437C317.069 72.3437 317.069 72.4592 317.069 72.68C317.069 72.9009 317.069 73.2322 317.069 73.684C317.069 74.5525 317.069 75.8326 317.069 77.4992C317.069 80.8375 317.069 85.727 317.099 91.9317C317.099 104.341 317.129 122.052 317.154 143.166V143.216L317.114 143.251L306.125 152.443L306.044 152.227H355.481H363.542L363.412 152.357C363.412 121.655 363.412 93.744 363.442 72.3738L363.542 72.4692L329.577 72.419L320.352 72.2885H317.926H317.094Z" fill="#263238"/>
<path d="M321.32 75.8022C321.32 75.9888 321.264 76.1713 321.161 76.3265C321.057 76.4817 320.91 76.6027 320.738 76.6741C320.566 76.7455 320.376 76.7642 320.193 76.7278C320.01 76.6914 319.842 76.6015 319.711 76.4695C319.579 76.3375 319.489 76.1694 319.453 75.9863C319.416 75.8032 319.435 75.6134 319.506 75.441C319.578 75.2685 319.698 75.1212 319.853 75.0175C320.008 74.9138 320.191 74.8584 320.377 74.8584C320.627 74.8584 320.867 74.9578 321.044 75.1348C321.22 75.3118 321.32 75.5519 321.32 75.8022Z" fill="#263238"/>
<path d="M324.729 75.8022C324.729 75.9888 324.673 76.1713 324.57 76.3265C324.466 76.4817 324.319 76.6027 324.147 76.6741C323.975 76.7455 323.785 76.7642 323.602 76.7278C323.42 76.6914 323.252 76.6015 323.12 76.4695C322.988 76.3375 322.898 76.1694 322.862 75.9863C322.825 75.8032 322.844 75.6134 322.915 75.441C322.987 75.2685 323.108 75.1212 323.263 75.0175C323.418 74.9138 323.6 74.8584 323.786 74.8584C324.036 74.8584 324.276 74.9578 324.453 75.1348C324.629 75.3118 324.729 75.5519 324.729 75.8022Z" fill="#263238"/>
<path d="M328.138 75.8022C328.138 75.9888 328.083 76.1713 327.979 76.3265C327.876 76.4817 327.728 76.6027 327.556 76.6741C327.384 76.7455 327.194 76.7642 327.012 76.7278C326.829 76.6914 326.661 76.6015 326.529 76.4695C326.397 76.3375 326.307 76.1694 326.271 75.9863C326.235 75.8032 326.253 75.6134 326.325 75.441C326.396 75.2685 326.517 75.1212 326.672 75.0175C326.827 74.9138 327.009 74.8584 327.195 74.8584C327.445 74.8584 327.685 74.9578 327.862 75.1348C328.039 75.3118 328.138 75.5519 328.138 75.8022Z" fill="#263238"/>
<path d="M350.813 97.6242C350.813 97.7096 344.917 97.7748 337.648 97.7748C330.379 97.7748 324.483 97.7096 324.483 97.6242C324.483 97.5389 330.374 97.4736 337.648 97.4736C344.922 97.4736 350.813 97.5389 350.813 97.6242Z" fill="#DA2C38"/>
<path d="M356.308 104.03C356.308 104.11 349.134 104.18 340.265 104.18C331.397 104.18 324.223 104.11 324.223 104.03C324.223 103.949 331.397 103.879 340.265 103.879C349.134 103.879 356.308 103.944 356.308 104.03Z" fill="#DA2C38"/>
<path d="M357.611 127.925C357.611 128.01 349.961 128.076 340.526 128.076C331.091 128.076 323.44 128.01 323.44 127.925C323.44 127.84 331.091 127.774 340.526 127.774C349.961 127.774 357.611 127.845 357.611 127.925Z" fill="#DA2C38"/>
<path d="M326.95 107.288C325.875 107.489 324.772 107.489 323.696 107.288C324.772 107.087 325.875 107.087 326.95 107.288Z" fill="#DA2C38"/>
<path d="M338.174 107.353C338.174 107.438 336.59 107.503 334.665 107.503C332.74 107.503 331.156 107.438 331.156 107.353C333.508 107.152 335.873 107.152 338.225 107.353H338.174Z" fill="#DA2C38"/>
<path d="M345.354 107.353C345.354 107.438 344 107.503 342.346 107.503C340.691 107.503 339.312 107.438 339.312 107.353C341.328 107.152 343.358 107.152 345.374 107.353H345.354Z" fill="#DA2C38"/>
<path d="M326.504 111.445C325.579 111.645 324.621 111.645 323.696 111.445C324.621 111.244 325.579 111.244 326.504 111.445Z" fill="#DA2C38"/>
<path d="M326.614 115.716C325.652 115.917 324.659 115.917 323.696 115.716C324.658 115.509 325.653 115.509 326.614 115.716Z" fill="#DA2C38"/>
<path d="M326.614 120.546C325.652 120.747 324.659 120.747 323.696 120.546C324.659 120.345 325.652 120.345 326.614 120.546Z" fill="#DA2C38"/>
<path d="M353.209 120.32C353.209 120.405 348.336 120.47 342.325 120.47C336.314 120.47 331.441 120.405 331.441 120.32C331.441 120.234 336.314 120.169 342.325 120.169C348.336 120.169 353.209 120.239 353.209 120.32Z" fill="#DA2C38"/>
<path d="M351.3 115.716C351.3 115.796 346.652 115.867 340.922 115.867C335.192 115.867 330.544 115.796 330.544 115.716C330.544 115.636 335.187 115.561 340.922 115.561C346.657 115.561 351.3 115.631 351.3 115.716Z" fill="#DA2C38"/>
<path d="M328.74 134.306C327.777 134.507 326.784 134.507 325.822 134.306C326.784 134.105 327.777 134.105 328.74 134.306Z" fill="#DA2C38"/>
<path d="M328.74 139.14C327.777 139.341 326.784 139.341 325.822 139.14C326.783 138.932 327.778 138.932 328.74 139.14Z" fill="#DA2C38"/>
<path d="M355.335 138.914C355.335 138.995 350.462 139.065 344.451 139.065C338.44 139.065 333.567 138.995 333.567 138.914C333.567 138.834 338.435 138.764 344.451 138.764C350.467 138.764 355.335 138.829 355.335 138.914Z" fill="#DA2C38"/>
<path d="M353.44 134.306C353.44 134.391 348.793 134.456 343.063 134.456C337.333 134.456 332.68 134.391 332.68 134.306C332.68 134.221 337.328 134.155 343.063 134.155C348.798 134.155 353.44 134.221 353.44 134.306Z" fill="#DA2C38"/>
<path d="M359.02 111.219C359.02 111.304 352.693 111.37 344.892 111.37C337.091 111.37 330.765 111.304 330.765 111.219C330.765 111.134 337.091 111.068 344.892 111.068C352.693 111.068 359.02 111.139 359.02 111.219Z" fill="#DA2C38"/>
<path d="M363.161 79.507C363.161 79.5874 352.949 79.6576 340.355 79.6576C327.762 79.6576 317.55 79.5874 317.55 79.507C317.55 79.4267 327.757 79.3564 340.355 79.3564C352.954 79.3564 363.161 79.4217 363.161 79.507Z" fill="#263238"/>
<path d="M334.104 93.7639C330.895 93.9647 327.677 93.9647 324.468 93.7639C324.468 93.6785 326.624 93.6133 329.286 93.6133C331.948 93.6133 334.104 93.6785 334.104 93.7639Z" fill="#DA2C38"/>
<path d="M328.649 85.0246C328.649 85.11 327.646 85.1752 326.378 85.1752C325.11 85.1752 324.107 85.11 324.107 85.0246C325.614 84.8238 327.142 84.8238 328.649 85.0246Z" fill="#DA2C38"/>
<path d="M288.402 188.129L298.499 178.134L280.491 147.256C278.617 145.109 276.245 143.456 273.583 142.442L267.241 140.027L251.474 137.131L240.285 141.564C238.908 142.106 237.749 143.09 236.99 144.361C236.231 145.633 235.914 147.12 236.088 148.592L239.016 173.27L240.741 205.398L281.414 198.33L277.323 186.447L277.458 167.913L288.402 188.129Z" fill="#DA2C38"/>
<path d="M277.694 185.65C277.789 185.65 277.814 179.229 277.749 171.313C277.684 163.396 277.558 156.976 277.463 156.976C277.368 156.976 277.343 163.396 277.408 171.313C277.473 179.229 277.598 185.65 277.694 185.65Z" fill="#263238"/>
<path d="M276.205 190.358L251.639 180.453C250.667 180.061 249.824 179.405 249.204 178.559C248.584 177.713 248.212 176.711 248.13 175.664L246.335 152.07C246.335 152.07 246.546 142.03 240.289 141.528L236.725 142.929C232.118 145.399 230.98 152.105 231.616 157.286C232.504 164.645 232.875 175.062 233.872 181.452C234.689 186.678 237.823 190.81 242.786 192.622L273.056 199.183L276.205 190.358Z" fill="#DA2C38"/>
<path d="M246.681 155.67C246.719 155.847 246.744 156.027 246.757 156.207C246.797 156.594 246.852 157.111 246.917 157.763C247.042 159.144 247.218 161.092 247.418 163.486C247.619 165.881 247.87 168.787 248.145 171.975C248.21 172.773 248.281 173.591 248.351 174.43C248.4 175.272 248.505 176.111 248.667 176.94C248.837 177.784 249.262 178.555 249.885 179.148C250.56 179.739 251.327 180.216 252.156 180.559C258.929 183.496 265.191 185.92 269.703 187.622L275.087 189.63L276.551 190.167C276.724 190.222 276.892 190.292 277.052 190.378C276.882 190.341 276.714 190.293 276.551 190.233L275.047 189.731C273.758 189.304 271.903 188.661 269.622 187.843C265.065 186.192 258.809 183.827 252.011 180.86C251.15 180.5 250.354 180.001 249.654 179.384C248.984 178.747 248.526 177.918 248.346 177.01C248.183 176.161 248.079 175.303 248.035 174.44C247.965 173.603 247.9 172.785 247.839 171.985C247.589 168.792 247.368 165.916 247.178 163.486C246.987 161.056 246.867 159.144 246.762 157.758C246.721 157.106 246.691 156.584 246.666 156.197C246.66 156.021 246.665 155.845 246.681 155.67Z" fill="#263238"/>
<path d="M232.619 168.496C232.653 168.598 232.67 168.705 232.669 168.812C232.669 169.058 232.719 169.36 232.749 169.721C232.824 170.564 232.925 171.694 233.04 173.069C233.155 174.445 233.346 176.162 233.591 178.019C233.834 180.034 234.206 182.031 234.704 183.998C234.933 185.01 235.339 185.973 235.902 186.844C236.445 187.651 237.06 188.407 237.737 189.103C238.886 190.29 240.214 191.288 241.673 192.06C243.03 192.751 244.486 193.229 245.989 193.476C245.883 193.488 245.775 193.488 245.668 193.476C245.362 193.459 245.057 193.42 244.756 193.36C243.639 193.149 242.557 192.78 241.542 192.266C240.045 191.509 238.68 190.514 237.502 189.319C236.803 188.615 236.172 187.847 235.617 187.025C235.029 186.126 234.605 185.13 234.363 184.083C233.863 182.102 233.498 180.09 233.27 178.059C233.045 176.192 232.894 174.505 232.769 173.089C232.644 171.674 232.614 170.524 232.584 169.731C232.584 169.365 232.584 169.063 232.584 168.812C232.582 168.706 232.594 168.6 232.619 168.496Z" fill="#263238"/>
<path d="M243.112 185.007C243.173 184.543 243.325 184.096 243.558 183.691C244.062 182.684 244.763 181.787 245.619 181.055C246.475 180.323 247.468 179.77 248.541 179.429C248.976 179.263 249.439 179.183 249.905 179.193C249.905 179.249 249.404 179.349 248.621 179.65C247.607 180.044 246.665 180.604 245.834 181.307C245.007 182.02 244.307 182.869 243.764 183.817C243.342 184.53 243.147 185.022 243.112 185.007Z" fill="#263238"/>
<g opacity="0.3">
<path d="M269.141 187.547C266.514 186.041 263.942 184.916 261.195 183.666C258.448 182.416 255.755 180.81 253.961 178.385C250.567 173.807 250.953 167.201 247.483 162.683L248.16 171.794C248.371 174.58 247.945 177.316 249.734 179.224C251.238 180.815 254.186 182.04 256.252 182.738C260.438 184.118 264.945 186.171 269.126 187.557" fill="black"/>
</g>
<path opacity="0.3" d="M277.463 158.712L279.589 171.844L277.579 168.124L277.463 158.712Z" fill="black"/>
<path d="M245.939 150.599C245.753 150.64 245.563 150.655 245.373 150.645L243.819 150.685C242.51 150.72 240.705 150.785 238.715 150.926C236.725 151.066 234.93 151.262 233.627 151.428L232.088 151.608C231.901 151.641 231.711 151.654 231.521 151.649C231.697 151.576 231.883 151.528 232.072 151.508C232.433 151.433 232.955 151.342 233.576 151.242C234.875 151.041 236.675 150.82 238.67 150.675C240.665 150.529 242.48 150.494 243.794 150.509C244.45 150.509 244.982 150.534 245.348 150.554C245.546 150.548 245.744 150.563 245.939 150.599Z" fill="#455A64"/>
<path d="M246.656 163.18C246.656 163.25 243.437 163.576 239.462 163.902C235.486 164.229 232.248 164.445 232.243 164.369C232.238 164.294 235.456 163.973 239.437 163.641C243.417 163.31 246.656 163.104 246.656 163.18Z" fill="#455A64"/>
<path d="M247.825 176.388C247.668 176.503 247.5 176.6 247.323 176.679C246.987 176.855 246.496 177.085 245.869 177.347C242.616 178.709 239.149 179.487 235.627 179.646C234.95 179.676 234.404 179.676 234.028 179.646C233.833 179.657 233.637 179.641 233.446 179.6C233.638 179.562 233.833 179.544 234.028 179.545C234.404 179.545 234.945 179.5 235.617 179.445C237.353 179.323 239.079 179.078 240.781 178.712C242.486 178.331 244.161 177.827 245.794 177.206C246.421 176.965 246.927 176.764 247.298 176.619C247.464 176.522 247.641 176.444 247.825 176.388Z" fill="#455A64"/>
<path d="M256.563 183.164C255.674 183.715 254.856 184.373 254.126 185.122C253.461 185.929 252.891 186.81 252.427 187.747C252.46 187.433 252.552 187.129 252.697 186.849C253.319 185.447 254.373 184.282 255.705 183.526C255.964 183.348 256.256 183.225 256.563 183.164Z" fill="#455A64"/>
<path d="M265.451 191.859C265.841 190.037 266.754 188.369 268.078 187.06C268.138 187.11 267.366 188.064 266.644 189.394C265.922 190.724 265.526 191.884 265.451 191.859Z" fill="#455A64"/>
<path d="M251.444 143.221C250.306 143.558 249.145 143.813 247.97 143.984C246.814 144.236 245.641 144.404 244.46 144.486C245.598 144.145 246.759 143.89 247.935 143.723C249.091 143.47 250.264 143.303 251.444 143.221Z" fill="#455A64"/>
<path d="M274.971 144.295C273.357 144.234 271.747 144.087 270.149 143.853C268.541 143.707 266.943 143.472 265.361 143.15C266.975 143.214 268.585 143.362 270.184 143.592C271.791 143.741 273.389 143.976 274.971 144.295Z" fill="#455A64"/>
<path d="M276.977 155.248C276.875 155.263 276.772 155.263 276.671 155.248H275.789H272.545C269.808 155.248 266.028 155.248 261.852 155.374C257.675 155.499 253.9 155.655 251.163 155.8L247.924 155.971L247.047 156.006C246.944 156.022 246.839 156.022 246.736 156.006C246.837 155.982 246.939 155.967 247.042 155.961L247.919 155.871C248.681 155.8 249.784 155.715 251.153 155.62C253.885 155.429 257.67 155.228 261.847 155.118C266.023 155.007 269.808 155.017 272.55 155.067C273.919 155.092 275.027 155.123 275.789 155.158L276.671 155.198C276.774 155.205 276.877 155.222 276.977 155.248Z" fill="#455A64"/>
<path d="M277.268 169.129C277.268 169.199 270.826 169.681 262.87 170.208C254.913 170.735 248.456 171.097 248.451 171.026C248.446 170.956 254.893 170.469 262.849 169.947C270.806 169.425 277.263 169.054 277.268 169.129Z" fill="#455A64"/>
<path d="M276.581 181.353C276.409 181.448 276.227 181.525 276.04 181.583C275.684 181.719 275.167 181.895 274.536 182.085C273.247 182.507 271.447 183.034 269.437 183.521C267.427 184.008 265.587 184.354 264.248 184.56C263.576 184.671 263.035 184.746 262.659 184.786C262.464 184.819 262.265 184.832 262.067 184.826C262.254 184.758 262.447 184.711 262.644 184.686L264.213 184.38C265.542 184.124 267.371 183.747 269.377 183.265C271.382 182.783 273.182 182.286 274.48 181.91L276.019 181.463C276.201 181.403 276.39 181.366 276.581 181.353Z" fill="#455A64"/>
<path d="M286.893 159.194C285.358 159.727 283.795 160.177 282.211 160.54C280.649 160.989 279.064 161.354 277.463 161.634C278.999 161.103 280.562 160.654 282.146 160.289C283.707 159.837 285.292 159.472 286.893 159.194Z" fill="#455A64"/>
<path d="M281.975 149.812C281.308 150.064 280.613 150.233 279.904 150.314C279.209 150.483 278.495 150.568 277.779 150.565C278.448 150.316 279.145 150.147 279.854 150.063C280.548 149.893 281.261 149.809 281.975 149.812Z" fill="#455A64"/>
<path d="M246.756 152.723C246.706 152.723 246.626 151.89 246.17 150.63C245.578 148.983 244.588 147.508 243.288 146.338C241.988 145.168 240.418 144.338 238.72 143.923C237.416 143.602 236.569 143.617 236.574 143.567C236.769 143.532 236.968 143.523 237.166 143.542C237.702 143.564 238.236 143.632 238.76 143.748C240.51 144.119 242.132 144.945 243.462 146.142C244.793 147.34 245.785 148.867 246.34 150.57C246.512 151.079 246.637 151.603 246.711 152.136C246.753 152.329 246.768 152.526 246.756 152.723Z" fill="#263238"/>
<path d="M276.034 146.031C276.412 147.543 276.701 149.075 276.902 150.62C277.192 152.151 277.395 153.698 277.508 155.253C277.137 153.739 276.849 152.205 276.646 150.66C276.355 149.13 276.151 147.584 276.034 146.031Z" fill="#263238"/>
<path d="M303.427 220.021C303.427 220.021 322.317 225.252 323.075 225.543C324.213 225.945 324.022 230.117 322.252 230.061C321.415 230.031 307.744 230.563 306.014 230.463C304.285 230.363 299.076 228.299 299.076 228.299L303.427 220.021Z" fill="#347BB1"/>
<path d="M311.298 227.235C311.393 227.235 311.519 226.231 312.13 225.227C312.742 224.223 313.524 223.561 313.464 223.485C313.404 223.41 312.491 223.947 311.855 225.067C311.218 226.186 311.218 227.245 311.298 227.235Z" fill="#263238"/>
<path d="M309.323 226.342C309.413 226.342 309.604 225.463 310.11 224.474C310.616 223.485 311.208 222.798 311.113 222.732C310.528 223.126 310.071 223.683 309.799 224.334C309.323 225.398 309.248 226.337 309.323 226.342Z" fill="#263238"/>
<path d="M307.478 225.849C307.573 225.849 307.478 224.895 307.919 223.841C308.36 222.787 309.017 222.144 308.952 222.074C308.887 222.004 308.065 222.576 307.628 223.731C307.192 224.885 307.403 225.899 307.478 225.849Z" fill="#263238"/>
<path d="M307.819 223.389C307.987 222.939 308.057 222.458 308.024 221.979C308.018 221.459 307.952 220.942 307.829 220.438C307.758 220.138 307.664 219.844 307.548 219.559C307.491 219.381 307.387 219.222 307.247 219.097C307.153 219.025 307.037 218.988 306.918 218.994C306.8 218.999 306.687 219.047 306.601 219.127C306.453 219.269 306.362 219.46 306.345 219.664C306.335 219.832 306.335 219.999 306.345 220.166C306.346 220.48 306.385 220.791 306.46 221.095C306.587 221.601 306.783 222.088 307.042 222.541C307.252 222.969 307.539 223.356 307.889 223.68C307.934 223.65 307.618 223.209 307.237 222.436C307.016 221.988 306.848 221.516 306.736 221.03C306.677 220.746 306.647 220.457 306.646 220.166C306.646 219.875 306.646 219.514 306.821 219.373C306.855 219.341 306.9 219.323 306.946 219.323C306.993 219.323 307.038 219.341 307.072 219.373C307.168 219.464 307.239 219.578 307.277 219.705C307.391 219.976 307.487 220.254 307.563 220.538C307.696 221.02 307.78 221.515 307.814 222.014C307.849 222.887 307.764 223.389 307.819 223.389Z" fill="#263238"/>
<path d="M307.819 223.214C307.433 223.051 307.014 222.982 306.596 223.013C306.144 223.013 305.695 223.069 305.257 223.179C304.988 223.237 304.728 223.334 304.485 223.465C304.33 223.543 304.205 223.67 304.128 223.826C304.052 223.981 304.027 224.158 304.059 224.328C304.101 224.492 304.187 224.641 304.307 224.759C304.427 224.877 304.577 224.961 304.741 225.001C305.019 225.071 305.31 225.071 305.588 225.001C306.035 224.886 306.453 224.679 306.816 224.394C307.158 224.159 307.455 223.865 307.694 223.525C307.343 223.728 307.008 223.956 306.691 224.208C306.341 224.448 305.947 224.618 305.533 224.71C305.302 224.768 305.061 224.768 304.831 224.71C304.722 224.682 304.622 224.626 304.541 224.548C304.46 224.469 304.401 224.371 304.37 224.263C304.353 224.156 304.371 224.046 304.422 223.95C304.472 223.854 304.553 223.777 304.651 223.731C304.868 223.614 305.098 223.525 305.337 223.465C305.753 223.349 306.18 223.275 306.611 223.244C307.318 223.189 307.784 223.264 307.819 223.214Z" fill="#263238"/>
<path d="M314.201 227.441C314.291 227.441 314.201 226.623 314.572 225.734C314.943 224.846 315.575 224.324 315.494 224.253C315.414 224.183 314.677 224.625 314.281 225.614C313.885 226.603 314.121 227.471 314.201 227.441Z" fill="#263238"/>
<path d="M301.021 228.314C301.251 228.453 301.494 228.567 301.748 228.655C302.434 228.922 303.137 229.14 303.854 229.308C306.22 229.827 308.641 230.056 311.063 229.991C313.895 229.96 316.447 229.835 318.297 229.76L320.483 229.644C320.752 229.641 321.021 229.613 321.285 229.559C321.018 229.516 320.747 229.502 320.478 229.519H318.287L311.063 229.659C308.661 229.719 306.259 229.524 303.899 229.077C302.094 228.72 301.041 228.254 301.021 228.314Z" fill="#263238"/>
<path d="M300.459 228.746C300.459 228.786 301.001 228.485 301.873 228.103C302.985 227.572 304.224 227.365 305.448 227.506C306.651 227.767 307.737 228.414 308.541 229.348C308.878 229.744 309.241 230.116 309.629 230.462C309.378 229.999 309.066 229.572 308.701 229.192C308.331 228.756 307.912 228.364 307.453 228.023C306.876 227.595 306.206 227.311 305.498 227.194C304.222 227.045 302.932 227.294 301.803 227.907C301.313 228.112 300.859 228.396 300.459 228.746Z" fill="#263238"/>
<path d="M281.073 215.629C281.073 215.629 263.2 227.346 262.554 227.833C261.591 228.56 262.694 232.029 264.363 231.427C265.151 231.146 280.15 226.964 281.765 226.337C283.379 225.709 287.721 222.165 287.721 222.165L281.073 215.629Z" fill="#347BB1"/>
<path d="M275.764 224.895C275.839 224.895 275.523 223.846 274.565 222.983C273.608 222.119 272.56 221.883 272.56 221.979C272.56 222.074 273.472 222.41 274.36 223.229C275.247 224.047 275.678 224.941 275.764 224.895Z" fill="#263238"/>
<path d="M277.368 223.445C277.443 223.42 277.097 222.516 276.28 221.688C275.463 220.859 274.575 220.483 274.545 220.558C274.515 220.634 275.282 221.11 276.049 221.909C276.816 222.707 277.283 223.49 277.368 223.445Z" fill="#263238"/>
<path d="M278.977 222.411C279.057 222.411 278.977 221.407 278.195 220.443C277.413 219.479 276.45 219.193 276.435 219.274C276.42 219.354 277.247 219.776 277.939 220.644C278.631 221.512 278.887 222.436 278.977 222.411Z" fill="#263238"/>
<path d="M277.92 220.187C277.965 220.187 277.719 219.685 277.513 218.847C277.396 218.361 277.326 217.865 277.303 217.366C277.286 217.072 277.286 216.776 277.303 216.482C277.303 216.351 277.336 216.221 277.398 216.106C277.425 216.067 277.465 216.04 277.51 216.03C277.556 216.02 277.603 216.027 277.644 216.051C277.849 216.131 277.955 216.477 278.05 216.753C278.138 217.029 278.197 217.313 278.225 217.602C278.272 218.104 278.256 218.609 278.18 219.108C278.055 219.956 277.889 220.473 277.94 220.488C278.176 220.074 278.332 219.62 278.401 219.148C278.51 218.637 278.549 218.113 278.516 217.592C278.495 217.28 278.437 216.972 278.346 216.673C278.297 216.514 278.239 216.358 278.17 216.206C278.094 216.018 277.951 215.865 277.769 215.774C277.662 215.723 277.54 215.712 277.426 215.742C277.311 215.773 277.21 215.843 277.142 215.94C277.047 216.102 276.996 216.285 276.992 216.472C276.972 216.78 276.972 217.088 276.992 217.396C277.027 217.907 277.123 218.413 277.278 218.902C277.394 219.372 277.614 219.811 277.92 220.187Z" fill="#263238"/>
<path d="M277.879 219.997C277.904 220.042 278.321 219.831 279.042 219.655C279.462 219.554 279.89 219.495 280.321 219.48C280.567 219.464 280.815 219.48 281.058 219.525C281.164 219.54 281.263 219.588 281.339 219.663C281.416 219.738 281.467 219.836 281.484 219.941C281.488 220.055 281.462 220.167 281.409 220.268C281.357 220.368 281.279 220.453 281.183 220.514C280.981 220.639 280.753 220.715 280.516 220.735C280.094 220.773 279.669 220.731 279.263 220.609C278.882 220.467 278.492 220.352 278.095 220.263C278.424 220.517 278.798 220.706 279.198 220.82C279.628 220.984 280.087 221.054 280.546 221.026C280.834 221.007 281.112 220.919 281.359 220.77C281.501 220.68 281.618 220.553 281.695 220.403C281.773 220.253 281.809 220.085 281.8 219.916C281.779 219.744 281.703 219.583 281.582 219.458C281.462 219.333 281.304 219.251 281.133 219.224C280.862 219.175 280.585 219.164 280.311 219.188C279.859 219.217 279.413 219.302 278.982 219.439C278.577 219.539 278.2 219.729 277.879 219.997Z" fill="#263238"/>
<path d="M266.639 230.774C266.639 230.804 266.94 230.593 267.081 230.081C267.224 229.415 267.103 228.718 266.745 228.139C266.568 227.825 266.367 227.526 266.143 227.245C265.972 227 265.768 226.781 265.536 226.593C265.373 226.459 265.175 226.375 264.965 226.352C264.82 226.352 264.739 226.382 264.744 226.402C264.986 226.473 265.208 226.596 265.396 226.763C265.584 226.964 265.752 227.183 265.897 227.416C266.099 227.697 266.287 227.989 266.459 228.289C266.777 228.813 266.915 229.427 266.85 230.036C266.793 230.286 266.723 230.532 266.639 230.774Z" fill="#263238"/>
<path d="M273.056 225.975C273.142 225.975 273.116 225.071 272.43 224.258C271.743 223.445 270.861 223.254 270.855 223.334C270.85 223.415 271.577 223.716 272.184 224.464C272.791 225.212 272.966 225.99 273.056 225.975Z" fill="#263238"/>
<path d="M285.881 222.798C285.604 222.956 285.34 223.138 285.094 223.34C284.386 223.831 283.651 224.282 282.893 224.69C281.758 225.287 280.586 225.809 279.383 226.252C278.03 226.754 276.511 227.231 274.906 227.697C271.688 228.626 268.775 229.474 266.675 230.107L264.168 230.87C263.859 230.949 263.559 231.057 263.271 231.191C263.586 231.148 263.898 231.079 264.203 230.985L266.71 230.323C268.825 229.746 271.723 228.932 274.962 228.004C276.571 227.537 278.095 227.05 279.474 226.523C280.682 226.064 281.855 225.517 282.983 224.886C283.742 224.458 284.468 223.973 285.154 223.435C285.418 223.249 285.661 223.035 285.881 222.798Z" fill="#263238"/>
<path d="M286.542 223.039C286.066 222.825 285.558 222.689 285.038 222.637C283.77 222.397 282.458 222.557 281.283 223.094C280.644 223.421 280.093 223.896 279.674 224.479C279.338 224.948 279.057 225.453 278.837 225.985C278.602 226.462 278.434 226.969 278.335 227.491C278.6 227.045 278.833 226.58 279.032 226.101C279.458 225.267 280.13 224.048 281.419 223.405C282.545 222.907 283.788 222.733 285.008 222.903C285.951 222.958 286.532 223.089 286.542 223.039Z" fill="#263238"/>
<path d="M318.231 186.322C318.231 186.322 323.591 188.25 323.616 194.274C323.656 205.82 300.344 218.52 300.344 218.52L269.316 197.938L267.371 197.15C267.371 197.15 309.252 181.377 318.231 186.322Z" fill="#263238"/>
<path d="M285.033 208.33C285.319 208.174 285.59 207.99 285.84 207.782C286.342 207.416 287.074 206.864 287.966 206.176C289.741 204.806 292.157 202.853 294.759 200.619C297.361 198.385 299.647 196.287 301.276 194.735C302.089 193.962 302.74 193.325 303.181 192.878C303.424 192.66 303.645 192.42 303.843 192.16C303.578 192.349 303.328 192.559 303.096 192.788L301.126 194.57C299.462 196.076 297.15 198.149 294.554 200.378C291.957 202.607 289.57 204.585 287.831 206.005L285.76 207.672C285.5 207.871 285.257 208.091 285.033 208.33Z" fill="#455A64"/>
<path d="M309.473 190.629C308.463 190.471 307.43 190.566 306.465 190.906C304.846 191.377 303.758 192.241 303.808 192.301C303.858 192.361 304.991 191.664 306.556 191.207C308.12 190.75 309.473 190.73 309.473 190.629Z" fill="#455A64"/>
<path d="M306.816 188.812C306.077 189.073 305.436 189.557 304.982 190.197C304.154 191.201 303.934 192.28 304.014 192.29C304.094 192.3 304.445 191.357 305.227 190.398C306.009 189.439 306.846 188.897 306.816 188.812Z" fill="#455A64"/>
<path d="M319.936 225.333C319.936 225.297 319.565 225.222 319.134 225.574C318.632 226.049 318.315 226.688 318.242 227.376C318.134 228.058 318.232 228.757 318.522 229.384C318.743 229.856 318.984 230.082 319.024 230.056C319.064 230.031 318.898 229.765 318.743 229.303C318.542 228.704 318.482 228.067 318.568 227.441C318.638 226.82 318.893 226.234 319.3 225.759C319.615 225.398 319.941 225.398 319.936 225.333Z" fill="#263238"/>
<path d="M316.011 169.942L307.187 193.771C306.941 194.436 306.496 195.007 305.912 195.408C305.329 195.809 304.636 196.019 303.929 196.01L255.339 195.368V191.673L273.387 192.331L281.038 168.566C281.165 168.175 281.412 167.834 281.744 167.593C282.077 167.351 282.477 167.221 282.888 167.221L314.231 167.311C314.542 167.317 314.847 167.397 315.121 167.545C315.394 167.694 315.628 167.906 315.803 168.164C315.977 168.422 316.087 168.718 316.123 169.027C316.159 169.337 316.121 169.65 316.011 169.942Z" fill="#E0E0E0"/>
<path d="M316.011 169.942C316.011 169.942 316.011 169.942 316.011 169.866C316.037 169.795 316.057 169.721 316.071 169.645C316.143 169.35 316.143 169.042 316.071 168.747C315.969 168.356 315.747 168.007 315.435 167.751C315.124 167.495 314.739 167.344 314.336 167.321C314.005 167.321 313.639 167.321 313.258 167.321H300.183H291.024H285.875H283.173C282.723 167.276 282.27 167.377 281.88 167.607C281.492 167.851 281.205 168.227 281.073 168.666L273.442 192.391V192.446H273.382L255.334 191.794L255.414 191.713V195.408L255.339 195.333L285.89 195.739L299.171 195.925L302.234 195.965H303.738C304.217 195.994 304.696 195.924 305.147 195.759C305.584 195.6 305.984 195.35 306.32 195.027C306.656 194.704 306.92 194.314 307.097 193.882C307.418 193.018 307.733 192.17 308.044 191.347C310.506 184.735 312.496 179.394 313.87 175.699C314.562 173.862 315.093 172.431 315.459 171.458C315.825 170.484 316.021 169.987 316.021 169.987C316.021 169.987 315.845 170.489 315.489 171.493L313.915 175.699C312.551 179.399 310.581 184.735 308.135 191.362L307.192 193.907C307.01 194.352 306.738 194.755 306.393 195.089C306.048 195.424 305.637 195.683 305.187 195.85C304.72 196.021 304.224 196.096 303.728 196.071H302.224L299.166 196.03L285.885 195.865L255.329 195.468H255.254V191.613H255.334L273.382 192.276L273.307 192.331L280.957 168.611C281.098 168.142 281.404 167.74 281.82 167.482C282.231 167.24 282.708 167.134 283.183 167.181H285.885H291.034L300.193 167.221L313.268 167.281C313.649 167.281 314.01 167.281 314.351 167.281C314.762 167.308 315.154 167.465 315.47 167.729C315.787 167.994 316.011 168.352 316.111 168.752C316.185 169.048 316.185 169.359 316.111 169.655C316.086 169.753 316.052 169.849 316.011 169.942Z" fill="#263238"/>
<path d="M294.468 178.943C294.844 178.752 295.267 178.675 295.686 178.719C296.105 178.764 296.502 178.929 296.829 179.194C297.106 179.458 297.298 179.799 297.38 180.172C297.462 180.546 297.431 180.936 297.291 181.292C297.138 181.643 296.892 181.945 296.578 182.164C296.265 182.382 295.897 182.51 295.516 182.532C295.111 182.558 294.709 182.452 294.37 182.228C294.032 182.004 293.776 181.675 293.641 181.292C293.415 180.514 293.641 179.354 294.468 178.943Z" fill="white"/>
<path d="M305.573 219.8C305.573 219.8 261.787 191.719 259.857 190.614C258.212 189.675 253.81 186.965 249.474 188.164C245.137 189.364 241.247 193.27 239.302 198.947C238.194 202.2 237.667 207.747 237.422 211.909C237.091 216.892 238.709 221.809 241.934 225.619C243.361 227.395 245.253 228.74 247.398 229.504C247.855 229.645 248.331 229.765 248.817 229.871C257.104 231.673 265.622 227.948 270.279 220.835L271.282 219.278C271.282 219.278 299.958 229.82 300.404 229.675L305.573 219.8Z" fill="#263238"/>
<path d="M262.117 192.17C262.117 192.17 262.077 192.17 262.007 192.105L261.701 191.894C261.43 191.709 261.034 191.437 260.518 191.101C259.06 190.142 257.499 189.349 255.866 188.737C254.738 188.322 253.556 188.073 252.356 187.999C250.989 187.942 249.624 188.165 248.346 188.656C246.927 189.205 245.617 190 244.475 191.006C243.864 191.53 243.29 192.095 242.756 192.698C242.216 193.318 241.739 193.991 241.332 194.706C240.526 196.131 239.894 197.648 239.447 199.224C239.031 200.755 238.7 202.266 238.389 203.691C237.811 206.217 237.475 208.792 237.387 211.382C237.355 213.129 237.488 214.875 237.783 216.598C237.878 217.21 237.988 217.677 238.053 217.998L238.123 218.365C238.13 218.406 238.13 218.449 238.123 218.49C238.106 218.452 238.093 218.411 238.083 218.37C238.083 218.274 238.023 218.154 237.988 218.008C237.903 217.692 237.778 217.23 237.667 216.618C237.324 214.894 237.156 213.14 237.166 211.382C237.233 208.781 237.557 206.193 238.133 203.656C238.444 202.22 238.765 200.719 239.176 199.168C239.631 197.572 240.273 196.036 241.086 194.59C241.502 193.856 241.989 193.165 242.54 192.527C243.083 191.915 243.668 191.341 244.29 190.81C245.456 189.79 246.794 188.984 248.24 188.431C249.556 187.931 250.961 187.709 252.366 187.778C253.581 187.868 254.776 188.131 255.916 188.561C257.557 189.19 259.118 190.015 260.563 191.016C261.064 191.367 261.461 191.653 261.721 191.854L262.012 192.085C262.051 192.108 262.087 192.137 262.117 192.17Z" fill="#455A64"/>
<path d="M251.344 211.874C251.422 211.915 251.502 211.952 251.584 211.984L252.301 212.266L255.079 213.35L265.406 217.245C269.793 218.882 275.052 220.835 280.947 222.983C286.843 225.132 293.376 227.501 300.354 229.851L300.484 229.891L300.545 229.775C301.638 227.677 302.796 225.468 303.969 223.224L305.713 219.876L305.784 219.745L305.658 219.67L272.224 198.415L262.198 192.07L259.47 190.363L258.758 189.932C258.679 189.88 258.597 189.834 258.513 189.791C258.513 189.791 258.588 189.851 258.743 189.957L259.44 190.419L262.137 192.17L272.129 198.596L305.508 219.936L305.453 219.73C304.901 220.79 304.31 221.924 303.708 223.069L300.289 229.62L300.474 229.539C293.501 227.18 286.963 224.836 281.063 222.707L265.521 217.04L255.159 213.234L252.361 212.23L251.635 211.974L251.344 211.874Z" fill="#455A64"/>
<path d="M253.61 118.708C252.789 117.231 252.136 115.667 251.665 114.044C251.194 112.408 251.286 110.662 251.925 109.084C252.331 108.186 252.973 107.398 253.294 106.464C253.73 105.179 253.55 103.663 254.347 102.563C255.585 100.841 258.242 101.243 260.162 100.345C261.666 99.6417 262.704 98.1307 264.273 97.6237C265.647 97.1819 267.146 97.6237 268.469 98.1759C269.793 98.7281 271.091 99.466 272.52 99.6517C273.547 99.7095 274.576 99.7095 275.603 99.6517C276.644 99.6083 277.662 99.9679 278.446 100.656C279.168 101.384 279.318 102.734 278.536 103.402C280.336 103.095 282.045 104.908 282.005 106.72C281.965 108.532 280.607 110.154 278.947 110.917C277.288 111.68 275.398 111.725 273.578 111.579C268.429 111.178 263.255 109.22 259.751 105.425" fill="#DA2C38"/>
<path d="M254.717 112.257L251.208 137.784C251.066 138.812 251.135 139.859 251.409 140.86C251.684 141.862 252.159 142.797 252.806 143.608C253.452 144.42 254.257 145.092 255.171 145.583C256.085 146.073 257.088 146.373 258.122 146.463C260.08 146.633 262.029 146.043 263.565 144.814C265.101 143.586 266.107 141.812 266.374 139.862C266.634 137.939 266.875 136.348 266.875 136.142C266.875 136.142 273.447 136.423 274.801 130.058C275.453 126.981 276.305 120.52 276.967 114.692C277.319 111.672 276.524 108.629 274.742 106.168C272.959 103.707 270.317 102.006 267.341 101.404L266.724 101.283C260.017 100.334 255.469 105.515 254.717 112.257Z" fill="#FFBE9D"/>
<path d="M266.935 136.041C263.982 135.51 261.253 134.112 259.094 132.025C259.094 132.025 260.142 137.015 266.614 137.713L266.935 136.041Z" fill="#EB996E"/>
<path d="M274.139 120.118C274.094 120.357 273.958 120.568 273.759 120.706C273.56 120.845 273.315 120.901 273.076 120.861C272.959 120.847 272.846 120.81 272.744 120.751C272.642 120.693 272.552 120.615 272.48 120.521C272.408 120.428 272.356 120.321 272.326 120.207C272.295 120.093 272.288 119.974 272.304 119.857C272.348 119.619 272.484 119.407 272.681 119.268C272.879 119.128 273.123 119.071 273.362 119.109C273.48 119.123 273.594 119.16 273.697 119.218C273.801 119.277 273.891 119.355 273.964 119.449C274.036 119.543 274.089 119.651 274.119 119.766C274.149 119.881 274.156 120.001 274.139 120.118Z" fill="#263238"/>
<path d="M275.002 117.548C274.866 117.643 274.28 116.996 273.297 116.805C272.315 116.614 271.502 116.955 271.422 116.805C271.382 116.74 271.537 116.549 271.923 116.383C272.397 116.177 272.922 116.123 273.427 116.228C273.938 116.327 274.404 116.587 274.756 116.97C275.012 117.272 275.072 117.508 275.002 117.548Z" fill="#263238"/>
<path d="M265.005 118.537C264.96 118.775 264.823 118.986 264.625 119.125C264.426 119.264 264.181 119.32 263.942 119.28C263.825 119.266 263.712 119.229 263.609 119.171C263.506 119.113 263.416 119.035 263.344 118.941C263.272 118.848 263.22 118.741 263.19 118.626C263.16 118.512 263.153 118.393 263.17 118.276C263.214 118.038 263.35 117.827 263.547 117.688C263.745 117.549 263.99 117.493 264.228 117.533C264.345 117.547 264.459 117.583 264.562 117.642C264.665 117.7 264.755 117.778 264.827 117.871C264.9 117.965 264.953 118.072 264.983 118.186C265.014 118.3 265.021 118.42 265.005 118.537Z" fill="#263238"/>
<path d="M265.341 115.806C265.201 115.901 264.614 115.254 263.632 115.058C262.649 114.862 261.837 115.213 261.757 115.058C261.717 114.992 261.872 114.802 262.258 114.636C262.731 114.43 263.257 114.376 263.762 114.48C264.271 114.58 264.736 114.839 265.09 115.218C265.346 115.53 265.406 115.761 265.341 115.806Z" fill="#263238"/>
<path d="M267.441 123.793C267.99 123.732 268.545 123.742 269.091 123.823C269.346 123.849 269.592 123.823 269.667 123.683C269.747 123.43 269.747 123.158 269.667 122.905C269.557 122.252 269.437 121.569 269.311 120.852C268.81 117.93 268.529 115.55 268.645 115.53C268.76 115.51 269.251 117.865 269.737 120.786C269.848 121.504 269.958 122.187 270.063 122.845C270.157 123.177 270.134 123.531 269.998 123.849C269.942 123.932 269.868 124.001 269.781 124.05C269.694 124.1 269.597 124.129 269.497 124.135C269.351 124.144 269.204 124.134 269.061 124.105C268.51 124.07 267.966 123.965 267.441 123.793Z" fill="#263238"/>
<path d="M264.423 123.894C264.584 123.894 264.373 124.983 265.135 125.902C265.897 126.82 267.05 126.951 267.025 127.102C267.025 127.172 266.735 127.257 266.253 127.177C265.628 127.059 265.064 126.725 264.659 126.233C264.282 125.758 264.103 125.156 264.158 124.551C264.203 124.115 264.353 123.874 264.423 123.894Z" fill="#263238"/>
<path d="M266.358 112.011C266.208 112.257 265.255 111.936 264.077 111.845C262.899 111.755 261.912 111.881 261.806 111.615C261.761 111.484 261.972 111.268 262.398 111.082C262.962 110.869 263.567 110.786 264.167 110.839C264.768 110.892 265.349 111.08 265.867 111.389C266.253 111.64 266.424 111.896 266.358 112.011Z" fill="#FF725E"/>
<path d="M275.232 114.636C275.012 114.827 274.385 114.461 273.578 114.285C272.771 114.109 272.074 114.134 271.934 113.873C271.888 113.743 272.039 113.542 272.385 113.371C272.838 113.2 273.332 113.167 273.805 113.277C274.277 113.386 274.706 113.634 275.037 113.989C275.257 114.295 275.308 114.546 275.232 114.636Z" fill="#FF725E"/>
<path d="M254.297 117.086C254.196 117.016 250.176 114.912 249.444 119.305C248.712 123.697 253.269 123.527 253.294 123.401C253.319 123.276 254.297 117.086 254.297 117.086Z" fill="#FFBE9D"/>
<path d="M252.231 121.514C252.231 121.514 252.146 121.554 252.01 121.59C251.815 121.639 251.608 121.61 251.434 121.509C250.998 121.258 250.732 120.46 250.842 119.662C250.895 119.284 251.03 118.922 251.238 118.603C251.302 118.471 251.396 118.357 251.513 118.27C251.63 118.182 251.766 118.124 251.91 118.101C252.002 118.092 252.094 118.116 252.17 118.169C252.246 118.221 252.301 118.298 252.326 118.387C252.366 118.522 252.326 118.603 252.326 118.613C252.326 118.623 252.432 118.557 252.427 118.372C252.421 118.258 252.376 118.15 252.301 118.065C252.195 117.954 252.049 117.889 251.895 117.885C251.709 117.89 251.527 117.943 251.368 118.039C251.208 118.135 251.075 118.27 250.983 118.432C250.733 118.781 250.573 119.186 250.517 119.612C250.396 120.5 250.712 121.404 251.314 121.695C251.427 121.748 251.55 121.776 251.675 121.776C251.799 121.776 251.923 121.748 252.036 121.695C252.206 121.62 252.246 121.524 252.231 121.514Z" fill="#EB996E"/>
<path d="M278.24 108.763C277.488 110.385 273.618 111.012 270.781 110.154C268.169 109.366 267.216 107.704 265.557 106.253C264.504 105.335 264.504 105.335 262.784 105.159C261.396 105.013 260.278 106.399 259.23 107.317C259.816 110.831 258.267 114.265 256.753 117.463C256.626 117.837 256.377 118.156 256.046 118.372C255.455 118.663 254.743 118.201 254.387 117.639C253.888 116.693 253.673 115.622 253.77 114.556C253.784 112.127 254.28 109.724 255.229 107.488C256.18 105.236 257.774 103.315 259.811 101.966C262.421 100.368 265.55 99.85 268.535 100.52C271.502 101.208 274.177 102.815 276.18 105.114C277.158 106.131 277.866 107.377 278.24 108.738" fill="#DA2C38"/>
<path d="M269.337 119.376C269.377 119.376 269.337 118.999 269.537 118.372C269.794 117.468 270.34 116.674 271.091 116.113C271.641 115.705 272.284 115.441 272.961 115.344C273.639 115.247 274.329 115.319 274.972 115.555C275.73 115.834 276.388 116.332 276.862 116.986C277.373 117.684 277.648 118.527 277.648 119.393C277.648 120.259 277.373 121.102 276.862 121.8C276.388 122.455 275.73 122.953 274.972 123.231C274.329 123.467 273.638 123.54 272.96 123.442C272.283 123.343 271.641 123.078 271.091 122.669C270.339 122.11 269.793 121.317 269.537 120.415C269.362 119.772 269.377 119.411 269.337 119.411C269.325 119.502 269.325 119.595 269.337 119.687C269.335 119.949 269.365 120.21 269.427 120.465C269.639 121.428 270.182 122.286 270.961 122.89C271.423 123.243 271.951 123.501 272.514 123.647C273.077 123.793 273.664 123.825 274.239 123.741C274.815 123.656 275.368 123.458 275.865 123.156C276.363 122.855 276.796 122.457 277.137 121.986C277.7 121.231 278.004 120.315 278.004 119.373C278.004 118.431 277.7 117.515 277.137 116.76C276.792 116.289 276.357 115.892 275.856 115.593C275.355 115.294 274.799 115.098 274.221 115.017C273.644 114.937 273.056 114.973 272.492 115.124C271.929 115.275 271.401 115.538 270.941 115.897C270.162 116.498 269.619 117.355 269.407 118.316C269.345 118.573 269.315 118.836 269.317 119.1C269.311 119.192 269.317 119.285 269.337 119.376Z" fill="#263238"/>
<path d="M258.934 117.558C258.974 117.558 258.934 117.182 259.135 116.554C259.39 115.65 259.936 114.856 260.689 114.295C261.238 113.887 261.881 113.622 262.558 113.525C263.236 113.428 263.927 113.501 264.569 113.738C265.327 114.014 265.985 114.511 266.459 115.164C266.971 115.863 267.246 116.707 267.246 117.573C267.246 118.44 266.971 119.284 266.459 119.983C265.987 120.638 265.328 121.135 264.569 121.409C263.927 121.646 263.236 121.719 262.558 121.622C261.881 121.524 261.238 121.26 260.689 120.852C259.936 120.291 259.39 119.496 259.135 118.593C258.959 117.955 258.974 117.589 258.934 117.589C258.922 117.679 258.922 117.77 258.934 117.86C258.932 118.123 258.963 118.386 259.024 118.643C259.236 119.606 259.779 120.464 260.558 121.067C261.019 121.426 261.547 121.688 262.111 121.839C262.675 121.989 263.263 122.026 263.841 121.945C264.419 121.865 264.975 121.669 265.476 121.37C265.978 121.071 266.414 120.675 266.76 120.204C267.321 119.448 267.625 118.531 267.625 117.589C267.625 116.646 267.321 115.729 266.76 114.973C266.415 114.502 265.979 114.105 265.478 113.806C264.977 113.506 264.422 113.311 263.844 113.23C263.266 113.15 262.678 113.186 262.115 113.337C261.551 113.488 261.024 113.751 260.563 114.11C259.785 114.714 259.242 115.571 259.029 116.534C258.968 116.791 258.938 117.054 258.939 117.317C258.928 117.397 258.926 117.478 258.934 117.558Z" fill="#263238"/>
<path d="M267.507 117.708C267.552 117.794 268.108 117.533 268.755 117.734C269.402 117.934 269.728 118.451 269.813 118.401C269.898 118.351 269.813 118.216 269.688 117.995C269.488 117.706 269.196 117.493 268.86 117.392C268.524 117.291 268.164 117.307 267.838 117.437C267.592 117.538 267.482 117.668 267.507 117.708Z" fill="#263238"/>
<path d="M253.043 116.434C253.043 116.534 254.442 116.59 256.166 116.569C257.891 116.549 259.285 116.444 259.285 116.344C259.285 116.243 257.886 116.188 256.161 116.213C254.437 116.238 253.043 116.334 253.043 116.434Z" fill="#263238"/>
<path d="M280.311 104.571C280.31 104.713 280.287 104.854 280.24 104.988C280.116 105.359 279.888 105.687 279.584 105.932C279.134 106.302 278.584 106.527 278.005 106.579C277.306 106.636 276.603 106.599 275.914 106.469C274.662 106.284 273.42 106.034 272.194 105.721C271.723 105.595 271.342 105.49 271.086 105.41L270.785 105.314L270.685 105.274C270.685 105.274 270.725 105.274 270.79 105.274L271.096 105.35L272.209 105.626C273.152 105.852 274.465 106.128 275.929 106.348C276.61 106.477 277.304 106.516 277.995 106.464C278.558 106.418 279.095 106.206 279.539 105.857C279.837 105.623 280.066 105.313 280.2 104.958C280.291 104.722 280.296 104.566 280.311 104.571Z" fill="white"/>
<path d="M281.284 105.565C281.222 105.984 281.095 106.391 280.908 106.77C280.473 107.702 279.769 108.482 278.887 109.009C278.005 109.536 276.985 109.786 275.959 109.727C275.539 109.713 275.122 109.633 274.726 109.491C274.838 109.504 274.949 109.526 275.057 109.556C275.357 109.612 275.66 109.646 275.964 109.657C276.972 109.694 277.968 109.437 278.833 108.919C279.698 108.4 280.394 107.642 280.837 106.735C280.977 106.464 281.092 106.18 281.178 105.887C281.206 105.777 281.241 105.67 281.284 105.565Z" fill="white"/>
</svg>
