<svg width="292" height="110" viewBox="0 0 292 110" fill="none" xmlns="http://www.w3.org/2000/svg">
<path d="M39.0537 25.9962C39.0999 19.9952 39.1374 13.994 39.2145 7.99337C39.2189 7.64863 39.546 7.308 40.2214 6C42.6707 8.80239 44.3784 11.2576 46.5822 13.1328C48.6686 14.9082 51.1358 16.8518 53.6898 17.3092C56.7394 17.8554 60.1307 17.2199 63.2469 16.5274C69.3622 15.1686 75.3589 13.2855 81.4617 11.8627C87.6846 10.4118 96.202 16.5556 96.407 22.9785C96.8438 36.6645 96.9095 50.3634 96.9994 64.0578C97.0107 65.7755 96.4499 67.5759 95.8117 69.2045C93.7064 74.577 89.0547 76.7584 83.916 78.151C75.4356 80.4492 66.9315 82.6599 58.2217 84.687C58.0063 70.0106 57.8578 55.5526 58.057 41.0993C58.1985 30.832 50.1927 23.1721 39.0537 25.9962Z" fill="#DA2C38"/>
<path d="M57.3952 85.5927C57.3952 91.6235 57.3952 97.6542 57.3952 103.685C57.0672 103.79 56.7392 103.895 56.4112 104C55.6593 103.383 54.8783 102.797 54.1609 102.143C52.0515 100.217 49.9641 98.2681 47.8741 96.322C43.9098 92.6306 39.4146 92.6819 34.5174 94.1084C28.2118 95.9451 21.8452 97.5969 15.4514 99.1026C8.02952 100.85 0.0181228 94.2945 0.0089044 86.6235C-0.00680743 73.5561 0.00243742 60.4886 0.00545183 47.4212C0.00692372 41.0359 3.09918 36.4631 9.3133 34.6258C18.8106 31.8179 28.4068 29.343 38.217 26.9551C38.4758 41.7596 38.4857 56.3358 38.4771 70.912C38.4747 75.0352 39.7171 78.6015 42.9981 81.2842C47.1934 84.7146 51.5076 87.7756 57.3952 85.5927Z" fill="#347BB1"/>
<path d="M57.4417 85.4471C51.5073 87.7758 47.1932 84.7147 42.9978 81.2843C39.7169 78.6016 38.4744 75.0354 38.4769 70.9122C38.4854 56.336 38.4756 41.7598 38.4297 26.9174C38.5064 26.4726 38.6261 26.2939 38.8999 26.0559C50.193 23.1724 58.1988 30.8323 58.0573 41.0996C57.8581 55.5528 58.0066 70.0109 58.0055 84.7287C57.8326 85.0942 57.6605 85.1978 57.4417 85.4471Z" fill="#FFF7F8"/>
<path d="M57.4417 85.4471C51.5073 87.7758 47.1932 84.7147 42.9978 81.2843C39.7169 78.6016 38.4744 75.0354 38.4769 70.9122C38.4854 56.336 38.4756 41.7598 38.4297 26.9174C38.5064 26.4726 38.6261 26.2939 38.8999 26.0559C50.193 23.1724 58.1988 30.8323 58.0573 41.0996C57.8581 55.5528 58.0066 70.0109 58.0055 84.7287C57.8326 85.0942 57.6605 85.1978 57.4417 85.4471Z" fill="#FFF7F8"/>
<path d="M115.95 63.05C115.95 62.1833 116.267 61.4667 116.9 60.9C117.533 60.3 118.333 60 119.3 60H133.2C135.6 60 137.717 60.4833 139.55 61.45C141.417 62.3833 142.85 63.7333 143.85 65.5C144.883 67.2333 145.4 69.25 145.4 71.55C145.4 73.8833 144.9 75.9333 143.9 77.7C142.9 79.4333 141.483 80.7833 139.65 81.75C137.817 82.6833 135.667 83.15 133.2 83.15H122.65V90.5C122.65 92.1 122.067 93.3333 120.9 94.2C119.767 95.0333 118.117 95.45 115.95 95.45V63.05ZM133.2 77.35C134.967 77.35 136.333 76.8333 137.3 75.8C138.267 74.7667 138.75 73.3333 138.75 71.5C138.75 69.7 138.25 68.3 137.25 67.3C136.283 66.3 134.933 65.8 133.2 65.8H122.65V77.35H133.2ZM155.256 95.45C153.556 95.45 151.989 95.1167 150.556 94.45C149.156 93.7833 148.023 92.8333 147.156 91.6C146.323 90.3333 145.906 88.8333 145.906 87.1C145.906 85.3667 146.356 83.8667 147.256 82.6C148.156 81.3 149.373 80.3167 150.906 79.65C152.473 78.95 154.189 78.6 156.056 78.6C157.589 78.6 158.956 78.85 160.156 79.35C161.389 79.8167 162.523 80.5333 163.556 81.5L163.806 81.25C163.506 80.95 162.989 80.5 162.256 79.9V78.9C162.256 77.5333 161.773 76.45 160.806 75.65C159.839 74.85 158.489 74.45 156.756 74.45C153.656 74.45 151.373 75.5833 149.906 77.85C149.173 77.6167 148.556 77.25 148.056 76.75C147.556 76.2167 147.306 75.65 147.306 75.05C147.306 74.05 147.756 73.1333 148.656 72.3C149.556 71.4667 150.773 70.8 152.306 70.3C153.839 69.8 155.506 69.55 157.306 69.55C160.839 69.55 163.573 70.3833 165.506 72.05C167.439 73.6833 168.406 75.9167 168.406 78.75V91.25C168.406 92.7167 167.939 93.7833 167.006 94.45C166.073 95.1167 164.606 95.45 162.606 95.45V93.4C163.173 92.8333 163.556 92.4167 163.756 92.15L163.556 91.9C162.456 93.0667 161.273 93.95 160.006 94.55C158.773 95.15 157.189 95.45 155.256 95.45ZM156.856 90.9C158.589 90.9 159.939 90.5667 160.906 89.9C161.873 89.2333 162.356 88.2833 162.356 87.05C162.356 85.85 161.856 84.9 160.856 84.2C159.889 83.5 158.573 83.15 156.906 83.15C155.373 83.15 154.156 83.5 153.256 84.2C152.389 84.8667 151.956 85.8167 151.956 87.05C151.956 88.3167 152.389 89.2833 153.256 89.95C154.123 90.5833 155.323 90.9 156.856 90.9ZM186.857 74.95C184.89 74.95 183.29 75.4833 182.057 76.55C180.823 77.5833 180.207 78.8833 180.207 80.45V91.65C180.207 92.9833 179.707 93.95 178.707 94.55C177.707 95.15 176.14 95.45 174.007 95.45V74.35C174.007 72.8167 174.49 71.6333 175.457 70.8C176.457 69.9667 177.957 69.55 179.957 69.55V72.5C179.457 73.0667 179.057 73.6167 178.757 74.15L179.057 74.35C181.157 71.15 183.79 69.55 186.957 69.55C188.39 69.55 189.473 69.9333 190.207 70.7C190.94 71.4333 191.307 72.3667 191.307 73.5C191.307 74.3667 191.073 75.1 190.607 75.7C189.707 75.2 188.457 74.95 186.857 74.95ZM206.219 95.45C203.519 95.45 201.519 94.6667 200.219 93.1C198.919 91.5333 198.269 89.5167 198.269 87.05V74.65H193.119C193.119 73.0833 193.419 71.9167 194.019 71.15C194.619 70.3833 195.419 70 196.419 70H198.369V65.85C198.369 64.4833 198.869 63.5167 199.869 62.95C200.869 62.35 202.386 62.05 204.419 62.05V70H211.069C211.069 71.6667 210.752 72.8667 210.119 73.6C209.486 74.3 208.469 74.65 207.069 74.65H204.519V86.8C204.519 87.9667 204.736 88.8 205.169 89.3C205.636 89.8 206.419 90.05 207.519 90.05C208.686 90.05 209.852 89.7333 211.019 89.1C211.352 89.4 211.619 89.7833 211.819 90.25C212.019 90.6833 212.119 91.1333 212.119 91.6C212.119 92.6 211.602 93.5 210.569 94.3C209.536 95.0667 208.086 95.45 206.219 95.45ZM223.615 95.45C221.915 95.45 220.349 95.1167 218.915 94.45C217.515 93.7833 216.382 92.8333 215.515 91.6C214.682 90.3333 214.265 88.8333 214.265 87.1C214.265 85.3667 214.715 83.8667 215.615 82.6C216.515 81.3 217.732 80.3167 219.265 79.65C220.832 78.95 222.549 78.6 224.415 78.6C225.949 78.6 227.315 78.85 228.515 79.35C229.749 79.8167 230.882 80.5333 231.915 81.5L232.165 81.25C231.865 80.95 231.349 80.5 230.615 79.9V78.9C230.615 77.5333 230.132 76.45 229.165 75.65C228.199 74.85 226.849 74.45 225.115 74.45C222.015 74.45 219.732 75.5833 218.265 77.85C217.532 77.6167 216.915 77.25 216.415 76.75C215.915 76.2167 215.665 75.65 215.665 75.05C215.665 74.05 216.115 73.1333 217.015 72.3C217.915 71.4667 219.132 70.8 220.665 70.3C222.199 69.8 223.865 69.55 225.665 69.55C229.199 69.55 231.932 70.3833 233.865 72.05C235.799 73.6833 236.765 75.9167 236.765 78.75V91.25C236.765 92.7167 236.299 93.7833 235.365 94.45C234.432 95.1167 232.965 95.45 230.965 95.45V93.4C231.532 92.8333 231.915 92.4167 232.115 92.15L231.915 91.9C230.815 93.0667 229.632 93.95 228.365 94.55C227.132 95.15 225.549 95.45 223.615 95.45ZM225.215 90.9C226.949 90.9 228.299 90.5667 229.265 89.9C230.232 89.2333 230.715 88.2833 230.715 87.05C230.715 85.85 230.215 84.9 229.215 84.2C228.249 83.5 226.932 83.15 225.265 83.15C223.732 83.15 222.515 83.5 221.615 84.2C220.749 84.8667 220.315 85.8167 220.315 87.05C220.315 88.3167 220.749 89.2833 221.615 89.95C222.482 90.5833 223.682 90.9 225.215 90.9ZM252.666 105.45C250.699 105.45 248.949 105.167 247.416 104.6C245.883 104.067 244.683 103.333 243.816 102.4C242.949 101.467 242.516 100.433 242.516 99.3C242.516 98.1667 242.899 97.3667 243.666 96.9C244.466 96.4333 245.583 96.2 247.016 96.2C247.149 97.5667 247.683 98.6167 248.616 99.35C249.549 100.117 250.899 100.5 252.666 100.5C254.633 100.5 256.016 100.017 256.816 99.05C257.649 98.0833 258.066 96.75 258.066 95.05V93.35C258.566 92.9833 258.933 92.6333 259.166 92.3L258.966 92.05C258.099 92.9167 256.933 93.6167 255.466 94.15C254.033 94.6833 252.683 94.95 251.416 94.95C249.549 94.95 247.883 94.5833 246.416 93.85C244.949 93.0833 243.783 92.0167 242.916 90.65C242.083 89.2833 241.666 87.7333 241.666 86V78.55C241.666 76.8833 242.099 75.3667 242.966 74C243.866 72.6 245.033 71.5167 246.466 70.75C247.933 69.95 249.499 69.55 251.166 69.55C252.999 69.55 254.549 69.9167 255.816 70.65C257.116 71.3833 258.299 72.4333 259.366 73.8L259.566 73.6C259.399 73.3 259.083 72.8667 258.616 72.3C258.616 70.4667 260.533 69.55 264.366 69.55V94.15C264.366 96.35 263.866 98.3 262.866 100C261.866 101.7 260.466 103.033 258.666 104C256.899 104.967 254.899 105.45 252.666 105.45ZM253.016 89.6C254.483 89.6 255.716 89.2333 256.716 88.5C257.716 87.7333 258.216 86.8333 258.216 85.8V78.7C258.216 77.6333 257.716 76.7333 256.716 76C255.749 75.2667 254.516 74.9 253.016 74.9C251.383 74.9 250.116 75.25 249.216 75.95C248.349 76.65 247.916 77.65 247.916 78.95V85.55C247.916 86.8167 248.349 87.8167 249.216 88.55C250.083 89.25 251.349 89.6 253.016 89.6ZM280.952 95.45C278.885 95.45 277.002 95.05 275.302 94.25C273.602 93.4167 272.252 92.3 271.252 90.9C270.252 89.4667 269.752 87.8667 269.752 86.1V79.45C269.752 77.5833 270.268 75.9 271.302 74.4C272.335 72.9 273.702 71.7167 275.402 70.85C277.135 69.9833 279.002 69.55 281.002 69.55C282.968 69.55 284.768 69.9667 286.402 70.8C288.068 71.6 289.385 72.7333 290.352 74.2C291.318 75.6333 291.802 77.2833 291.802 79.15V81.95C291.802 82.6833 291.518 83.3 290.952 83.8C290.418 84.3 289.735 84.55 288.902 84.55H275.802V85.65C275.802 87.0833 276.235 88.25 277.102 89.15C277.968 90.05 279.268 90.5 281.002 90.5C282.668 90.5 283.902 90.1333 284.702 89.4C285.535 88.6667 285.952 87.7167 285.952 86.55C286.552 86.4833 286.968 86.45 287.202 86.45C288.435 86.45 289.402 86.7333 290.102 87.3C290.802 87.8333 291.152 88.6 291.152 89.6C291.152 90.5667 290.702 91.5 289.802 92.4C288.902 93.3 287.668 94.0333 286.102 94.6C284.535 95.1667 282.818 95.45 280.952 95.45ZM286.152 80.1V79.15C286.152 77.75 285.668 76.6167 284.702 75.75C283.735 74.8833 282.485 74.45 280.952 74.45C279.418 74.45 278.168 74.8833 277.202 75.75C276.268 76.5833 275.802 77.7167 275.802 79.15V80.1H286.152ZM281.102 59.95C281.302 59.4167 281.702 58.9833 282.302 58.65C282.902 58.3167 283.735 58.15 284.802 58.15H289.102L283.952 66.1C283.618 66.5333 283.185 66.8667 282.652 67.1C282.118 67.3 281.252 67.4 280.052 67.4C279.385 67.4 278.835 67.3833 278.402 67.35L281.102 59.95Z" fill="#FFF9F3"/>
<path d="M119.45 52C118.483 52 117.65 51.65 116.95 50.95C116.283 50.25 115.95 49.4167 115.95 48.45V21.5C115.95 19.8333 116.5 18.6 117.6 17.8C118.7 16.9667 120.383 16.55 122.65 16.55V46.2H136.15C137.717 46.2 138.9 46.7 139.7 47.7C140.5 48.6667 140.9 50.1 140.9 52H119.45ZM153.901 52.45C151.834 52.45 149.951 52.05 148.251 51.25C146.551 50.4167 145.201 49.3 144.201 47.9C143.201 46.4667 142.701 44.8667 142.701 43.1V36.45C142.701 34.5833 143.217 32.9 144.251 31.4C145.284 29.9 146.651 28.7167 148.351 27.85C150.084 26.9833 151.951 26.55 153.951 26.55C155.917 26.55 157.717 26.9667 159.351 27.8C161.017 28.6 162.334 29.7333 163.301 31.2C164.267 32.6333 164.751 34.2833 164.751 36.15V38.95C164.751 39.6833 164.467 40.3 163.901 40.8C163.367 41.3 162.684 41.55 161.851 41.55H148.751V42.65C148.751 44.0833 149.184 45.25 150.051 46.15C150.917 47.05 152.217 47.5 153.951 47.5C155.617 47.5 156.851 47.1333 157.651 46.4C158.484 45.6667 158.901 44.7167 158.901 43.55C159.501 43.4833 159.917 43.45 160.151 43.45C161.384 43.45 162.351 43.7333 163.051 44.3C163.751 44.8333 164.101 45.6 164.101 46.6C164.101 47.5667 163.651 48.5 162.751 49.4C161.851 50.3 160.617 51.0333 159.051 51.6C157.484 52.1667 155.767 52.45 153.901 52.45ZM159.101 37.1V36.15C159.101 34.75 158.617 33.6167 157.651 32.75C156.684 31.8833 155.434 31.45 153.901 31.45C152.367 31.45 151.117 31.8833 150.151 32.75C149.217 33.5833 148.751 34.7167 148.751 36.15V37.1H159.101ZM196.854 52.45C193.887 52.45 191.237 51.8833 188.904 50.75C186.604 49.6167 184.804 48.0333 183.504 46C182.204 43.9667 181.554 41.65 181.554 39.05V29.85C181.554 27.25 182.187 24.95 183.454 22.95C184.754 20.9167 186.537 19.35 188.804 18.25C191.071 17.1167 193.671 16.55 196.604 16.55C199.537 16.55 202.137 17 204.404 17.9C206.704 18.7667 208.487 20 209.754 21.6C211.021 23.1667 211.654 24.9667 211.654 27C211.654 28.2333 211.237 29.2167 210.404 29.95C209.604 30.65 208.521 31 207.154 31C206.487 31 205.754 30.9 204.954 30.7C205.021 29.9 205.054 29.1167 205.054 28.35C205.054 26.5833 204.271 25.15 202.704 24.05C201.137 22.95 199.104 22.4 196.604 22.4C194.137 22.4 192.121 23.1 190.554 24.5C189.021 25.8667 188.254 27.65 188.254 29.85V39.05C188.254 41.2833 189.054 43.1 190.654 44.5C192.254 45.9 194.321 46.6 196.854 46.6C199.354 46.6 201.387 46.05 202.954 44.95C204.521 43.85 205.304 42.4333 205.304 40.7C205.304 39.9 205.271 39.1333 205.204 38.4C206.037 38.2333 206.737 38.15 207.304 38.15C208.704 38.15 209.821 38.5167 210.654 39.25C211.487 39.9833 211.904 40.9833 211.904 42.25C211.904 44.2167 211.271 45.9833 210.004 47.55C208.737 49.0833 206.954 50.2833 204.654 51.15C202.387 52.0167 199.787 52.45 196.854 52.45ZM225.912 52.45C223.745 52.45 221.778 52.0667 220.012 51.3C218.278 50.5 216.912 49.4 215.912 48C214.912 46.6 214.412 45.0167 214.412 43.25V36.2C214.412 34.4 214.895 32.7667 215.862 31.3C216.862 29.8333 218.228 28.6833 219.962 27.85C221.695 26.9833 223.678 26.55 225.912 26.55C228.145 26.55 230.128 26.9833 231.862 27.85C233.628 28.6833 234.995 29.8333 235.962 31.3C236.962 32.7667 237.462 34.4 237.462 36.2V43.25C237.462 45.0167 236.945 46.6 235.912 48C234.912 49.4 233.528 50.5 231.762 51.3C230.028 52.0667 228.078 52.45 225.912 52.45ZM225.912 47.1C227.578 47.1 228.878 46.7167 229.812 45.95C230.778 45.1833 231.262 44.15 231.262 42.85V36.5C231.262 35.1333 230.778 34.0333 229.812 33.2C228.878 32.3333 227.578 31.9 225.912 31.9C224.278 31.9 222.978 32.3333 222.012 33.2C221.045 34.0333 220.562 35.1333 220.562 36.5V42.85C220.562 44.15 221.045 45.1833 222.012 45.95C222.978 46.7167 224.278 47.1 225.912 47.1ZM250.345 52.45C248.545 52.45 246.929 52.0667 245.495 51.3C244.062 50.5333 242.929 49.4833 242.095 48.15C241.262 46.7833 240.845 45.2167 240.845 43.45V35.55C240.845 33.8167 241.279 32.2667 242.145 30.9C243.012 29.5333 244.212 28.4667 245.745 27.7C247.312 26.9333 249.045 26.55 250.945 26.55C252.179 26.55 253.445 26.8167 254.745 27.35C256.079 27.85 257.195 28.5333 258.095 29.4L258.295 29.15C258.129 28.8833 257.762 28.55 257.195 28.15V20.75C257.195 19.4167 257.712 18.3833 258.745 17.65C259.812 16.9167 261.412 16.55 263.545 16.55V48.15C263.545 49.3833 263.079 50.4167 262.145 51.25C261.212 52.05 259.762 52.45 257.795 52.45V49.7C258.229 49.1667 258.545 48.7333 258.745 48.4L258.495 48.2C257.462 49.6 256.312 50.6667 255.045 51.4C253.812 52.1 252.245 52.45 250.345 52.45ZM252.195 47.05C253.695 47.05 254.912 46.7 255.845 46C256.812 45.2667 257.295 44.35 257.295 43.25V35.7C257.295 34.6333 256.812 33.75 255.845 33.05C254.912 32.3167 253.679 31.95 252.145 31.95C250.512 31.95 249.245 32.3 248.345 33C247.479 33.6667 247.045 34.6333 247.045 35.9V43C247.045 44.3333 247.479 45.35 248.345 46.05C249.245 46.7167 250.529 47.05 252.195 47.05ZM280.317 52.45C278.25 52.45 276.367 52.05 274.667 51.25C272.967 50.4167 271.617 49.3 270.617 47.9C269.617 46.4667 269.117 44.8667 269.117 43.1V36.45C269.117 34.5833 269.633 32.9 270.667 31.4C271.7 29.9 273.067 28.7167 274.767 27.85C276.5 26.9833 278.367 26.55 280.367 26.55C282.333 26.55 284.133 26.9667 285.767 27.8C287.433 28.6 288.75 29.7333 289.717 31.2C290.683 32.6333 291.167 34.2833 291.167 36.15V38.95C291.167 39.6833 290.883 40.3 290.317 40.8C289.783 41.3 289.1 41.55 288.267 41.55H275.167V42.65C275.167 44.0833 275.6 45.25 276.467 46.15C277.333 47.05 278.633 47.5 280.367 47.5C282.033 47.5 283.267 47.1333 284.067 46.4C284.9 45.6667 285.317 44.7167 285.317 43.55C285.917 43.4833 286.333 43.45 286.567 43.45C287.8 43.45 288.767 43.7333 289.467 44.3C290.167 44.8333 290.517 45.6 290.517 46.6C290.517 47.5667 290.067 48.5 289.167 49.4C288.267 50.3 287.033 51.0333 285.467 51.6C283.9 52.1667 282.183 52.45 280.317 52.45ZM285.517 37.1V36.15C285.517 34.75 285.033 33.6167 284.067 32.75C283.1 31.8833 281.85 31.45 280.317 31.45C278.783 31.45 277.533 31.8833 276.567 32.75C275.633 33.5833 275.167 34.7167 275.167 36.15V37.1H285.517Z" fill="#FFF9F3"/>
</svg>
