<svg width="482" height="482" viewBox="0 0 482 482" fill="none" xmlns="http://www.w3.org/2000/svg">
<path d="M482 368.633H0V368.874H482V368.633Z" fill="#EBEBEB"/>
<path d="M82.499 377.811H50.5713V378.052H82.499V377.811Z" fill="#EBEBEB"/>
<path d="M173.356 375.198H164.979V375.439H173.356V375.198Z" fill="#EBEBEB"/>
<path d="M101.962 386.766H83.4629V387.007H101.962V386.766Z" fill="#EBEBEB"/>
<path d="M433.704 385.146H392.068V385.387H433.704V385.146Z" fill="#EBEBEB"/>
<path d="M383.479 385.146H377.377V385.387H383.479V385.146Z" fill="#EBEBEB"/>
<path d="M357.538 381.078H267.23V381.319H357.538V381.078Z" fill="#EBEBEB"/>
<path d="M228.468 325.639H42.3384C40.8786 325.639 39.4785 325.059 38.4462 324.027C37.4139 322.994 36.834 321.594 36.834 320.134V58.4758C36.8467 57.0243 37.4322 55.6365 38.4631 54.6147C39.494 53.5928 40.8869 53.0195 42.3384 53.0195H228.468C229.927 53.0195 231.327 53.5995 232.36 54.6317C233.392 55.664 233.972 57.0641 233.972 58.524V320.134C233.972 321.594 233.392 322.994 232.36 324.027C231.327 325.059 229.927 325.639 228.468 325.639ZM42.3384 53.2123C40.9433 53.2149 39.606 53.7702 38.6194 54.7568C37.6329 55.7433 37.0775 57.0806 37.075 58.4758V320.134C37.0775 321.529 37.6329 322.867 38.6194 323.853C39.606 324.84 40.9433 325.395 42.3384 325.398H228.468C229.863 325.395 231.2 324.84 232.187 323.853C233.173 322.867 233.728 321.529 233.731 320.134V58.4758C233.728 57.0806 233.173 55.7433 232.187 54.7568C231.2 53.7702 229.863 53.2149 228.468 53.2123H42.3384Z" fill="#EBEBEB"/>
<path d="M436.991 325.639H250.842C249.383 325.636 247.985 325.055 246.953 324.024C245.921 322.992 245.34 321.593 245.338 320.134V58.4758C245.353 57.0251 245.939 55.6388 246.97 54.6175C248 53.5961 249.392 53.022 250.842 53.0195H436.991C438.439 53.0245 439.827 53.6001 440.854 54.6214C441.88 55.6428 442.463 57.0276 442.476 58.4758V320.134C442.476 321.591 441.899 322.988 440.871 324.02C439.842 325.051 438.447 325.634 436.991 325.639ZM250.842 53.2123C249.447 53.2149 248.11 53.7702 247.123 54.7568C246.137 55.7433 245.581 57.0806 245.579 58.4758V320.134C245.581 321.529 246.137 322.867 247.123 323.853C248.11 324.84 249.447 325.395 250.842 325.398H436.991C438.386 325.395 439.723 324.84 440.71 323.853C441.696 322.867 442.252 321.529 442.254 320.134V58.4758C442.252 57.0806 441.696 55.7433 440.71 54.7568C439.723 53.7702 438.386 53.2149 436.991 53.2123H250.842Z" fill="#EBEBEB"/>
<path d="M245.116 71.0273H59.1797V278.278H245.116V71.0273Z" fill="#EBEBEB"/>
<path d="M251.151 71.0273H61.9951V278.278H251.151V71.0273Z" fill="#F5F5F5"/>
<path d="M245.116 278.277H59.1797V289.508H245.116V278.277Z" fill="#EBEBEB"/>
<path d="M279.859 278.277H90.7031V289.508H279.859V278.277Z" fill="#F0F0F0"/>
<path d="M242.696 269.814V79.4814L70.4584 79.4814V269.814H242.696Z" fill="#FAFAFA"/>
<path d="M77.457 269.814L127.122 79.4814H150.567L100.902 269.814H77.457Z" fill="white"/>
<path d="M74.3827 188.944C74.2216 188.944 74.0672 188.88 73.9533 188.766C73.8394 188.652 73.7754 188.498 73.7754 188.336V84.986C73.794 84.8394 73.8654 84.7045 73.9764 84.6068C74.0873 84.509 74.23 84.4551 74.3779 84.4551C74.5257 84.4551 74.6685 84.509 74.7794 84.6068C74.8904 84.7045 74.9618 84.8394 74.9804 84.986V188.298C74.9856 188.38 74.9741 188.462 74.9465 188.54C74.919 188.617 74.8759 188.689 74.82 188.749C74.7642 188.809 74.6966 188.858 74.6214 188.891C74.5462 188.925 74.465 188.943 74.3827 188.944Z" fill="#F1F1F1"/>
<path d="M105.934 269.814L155.599 79.4814H164.738L115.082 269.814H105.934Z" fill="white"/>
<path d="M242.706 269.823V79.4912H241.636V269.823H242.706Z" fill="#EBEBEB"/>
<path d="M253.156 88.62H67.2193L66.4385 82.7686H252.384L253.156 88.62Z" fill="#EBEBEB"/>
<path d="M253.156 92.9101H67.2193L66.4385 87.0586H252.384L253.156 92.9101Z" fill="#EBEBEB"/>
<path d="M253.156 98.0478H67.2193L66.4385 92.1963H252.384L253.156 98.0478Z" fill="#EBEBEB"/>
<path d="M253.156 103.765H67.2193L66.4385 97.9131H252.384L253.156 103.765Z" fill="#EBEBEB"/>
<path d="M253.156 110.618H67.2193L66.4385 104.767H252.384L253.156 110.618Z" fill="#EBEBEB"/>
<path d="M253.156 118.331H67.2193L66.4385 112.479H252.384L253.156 118.331Z" fill="#EBEBEB"/>
<path d="M74.874 265.331H95.6579V267.384H94.3372L93.2575 278.278H77.2647L76.1851 267.384H74.874V265.331Z" fill="#EBEBEB"/>
<path d="M73.3411 246.254C73.0712 245.347 72.8302 244.432 72.5988 243.516C71.2396 245.28 69.9189 245.723 68.9356 245.723H68.6175C66.6895 245.531 64.7615 243.641 63.6143 240.662C63.5879 240.608 63.5742 240.549 63.5742 240.489C63.5742 240.429 63.5879 240.369 63.6143 240.315C63.6399 240.262 63.6776 240.214 63.7244 240.178C63.7712 240.141 63.826 240.115 63.8843 240.103C65.2827 239.747 66.7405 239.69 68.1624 239.936C69.5844 240.182 70.9384 240.725 72.1361 241.53C71.9529 240.662 71.8083 239.795 71.683 238.927C71.3654 238.989 71.0427 239.021 70.719 239.024C67.5378 239.024 65.1953 236.18 65.0893 236.045C65.0486 235.993 65.0204 235.933 65.0071 235.868C64.9937 235.804 64.9955 235.737 65.0124 235.674C65.0292 235.61 65.0606 235.551 65.104 235.502C65.1475 235.453 65.2019 235.414 65.2628 235.389C66.005 235.012 66.8199 234.8 67.6517 234.766C68.4836 234.733 69.3128 234.88 70.0828 235.197C70.9164 235.615 71.5926 236.291 72.0108 237.125C72.6089 235.299 73.6979 233.673 75.1585 232.425C76.6191 231.177 78.3949 230.355 80.2915 230.049C80.3505 230.034 80.412 230.033 80.4715 230.046C80.5309 230.058 80.5867 230.084 80.6349 230.121C80.683 230.158 80.7222 230.205 80.7495 230.26C80.7769 230.314 80.7917 230.374 80.7928 230.434C80.9567 233.326 80.8699 236.864 78.7009 238.551C77.7985 239.216 76.6977 239.556 75.5776 239.515C74.572 239.491 73.5738 239.335 72.6085 239.053C72.9185 241.139 73.3628 243.203 73.9388 245.232C76.0574 242.35 79.0603 240.241 82.4895 239.226C82.5968 239.199 82.7102 239.216 82.8057 239.272C82.9011 239.327 82.971 239.418 83.0004 239.525C83.6559 242.012 83.3185 244.036 82.0364 245.367C81.3861 245.954 80.6242 246.404 79.7961 246.691C78.9679 246.977 78.0906 247.094 77.2164 247.034C76.274 247.023 75.3348 246.923 74.4111 246.736C74.9413 248.442 75.539 250.11 76.1753 251.7C77.4767 250.553 81.2941 247.632 85.4489 248.856C85.5062 248.872 85.5593 248.899 85.6043 248.938C85.6494 248.976 85.6852 249.024 85.7092 249.078C85.7329 249.131 85.7451 249.189 85.7451 249.247C85.7451 249.305 85.7329 249.362 85.7092 249.416C84.5814 252.173 83.2992 253.696 81.6797 254.236C81.2496 254.372 80.8007 254.44 80.3494 254.438C79.1259 254.379 77.9336 254.032 76.8693 253.426C77.7755 255.527 78.7106 257.503 79.6167 259.258C80.5807 258.207 83.2607 256.029 87.9939 257.041C88.0934 257.062 88.1818 257.118 88.2422 257.2C88.3026 257.282 88.3309 257.383 88.3217 257.484C88.2167 258.368 87.8819 259.208 87.3508 259.922C86.8197 260.636 86.1108 261.198 85.2947 261.552C84.6857 261.814 84.0296 261.948 83.3667 261.948C82.4322 261.932 81.5143 261.698 80.6868 261.263C82.7883 265.119 84.4657 267.587 84.5428 267.645C84.5875 267.736 84.5977 267.841 84.5715 267.94C84.5453 268.038 84.4845 268.124 84.4002 268.181C84.3159 268.239 84.2138 268.264 84.1125 268.252C84.0112 268.24 83.9176 268.192 83.8487 268.117C82.1779 265.588 80.643 262.972 79.2504 260.28C79.2207 260.242 79.1979 260.2 79.1829 260.154C78.9034 259.624 78.6335 259.084 78.3539 258.525C77.8772 259.243 77.2355 259.837 76.4825 260.256C75.7295 260.675 74.887 260.908 74.0255 260.935C73.8489 260.945 73.6719 260.945 73.4953 260.935C72.5431 260.826 71.6396 260.456 70.8843 259.865C70.1291 259.275 69.5515 258.488 69.2152 257.59C69.1805 257.498 69.181 257.395 69.2165 257.303C69.252 257.211 69.3201 257.135 69.408 257.089C70.6324 256.398 72.0039 256.009 73.4087 255.953C74.8135 255.898 76.2113 256.178 77.4863 256.771C76.8886 255.489 76.2813 254.129 75.7029 252.712C75.6705 252.659 75.6477 252.6 75.6354 252.539C75.4715 252.134 75.3077 251.729 75.1534 251.324C73.7653 253.079 72.3771 253.937 70.9407 253.937C69.1863 253.937 67.4222 252.645 65.5327 249.994C65.4678 249.906 65.4404 249.795 65.4567 249.687C65.4729 249.578 65.5315 249.481 65.6195 249.416C68.5886 247.189 72.6663 248.712 74.5172 249.599C74.1412 248.558 73.7845 247.488 73.4568 246.398L73.3411 246.254Z" fill="#EBEBEB"/>
<path d="M95.1177 257.465C94.4557 257.671 93.7672 257.778 93.0741 257.783C92.223 257.794 91.3809 257.608 90.6132 257.241C89.8454 256.873 89.1726 256.334 88.6468 255.665C88.1211 254.995 87.7565 254.214 87.5814 253.381C87.4063 252.548 87.4254 251.686 87.6371 250.862C87.6601 250.765 87.7185 250.681 87.8006 250.626C87.8827 250.571 87.9826 250.548 88.0805 250.563C89.7034 250.724 91.2639 251.272 92.6311 252.161C93.9982 253.05 95.132 254.254 95.9371 255.672C96.9011 253.571 97.7784 251.344 98.5689 249.03C97.5581 249.608 96.4251 249.938 95.2623 249.994C94.8033 249.995 94.3473 249.92 93.9127 249.772C91.6184 248.992 90.2399 246.186 89.0927 243.265C89.0688 243.211 89.0565 243.152 89.0565 243.092C89.0565 243.032 89.0688 242.973 89.0927 242.918C89.1173 242.866 89.1535 242.819 89.1986 242.782C89.2437 242.746 89.2964 242.72 89.353 242.706C94.067 241.395 97.8844 245.897 99.0701 247.526C99.6934 245.586 100.212 243.613 100.622 241.617C99.6399 241.802 98.643 241.899 97.6434 241.906C96.6474 241.976 95.6475 241.842 94.7057 241.51C93.7639 241.178 92.9001 240.657 92.1679 239.978C90.7605 238.484 90.4231 236.247 91.2039 233.51C91.2173 233.456 91.2413 233.406 91.2744 233.362C91.3075 233.318 91.349 233.281 91.3966 233.253C91.4442 233.225 91.4968 233.207 91.5515 233.2C91.6061 233.193 91.6616 233.196 91.7148 233.211C95.4499 234.392 98.6964 236.761 100.96 239.959L101.133 238.889C101.145 238.798 101.186 238.714 101.249 238.648C101.439 237.968 101.766 237.334 102.21 236.785C102.654 236.236 103.206 235.784 103.832 235.457C105.23 234.792 106.994 234.888 109.067 235.737C109.129 235.762 109.183 235.801 109.227 235.852C109.271 235.903 109.302 235.963 109.318 236.027C109.334 236.092 109.334 236.16 109.319 236.225C109.304 236.29 109.274 236.351 109.231 236.402C109.105 236.546 106.541 239.583 103.08 239.583C102.711 239.577 102.344 239.538 101.981 239.467C101.827 240.431 101.644 241.453 101.422 242.436C102.754 241.557 104.258 240.971 105.833 240.717C107.409 240.463 109.02 240.546 110.561 240.961C110.619 240.977 110.672 241.005 110.718 241.044C110.765 241.082 110.802 241.129 110.828 241.183C110.855 241.237 110.87 241.296 110.872 241.355C110.874 241.415 110.863 241.475 110.841 241.53C109.491 244.788 107.418 246.832 105.269 247.015H104.979C103.89 247.015 102.425 246.514 100.931 244.509C100.332 246.793 99.6174 249.045 98.7906 251.257C100.815 250.293 105.365 248.645 108.614 251.161C108.698 251.229 108.753 251.327 108.768 251.434C108.782 251.542 108.754 251.651 108.691 251.739C106.599 254.631 104.652 255.99 102.753 255.99C101.172 255.99 99.6582 255.026 98.1543 253.031C97.2867 255.19 96.3613 257.243 95.4359 259.142C97.4506 257.889 99.6775 258.082 102.3 259.74C102.356 259.777 102.403 259.827 102.437 259.885C102.47 259.944 102.489 260.01 102.492 260.078C102.494 260.147 102.479 260.215 102.449 260.277C102.419 260.339 102.374 260.393 102.319 260.434C100.736 261.507 98.888 262.121 96.9783 262.208C95.9866 262.224 95.0151 261.927 94.2019 261.36C92.4134 264.831 90.4175 268.192 88.2251 271.424C88.1818 271.486 88.1242 271.537 88.0571 271.572C87.9899 271.607 87.9153 271.626 87.8395 271.626C87.7458 271.626 87.6547 271.595 87.5793 271.539C87.5291 271.505 87.4863 271.461 87.4534 271.409C87.4204 271.358 87.3979 271.301 87.3871 271.241C87.3764 271.181 87.3776 271.119 87.3907 271.059C87.4038 271 87.4286 270.944 87.4636 270.894C90.3578 266.622 92.9169 262.132 95.1177 257.465Z" fill="#EBEBEB"/>
<path d="M412.033 145.178H368.412V193.079H412.033V145.178Z" fill="#EBEBEB"/>
<path d="M407.502 148.234C407.461 148.246 407.418 148.246 407.377 148.234C407.261 148.166 395.626 141.245 391.953 141.245C388.28 141.245 377.146 148.166 377.04 148.234C376.984 148.267 376.918 148.277 376.856 148.263C376.793 148.248 376.738 148.21 376.702 148.157C376.685 148.13 376.673 148.101 376.668 148.07C376.662 148.039 376.663 148.007 376.67 147.976C376.677 147.945 376.691 147.916 376.71 147.891C376.728 147.866 376.752 147.845 376.78 147.829C377.242 147.54 388.116 140.763 391.953 140.763C395.79 140.763 407.174 147.511 407.656 147.819C407.71 147.855 407.748 147.91 407.763 147.972C407.777 148.035 407.767 148.101 407.734 148.157C407.706 148.19 407.67 148.214 407.629 148.228C407.588 148.242 407.544 148.244 407.502 148.234Z" fill="#EBEBEB"/>
<path d="M416.757 145.178H371.699V193.079H416.757V145.178Z" fill="#F5F5F5"/>
<path d="M412.987 189.31V148.957H375.478V189.31H412.987Z" fill="white"/>
<path d="M395.24 174.001C394.637 174.005 394.036 174.073 393.447 174.204C393.598 173.687 393.676 173.152 393.679 172.613C393.68 171.308 393.219 170.044 392.377 169.046C392.798 169.181 393.237 169.252 393.679 169.259C394.727 169.269 395.748 168.924 396.576 168.281C397.404 167.637 397.99 166.733 398.239 165.714C398.487 164.695 398.384 163.623 397.946 162.67C397.507 161.717 396.76 160.941 395.824 160.467C394.889 159.993 393.821 159.85 392.794 160.06C391.766 160.27 390.84 160.822 390.166 161.625C389.492 162.428 389.109 163.435 389.08 164.483C389.051 165.532 389.377 166.559 390.006 167.398C389.247 167.121 388.437 167.013 387.633 167.081C386.828 167.149 386.048 167.392 385.346 167.793C384.645 168.194 384.04 168.742 383.573 169.401C383.105 170.06 382.787 170.813 382.641 171.607C382.494 172.401 382.523 173.218 382.725 174C382.926 174.782 383.296 175.51 383.808 176.135C384.32 176.759 384.962 177.265 385.69 177.615C386.417 177.966 387.213 178.154 388.02 178.166C387.273 179.437 386.88 180.885 386.883 182.359C386.883 184.012 387.373 185.628 388.291 187.003C389.209 188.377 390.515 189.448 392.042 190.081C393.569 190.714 395.25 190.879 396.871 190.557C398.492 190.234 399.981 189.438 401.15 188.269C402.319 187.1 403.115 185.611 403.438 183.99C403.76 182.369 403.595 180.688 402.962 179.161C402.33 177.634 401.258 176.328 399.884 175.41C398.509 174.492 396.893 174.001 395.24 174.001Z" fill="#F5F5F5"/>
<path d="M387.161 156.091C387.163 157 386.895 157.89 386.391 158.648C385.887 159.405 385.17 159.996 384.329 160.346C383.489 160.695 382.565 160.788 381.672 160.611C380.779 160.435 379.959 159.998 379.315 159.355C378.671 158.712 378.232 157.893 378.054 157.001C377.876 156.109 377.966 155.184 378.314 154.343C378.662 153.502 379.251 152.783 380.007 152.278C380.764 151.772 381.653 151.502 382.563 151.502C383.78 151.504 384.947 151.988 385.808 152.848C386.67 153.708 387.156 154.874 387.161 156.091Z" fill="#F5F5F5"/>
<path d="M352.949 99.7354H303.65V153.864H352.949V99.7354Z" fill="#EBEBEB"/>
<path d="M346.867 101.952C346.826 101.962 346.783 101.962 346.741 101.952C346.626 101.875 334.981 94.9537 331.317 94.9537C327.654 94.9537 316.52 101.875 316.414 101.943C316.387 101.96 316.357 101.972 316.325 101.978C316.293 101.984 316.26 101.983 316.229 101.976C316.197 101.968 316.168 101.955 316.142 101.936C316.115 101.917 316.093 101.893 316.077 101.866C316.044 101.812 316.034 101.747 316.048 101.686C316.063 101.625 316.101 101.572 316.154 101.538C316.616 101.249 327.481 94.4717 331.317 94.4717C335.154 94.4717 346.549 101.22 347.031 101.538C347.058 101.554 347.082 101.575 347.1 101.6C347.119 101.625 347.133 101.654 347.14 101.685C347.147 101.716 347.148 101.748 347.142 101.779C347.137 101.81 347.125 101.839 347.108 101.866C347.081 101.902 347.043 101.93 347 101.945C346.957 101.961 346.911 101.963 346.867 101.952Z" fill="#EBEBEB"/>
<path d="M358.28 99.7354H307.361V153.864H358.28V99.7354Z" fill="#F5F5F5"/>
<path d="M354.02 149.593V103.996H311.632V149.593H354.02Z" fill="white"/>
<path d="M317.696 109.028H316.954C316.107 109.028 315.421 109.715 315.421 110.561V150.837C315.421 151.684 316.107 152.37 316.954 152.37H317.696C318.542 152.37 319.229 151.684 319.229 150.837V110.561C319.229 109.715 318.542 109.028 317.696 109.028Z" fill="#F5F5F5"/>
<path d="M330.025 130.699H327.336H327.066V122.245C327.066 121.838 326.904 121.448 326.617 121.161C326.329 120.873 325.94 120.712 325.533 120.712H322.853C322.447 120.712 322.057 120.873 321.769 121.161C321.482 121.448 321.32 121.838 321.32 122.245V150.808C321.32 151.215 321.482 151.604 321.769 151.892C322.057 152.179 322.447 152.341 322.853 152.341H325.533C325.859 152.342 326.178 152.237 326.439 152.042C326.696 152.238 327.012 152.344 327.336 152.341H330.025C330.432 152.341 330.822 152.179 331.109 151.892C331.397 151.604 331.558 151.215 331.558 150.808V132.232C331.558 132.03 331.518 131.831 331.441 131.645C331.364 131.459 331.251 131.29 331.109 131.148C330.967 131.006 330.798 130.893 330.612 130.816C330.426 130.739 330.227 130.699 330.025 130.699Z" fill="#F5F5F5"/>
<path d="M344.755 119.198H334.826C333.979 119.198 333.293 119.884 333.293 120.731V150.827C333.293 151.674 333.979 152.36 334.826 152.36H344.755C345.601 152.36 346.288 151.674 346.288 150.827V120.731C346.288 119.884 345.601 119.198 344.755 119.198Z" fill="#F5F5F5"/>
<path d="M347.136 115.574C349.729 115.574 351.831 113.472 351.831 110.879C351.831 108.286 349.729 106.185 347.136 106.185C344.543 106.185 342.441 108.286 342.441 110.879C342.441 113.472 344.543 115.574 347.136 115.574Z" fill="#F5F5F5"/>
<path d="M176.547 265.264C176.547 272.445 184.317 278.278 193.899 278.278C203.481 278.278 211.251 272.445 211.251 265.264H176.547Z" fill="#EBEBEB"/>
<path d="M241 412.168C344.227 412.168 427.91 407.282 427.91 401.255C427.91 395.228 344.227 390.343 241 390.343C137.772 390.343 54.0898 395.228 54.0898 401.255C54.0898 407.282 137.772 412.168 241 412.168Z" fill="#F5F5F5"/>
<path d="M330.295 402.326C339.916 402.326 347.715 401.847 347.715 401.256C347.715 400.665 339.916 400.186 330.295 400.186C320.675 400.186 312.876 400.665 312.876 401.256C312.876 401.847 320.675 402.326 330.295 402.326Z" fill="#E6E6E6"/>
<path d="M211.965 375.95H364.248C379.07 375.95 391.086 363.935 391.086 349.112V263.047C391.086 248.224 379.07 236.209 364.248 236.209L211.965 236.209C197.143 236.209 185.127 248.224 185.127 263.047V349.112C185.127 363.935 197.143 375.95 211.965 375.95Z" fill="#263238"/>
<path d="M337.689 401.256H323.278L293.991 331.867H316.048L337.689 401.256Z" fill="#263238"/>
<path d="M395.423 299.004H394.459V306.08H395.423V299.004Z" fill="#347BB1"/>
<path opacity="0.2" d="M395.423 299.004H394.459V306.08H395.423V299.004Z" fill="black"/>
<path d="M395.423 268.841H394.459V294.175H395.423V268.841Z" fill="#347BB1"/>
<path opacity="0.2" d="M395.423 268.841H394.459V294.175H395.423V268.841Z" fill="black"/>
<path d="M272.947 231.871H259.875V232.835H272.947V231.871Z" fill="#347BB1"/>
<path opacity="0.2" d="M272.947 231.871H259.875V232.835H272.947V231.871Z" fill="black"/>
<path d="M377.348 331.867L337.66 401.256L308.374 331.867H377.348Z" fill="#347BB1"/>
<path opacity="0.2" d="M377.358 331.867L337.67 401.256L308.384 331.867H377.358Z" fill="black"/>
<path d="M224.082 375.95H364.247C379.069 375.95 391.085 363.935 391.085 349.112V263.047C391.085 248.224 379.069 236.209 364.247 236.209L224.082 236.209C209.26 236.209 197.244 248.224 197.244 263.047V349.112C197.244 363.935 209.26 375.95 224.082 375.95Z" fill="#347BB1"/>
<path opacity="0.2" d="M224.082 375.95H364.247C379.069 375.95 391.085 363.935 391.085 349.112V263.047C391.085 248.224 379.069 236.209 364.247 236.209L224.082 236.209C209.26 236.209 197.244 248.224 197.244 263.047V349.112C197.244 363.935 209.26 375.95 224.082 375.95Z" fill="black"/>
<path opacity="0.7" d="M272.571 375.95H246.929L274.056 236.209H299.708L272.571 375.95Z" fill="#347BB1"/>
<path opacity="0.7" d="M295.736 375.95H281.15L308.287 236.209H322.863L295.736 375.95Z" fill="#347BB1"/>
<path d="M356.314 281.295H285.055C283.129 281.226 281.305 280.412 279.967 279.025C278.629 277.638 277.881 275.785 277.881 273.858C277.881 271.931 278.629 270.078 279.967 268.691C281.305 267.304 283.129 266.49 285.055 266.421H356.314C357.313 266.385 358.309 266.551 359.243 266.908C360.177 267.266 361.029 267.808 361.749 268.502C362.468 269.196 363.041 270.028 363.432 270.948C363.822 271.869 364.024 272.858 364.024 273.858C364.024 274.858 363.822 275.848 363.432 276.768C363.041 277.688 362.468 278.52 361.749 279.214C361.029 279.908 360.177 280.45 359.243 280.808C358.309 281.166 357.313 281.331 356.314 281.295Z" fill="white"/>
<path d="M260.637 281.295H228.363C226.437 281.226 224.612 280.412 223.274 279.025C221.936 277.638 221.188 275.785 221.188 273.858C221.188 271.931 221.936 270.078 223.274 268.691C224.612 267.304 226.437 266.49 228.363 266.421H260.637C261.637 266.385 262.633 266.551 263.567 266.908C264.5 267.266 265.352 267.808 266.072 268.502C266.792 269.196 267.364 270.028 267.755 270.948C268.146 271.869 268.347 272.858 268.347 273.858C268.347 274.858 268.146 275.848 267.755 276.768C267.364 277.688 266.792 278.52 266.072 279.214C265.352 279.908 264.5 280.45 263.567 280.808C262.633 281.166 261.637 281.331 260.637 281.295Z" fill="white"/>
<path d="M356.314 312.645H235.93C234.004 312.576 232.18 311.762 230.842 310.374C229.504 308.987 228.756 307.135 228.756 305.208C228.756 303.28 229.504 301.428 230.842 300.041C232.18 298.654 234.004 297.84 235.93 297.77H356.314C357.314 297.734 358.31 297.9 359.244 298.258C360.177 298.615 361.029 299.157 361.749 299.852C362.469 300.546 363.041 301.378 363.432 302.298C363.823 303.218 364.024 304.208 364.024 305.208C364.024 306.208 363.823 307.197 363.432 308.117C363.041 309.038 362.469 309.87 361.749 310.564C361.029 311.258 360.177 311.8 359.244 312.158C358.31 312.515 357.314 312.681 356.314 312.645Z" fill="white"/>
<path d="M356.315 343.984H300.547C298.621 343.914 296.797 343.101 295.459 341.713C294.121 340.326 293.373 338.474 293.373 336.547C293.373 334.619 294.121 332.767 295.459 331.38C296.797 329.993 298.621 329.179 300.547 329.109H356.315C357.314 329.073 358.31 329.239 359.244 329.597C360.178 329.954 361.03 330.496 361.749 331.19C362.469 331.885 363.041 332.717 363.432 333.637C363.823 334.557 364.025 335.547 364.025 336.547C364.025 337.546 363.823 338.536 363.432 339.456C363.041 340.377 362.469 341.209 361.749 341.903C361.03 342.597 360.178 343.139 359.244 343.497C358.31 343.854 357.314 344.02 356.315 343.984Z" fill="white"/>
<path opacity="0.1" d="M232.055 236.18C232.055 236.18 221.393 293.827 221.393 318.178C221.393 343.155 230.204 375.921 230.204 375.921H202.045L200.185 344.293C198.431 314.713 201.359 285.042 208.861 256.376L214.143 236.132L232.055 236.18Z" fill="black"/>
<path d="M217.373 401.255C217.373 402.393 201.563 403.318 182.061 403.318C162.56 403.318 146.75 402.354 146.75 401.255C146.75 400.156 162.56 399.192 182.061 399.192C201.563 399.192 217.373 400.118 217.373 401.255Z" fill="#E6E6E6"/>
<path d="M205.265 161.692C202.276 162.165 199.481 162.406 196.589 162.656C193.697 162.907 190.805 162.897 187.913 162.878C182.024 162.877 176.154 162.231 170.406 160.95C168.58 160.452 166.872 159.593 165.384 158.424C164.132 157.461 162.953 156.408 161.856 155.272C159.831 153.138 157.962 150.86 156.264 148.457C152.94 143.807 149.978 138.908 147.405 133.804L151.02 131.635C152.64 133.823 154.308 136.05 156.023 138.18C157.739 140.311 159.446 142.451 161.258 144.466C162.993 146.456 164.848 148.339 166.811 150.105C167.717 150.919 168.684 151.664 169.703 152.332C170.443 152.856 171.273 153.241 172.151 153.469C174.724 153.901 177.317 154.194 179.921 154.347C182.572 154.462 185.242 154.53 187.932 154.491C190.621 154.453 193.321 154.308 196.01 154.115C198.7 153.922 201.447 153.643 203.982 153.334L205.265 161.692Z" fill="#FF8B7B"/>
<path d="M213.941 153.865C206.605 149.421 196.656 152.65 196.656 152.65L201.688 170.002C201.688 170.002 209.632 167.765 212.745 164.382C216.004 160.882 218.366 156.535 213.941 153.865Z" fill="#263238"/>
<path d="M151.637 133.437L153.411 127.46L145.015 128.501C145.561 130.874 146.602 133.104 148.071 135.047L151.637 133.437Z" fill="#FF8B7B"/>
<path d="M152.804 120.49L145.815 121.743L145.015 128.501L153.411 127.46L152.804 120.49Z" fill="#FF8B7B"/>
<path d="M248.192 99.0512C255.615 99.2054 253.532 105.404 253.532 105.404C253.532 105.404 261.62 100.295 264.194 106.262C266.768 112.229 260.965 114.119 257.572 115.015C259.702 116.239 259.818 120.211 256.829 121.512C253.841 122.814 248.838 119.237 245.059 119.286L241.338 114.88C246.389 111.602 240.759 98.897 248.192 99.0512Z" fill="#263238"/>
<path d="M247.034 122.351C250.274 122.92 252.626 122.515 251.989 118.938C251.584 116.953 250.684 115.102 249.373 113.556C248.062 112.011 246.383 110.822 244.489 110.098C240.402 108.595 239.486 115.343 239.486 115.343L247.034 122.351Z" fill="#DA2C38"/>
<path d="M152.312 372.172L144.041 371.218L145.689 352.015L153.961 352.959L152.312 372.172Z" fill="#FF8B7B"/>
<path d="M207.096 394.681L198.786 394.305L196.993 374.929L205.312 375.314L207.096 394.681Z" fill="#FF8B7B"/>
<path d="M198.469 391.789H207.819C207.98 391.787 208.136 391.844 208.259 391.949C208.381 392.053 208.461 392.199 208.484 392.358L209.545 399.761C209.565 399.948 209.546 400.136 209.488 400.315C209.431 400.493 209.336 400.658 209.21 400.797C209.085 400.936 208.931 401.047 208.759 401.123C208.588 401.199 208.402 401.237 208.215 401.236C204.956 401.178 203.395 400.995 199.269 400.995C196.743 400.995 193.041 401.256 189.552 401.256C186.062 401.256 185.879 397.804 187.325 397.486C193.851 396.089 194.882 394.151 197.08 392.31C197.466 391.976 197.959 391.792 198.469 391.789Z" fill="#263238"/>
<path d="M143.762 368.19L153.045 367.091C153.206 367.069 153.37 367.107 153.505 367.198C153.64 367.288 153.737 367.425 153.778 367.583L155.706 374.803C155.746 374.986 155.748 375.176 155.71 375.36C155.672 375.543 155.597 375.717 155.488 375.87C155.378 376.023 155.239 376.151 155.077 376.246C154.915 376.341 154.735 376.401 154.549 376.422C151.31 376.75 149.729 376.75 145.642 377.232C143.135 377.531 137.93 378.408 134.498 378.813C131.066 379.218 130.439 375.815 131.847 375.333C138.161 373.174 140.475 370.957 142.451 368.865C142.797 368.495 143.26 368.256 143.762 368.19Z" fill="#263238"/>
<path d="M145.699 352.015L144.841 361.915L153.112 362.869L153.97 352.969L145.699 352.015Z" fill="#EA7063"/>
<path d="M205.312 375.314L196.993 374.938L197.919 384.926L206.238 385.301L205.312 375.314Z" fill="#EA7063"/>
<path d="M205.882 151.656C205.882 151.656 201.689 151.917 196.011 201.061L228.526 210.277C231.737 196.887 234.031 188.722 248.057 163.359C243.772 161.112 239.329 159.179 234.764 157.575C229.946 155.832 225.011 154.434 219.995 153.391C213.488 152.225 205.882 151.656 205.882 151.656Z" fill="#263238"/>
<path d="M238.011 140.59C235.736 145.072 232.333 153.517 234.763 157.624C234.763 157.624 232.092 162.077 223.272 159.552C213.564 156.804 219.994 153.421 219.994 153.421C225.653 153.662 226.626 149.69 226.742 145.709L238.011 140.59Z" fill="#FF8B7B"/>
<path d="M210.904 152.139C213.564 152.428 216.909 152.862 219.994 153.44C225.011 154.48 229.946 155.878 234.763 157.624C237.529 158.588 240.209 159.648 242.417 160.641C241.964 162.251 238.773 170.628 219.792 165.808C202.131 161.258 208.889 153.777 210.904 152.139Z" fill="#FF8B7B"/>
<path d="M233.423 142.672L226.762 145.728C226.745 146.653 226.649 147.576 226.473 148.485C228.574 148.764 232.141 147.82 232.96 145.757C233.294 144.763 233.451 143.719 233.423 142.672Z" fill="#EA7063"/>
<path d="M242.243 130.035C240.248 138.045 239.583 141.487 234.724 144.89C227.417 150.018 217.999 145.854 217.555 137.38C217.151 129.774 220.447 117.946 228.998 116.172C230.877 115.773 232.827 115.862 234.663 116.428C236.498 116.995 238.158 118.022 239.485 119.411C240.813 120.8 241.763 122.505 242.245 124.364C242.728 126.224 242.727 128.176 242.243 130.035Z" fill="#FF8B7B"/>
<path d="M239.641 137.766C237.221 136.513 235.284 132.946 238.773 129.63C238.773 129.63 233.953 126.882 236.373 123.094C238.793 119.305 248.461 116.153 249.975 121.243C251.488 126.333 246.784 128.425 246.784 128.425C246.784 128.425 250.64 134.324 243.709 136.272C243.709 136.272 243.111 144.784 238.137 140.995L239.641 137.766Z" fill="#263238"/>
<path d="M242.157 137.583C241.698 139.107 240.66 140.391 239.265 141.159C237.395 142.123 236.007 140.59 236.142 138.595C236.267 136.792 237.395 134.103 239.448 133.939C239.898 133.911 240.348 133.996 240.758 134.185C241.167 134.375 241.522 134.664 241.791 135.026C242.06 135.388 242.234 135.812 242.298 136.258C242.362 136.704 242.314 137.16 242.157 137.583Z" fill="#FF8B7B"/>
<path d="M196.01 201.062C196.01 201.062 158.24 245.608 151.849 270.171C145.197 295.717 142.209 358.859 142.209 358.859L155.204 360.536C155.204 360.536 163.88 302.764 174.802 279.223C186.428 254.159 219.869 207.829 219.869 207.829L196.01 201.062Z" fill="#347BB1"/>
<path d="M156.939 360.749L140.406 358.589L140.117 354.059L158.308 357.751L156.939 360.749Z" fill="#DA2C38"/>
<path opacity="0.3" d="M156.939 360.749L140.406 358.589L140.117 354.059L158.308 357.751L156.939 360.749Z" fill="black"/>
<path opacity="0.2" d="M195.364 221.315C192.274 232.259 189.949 243.404 188.404 254.67C191.855 249.079 195.49 243.42 199.008 238.06C200.29 235.226 201.601 232.421 202.864 229.683C202.864 229.683 202.864 229.625 202.864 229.587L195.364 221.315Z" fill="black"/>
<path d="M204.599 203.491C204.599 203.491 193.667 259.76 189.715 292.092C186.514 318.217 196.588 381.581 196.588 381.581L207.424 382.246C207.424 382.246 205.139 325.659 210.171 300.354C222.915 236.335 234.83 227.745 228.487 210.278L204.599 203.491Z" fill="#347BB1"/>
<path d="M208.764 382.323L194.738 381.465L194.082 377.474L209.275 379.055L208.764 382.323Z" fill="#DA2C38"/>
<path opacity="0.3" d="M208.764 382.323L194.738 381.465L194.082 377.474L209.275 379.055L208.764 382.323Z" fill="black"/>
<path d="M229.557 208.504L230.193 211.83C230.241 212.09 229.914 212.244 229.538 212.138L195.441 202.498C195.142 202.421 194.94 202.209 194.978 202.016L195.509 199.028C195.509 198.816 195.846 198.719 196.164 198.806L229.094 208.138C229.195 208.158 229.289 208.202 229.369 208.266C229.45 208.329 229.514 208.411 229.557 208.504Z" fill="#DA2C38"/>
<path opacity="0.4" d="M229.557 208.504L230.193 211.83C230.241 212.09 229.914 212.244 229.538 212.138L195.441 202.498C195.142 202.421 194.94 202.209 194.978 202.016L195.509 199.028C195.509 198.816 195.846 198.719 196.164 198.806L229.094 208.138C229.195 208.158 229.289 208.202 229.369 208.266C229.45 208.329 229.514 208.411 229.557 208.504Z" fill="black"/>
<path d="M224.092 210.933L224.969 211.183C225.143 211.231 225.306 211.183 225.326 211.068L225.981 207.212C225.981 207.096 225.875 206.961 225.702 206.913L224.815 206.662C224.641 206.614 224.487 206.662 224.468 206.778L223.803 210.634C223.783 210.749 223.918 210.884 224.092 210.933Z" fill="#DA2C38"/>
<path d="M197.823 203.491L198.71 203.741C198.883 203.789 199.047 203.741 199.067 203.626L199.722 199.77C199.722 199.664 199.616 199.529 199.433 199.48L198.556 199.23C198.382 199.172 198.218 199.23 198.199 199.345L197.543 203.201C197.524 203.307 197.621 203.404 197.823 203.491Z" fill="#DA2C38"/>
<path d="M210.962 207.26L211.839 207.511C212.013 207.511 212.177 207.511 212.196 207.395L212.852 203.539C212.852 203.423 212.745 203.288 212.572 203.24L211.685 202.989C211.512 202.932 211.348 202.989 211.328 203.105L210.673 206.961C210.654 207.029 210.779 207.164 210.962 207.26Z" fill="#DA2C38"/>
<path d="M229.528 130.043C229.403 130.699 228.96 131.171 228.564 131.094C228.169 131.017 227.88 130.41 228.005 129.754C228.13 129.099 228.574 128.617 228.969 128.703C229.364 128.79 229.644 129.378 229.528 130.043Z" fill="#263238"/>
<path d="M222.067 128.665C221.942 129.331 221.499 129.803 221.103 129.716C220.708 129.629 220.419 129.041 220.544 128.386C220.67 127.73 221.113 127.248 221.508 127.325C221.903 127.403 222.183 128.01 222.067 128.665Z" fill="#263238"/>
<path d="M221.72 127.402L220.226 126.65C220.226 126.65 220.756 128.039 221.72 127.402Z" fill="#263238"/>
<path d="M223.831 130.141C222.963 131.537 221.909 132.808 220.698 133.92C220.992 134.221 221.347 134.455 221.74 134.604C222.133 134.754 222.554 134.817 222.973 134.787L223.831 130.141Z" fill="#FF5652"/>
<path d="M225.981 137.959C225.589 137.956 225.199 137.917 224.814 137.843C224.765 137.834 224.721 137.805 224.692 137.764C224.663 137.722 224.651 137.671 224.66 137.621C224.669 137.569 224.699 137.523 224.742 137.492C224.785 137.461 224.839 137.449 224.891 137.457C225.709 137.625 226.555 137.599 227.36 137.379C228.166 137.16 228.909 136.754 229.528 136.194C229.567 136.163 229.615 136.147 229.665 136.149C229.714 136.151 229.762 136.171 229.797 136.205C229.833 136.24 229.855 136.286 229.859 136.336C229.862 136.385 229.848 136.435 229.817 136.474C228.777 137.444 227.403 137.975 225.981 137.959Z" fill="#263238"/>
<path d="M232.324 128.048C232.252 128.049 232.182 128.029 232.121 127.991C232.059 127.954 232.01 127.9 231.977 127.836C231.767 127.388 231.454 126.995 231.064 126.69C230.674 126.386 230.217 126.177 229.731 126.081C229.676 126.081 229.621 126.07 229.57 126.047C229.519 126.024 229.474 125.991 229.437 125.95C229.4 125.908 229.372 125.86 229.355 125.807C229.338 125.754 229.332 125.698 229.338 125.643C229.344 125.587 229.362 125.534 229.39 125.486C229.419 125.438 229.456 125.397 229.502 125.364C229.547 125.332 229.599 125.31 229.653 125.299C229.708 125.288 229.764 125.288 229.818 125.301C230.44 125.404 231.028 125.656 231.531 126.035C232.035 126.415 232.439 126.91 232.71 127.479C232.757 127.573 232.765 127.681 232.733 127.78C232.7 127.88 232.63 127.962 232.536 128.009C232.47 128.041 232.397 128.054 232.324 128.048Z" fill="#263238"/>
<path d="M219.377 124.616C219.327 124.616 219.277 124.606 219.231 124.586C219.184 124.566 219.142 124.537 219.107 124.501C219.069 124.465 219.039 124.421 219.019 124.373C218.998 124.325 218.987 124.273 218.987 124.221C218.987 124.169 218.998 124.117 219.019 124.069C219.039 124.021 219.069 123.977 219.107 123.941C219.534 123.484 220.063 123.134 220.651 122.921C221.24 122.708 221.87 122.638 222.491 122.717C222.592 122.74 222.68 122.801 222.737 122.887C222.795 122.973 222.817 123.078 222.799 123.18C222.79 123.231 222.771 123.28 222.742 123.323C222.714 123.367 222.677 123.404 222.634 123.433C222.591 123.461 222.542 123.481 222.491 123.491C222.44 123.5 222.387 123.5 222.337 123.488C221.849 123.429 221.354 123.485 220.891 123.653C220.429 123.82 220.013 124.094 219.676 124.452C219.642 124.5 219.597 124.54 219.545 124.568C219.494 124.597 219.436 124.613 219.377 124.616Z" fill="#263238"/>
<path d="M249.068 172.488C249.724 175.438 250.139 178.214 250.524 181.087C250.91 183.96 251.112 186.871 251.276 189.705C251.617 195.585 251.316 201.484 250.38 207.298C249.996 209.152 249.242 210.91 248.162 212.465C247.29 213.771 246.323 215.012 245.27 216.177C243.265 218.337 241.11 220.353 238.821 222.211C234.375 225.813 229.656 229.065 224.708 231.938L222.327 228.468C224.409 226.713 226.53 224.911 228.555 223.079C230.579 221.247 232.613 219.397 234.502 217.469C236.388 215.615 238.158 213.648 239.804 211.578C240.559 210.628 241.243 209.623 241.848 208.571C242.32 207.798 242.647 206.945 242.812 206.055C243.091 203.461 243.226 200.855 243.217 198.246C243.217 195.586 243.072 192.915 242.87 190.236C242.668 187.556 242.359 184.876 242.002 182.196C241.646 179.516 241.202 176.797 240.74 174.291L249.068 172.488Z" fill="#FF8B7B"/>
<path d="M248.057 163.359C251.026 165.287 251.768 177.598 251.768 177.598L236.566 183.054C236.566 183.054 234.638 172.382 237.173 168.594C239.844 164.574 244.654 161.171 248.057 163.359Z" fill="#263238"/>
<path d="M195.615 393.245C195.053 393.294 194.492 393.14 194.034 392.811C193.895 392.68 193.792 392.515 193.734 392.333C193.677 392.151 193.667 391.957 193.706 391.77C193.716 391.65 193.758 391.535 193.827 391.436C193.897 391.338 193.991 391.26 194.101 391.211C195.065 390.767 197.591 392.406 197.88 392.589C197.912 392.612 197.937 392.642 197.952 392.678C197.967 392.714 197.972 392.753 197.967 392.792C197.958 392.829 197.938 392.863 197.911 392.89C197.884 392.917 197.85 392.936 197.813 392.946C197.094 393.129 196.356 393.229 195.615 393.245ZM194.516 391.529C194.433 391.512 194.348 391.512 194.265 391.529C194.216 391.55 194.174 391.585 194.145 391.629C194.116 391.674 194.101 391.726 194.101 391.779C194.07 391.903 194.071 392.033 194.105 392.157C194.139 392.28 194.204 392.392 194.294 392.483C194.718 392.869 195.808 392.917 197.263 392.628C196.431 392.079 195.496 391.705 194.516 391.529Z" fill="#DA2C38"/>
<path d="M197.774 392.956C197.743 392.965 197.709 392.965 197.678 392.956C196.878 392.503 195.364 390.71 195.557 389.775C195.584 389.619 195.666 389.478 195.788 389.377C195.91 389.277 196.064 389.223 196.222 389.225C196.371 389.205 196.522 389.218 196.666 389.263C196.809 389.308 196.94 389.384 197.051 389.485C197.957 390.286 198.015 392.686 198.015 392.782C198.015 392.817 198.006 392.851 197.99 392.882C197.973 392.912 197.948 392.938 197.919 392.956C197.896 392.966 197.871 392.971 197.846 392.971C197.821 392.971 197.797 392.966 197.774 392.956ZM196.357 389.582H196.261C196.01 389.582 195.962 389.717 195.942 389.813C195.827 390.382 196.771 391.741 197.562 392.368C197.582 391.435 197.313 390.519 196.791 389.746C196.672 389.638 196.517 389.58 196.357 389.582Z" fill="#DA2C38"/>
<path d="M140.098 370.051C139.633 370.081 139.17 369.97 138.768 369.733C138.623 369.631 138.505 369.495 138.424 369.337C138.344 369.18 138.303 369.004 138.305 368.827C138.298 368.717 138.319 368.607 138.366 368.508C138.413 368.408 138.485 368.322 138.575 368.258C139.539 367.583 143.009 368.875 143.395 369.029C143.434 369.044 143.467 369.07 143.49 369.105C143.512 369.14 143.523 369.181 143.52 369.222C143.52 369.263 143.507 369.303 143.483 369.336C143.459 369.369 143.424 369.393 143.385 369.405C142.326 369.774 141.219 369.992 140.098 370.051ZM139.404 368.461C139.194 368.444 138.983 368.488 138.797 368.586C138.762 368.61 138.734 368.644 138.717 368.683C138.7 368.722 138.694 368.765 138.7 368.808C138.696 368.926 138.721 369.043 138.773 369.149C138.825 369.255 138.903 369.346 138.999 369.415C139.549 369.801 140.927 369.724 142.711 369.203C141.648 368.803 140.535 368.553 139.404 368.461Z" fill="#DA2C38"/>
<path d="M143.337 369.415H143.279C142.238 369.087 140.079 367.535 140.127 366.581C140.127 366.349 140.252 366.06 140.792 365.935C140.985 365.893 141.184 365.89 141.377 365.927C141.571 365.963 141.756 366.038 141.92 366.147C143.057 366.889 143.51 369.087 143.53 369.184C143.536 369.217 143.534 369.251 143.524 369.282C143.514 369.314 143.496 369.343 143.472 369.367C143.435 369.4 143.386 369.417 143.337 369.415ZM141.12 366.282C141.04 366.273 140.959 366.273 140.879 366.282C140.522 366.359 140.522 366.504 140.512 366.552C140.512 367.13 141.978 368.374 143.057 368.866C142.867 367.935 142.392 367.086 141.698 366.436C141.52 366.345 141.319 366.305 141.12 366.321V366.282Z" fill="#DA2C38"/>
<path opacity="0.6" d="M178.841 125.783C167.624 123.173 155.91 123.626 144.927 127.093C133.944 130.561 124.095 136.916 116.409 145.495C108.724 154.073 103.485 164.559 101.24 175.855C98.9952 187.152 99.8274 198.844 103.649 209.709L84.9189 229.645L113.251 227.447C119.513 235.646 127.657 242.218 136.995 246.608C146.333 250.997 156.59 253.074 166.899 252.664C177.209 252.253 187.268 249.368 196.227 244.251C205.187 239.134 212.783 231.935 218.374 223.264C223.965 214.593 227.387 204.703 228.351 194.43C229.315 184.158 227.792 173.804 223.911 164.244C220.031 154.684 213.906 146.199 206.055 139.504C198.203 132.81 188.856 128.104 178.803 125.783H178.841Z" fill="#DA2C38"/>
<path opacity="0.1" d="M178.841 125.783C167.624 123.173 155.91 123.626 144.927 127.093C133.944 130.561 124.095 136.916 116.409 145.495C108.724 154.073 103.485 164.559 101.24 175.855C98.9952 187.152 99.8274 198.844 103.649 209.709L84.9189 229.645L113.251 227.447C119.513 235.646 127.657 242.218 136.995 246.607C146.333 250.997 156.59 253.074 166.899 252.664C177.209 252.253 187.268 249.368 196.227 244.251C205.187 239.134 212.783 231.935 218.374 223.264C223.965 214.593 227.387 204.703 228.351 194.43C229.315 184.158 227.792 173.804 223.911 164.244C220.031 154.684 213.906 146.199 206.055 139.504C198.203 132.81 188.856 128.104 178.803 125.783H178.841Z" fill="black"/>
<path d="M164.4 249.589C154.991 249.587 145.707 247.421 137.269 243.257C128.831 239.093 121.464 233.043 115.738 225.576L114.716 224.188L93.1029 225.865C93.0759 225.864 93.0497 225.856 93.0263 225.843C93.0029 225.829 92.9829 225.811 92.9679 225.788C92.9544 225.765 92.9473 225.738 92.9473 225.711C92.9473 225.684 92.9544 225.657 92.9679 225.634L107.245 210.47L106.618 208.668C103.379 199.449 102.395 189.589 103.751 179.913C105.106 170.237 108.76 161.026 114.407 153.053C120.055 145.08 127.53 138.576 136.208 134.086C144.886 129.596 154.514 127.251 164.285 127.248C173.493 127.244 182.583 129.318 190.878 133.316C199.173 137.314 206.459 143.133 212.192 150.338C217.925 157.544 221.958 165.951 223.99 174.932C226.022 183.913 226.001 193.237 223.927 202.209C220.865 215.695 213.301 227.735 202.48 236.348C191.66 244.96 178.23 249.63 164.4 249.589ZM114.774 223.908C114.795 223.909 114.815 223.915 114.833 223.925C114.852 223.935 114.868 223.949 114.88 223.966L115.959 225.383C121.653 232.825 128.985 238.855 137.386 243.006C145.786 247.157 155.03 249.317 164.4 249.319C179.347 249.301 193.765 243.787 204.908 233.826C216.052 223.865 223.143 210.154 224.832 195.303C226.52 180.453 222.688 165.499 214.065 153.291C205.442 141.083 192.631 132.472 178.07 129.099C173.55 128.051 168.925 127.521 164.285 127.518C154.56 127.527 144.978 129.865 136.343 134.338C127.708 138.81 120.269 145.286 114.651 153.224C109.032 161.162 105.397 170.33 104.05 179.961C102.703 189.592 103.683 199.406 106.907 208.581L107.563 210.461C107.577 210.48 107.585 210.504 107.585 210.528C107.585 210.552 107.577 210.576 107.563 210.595L93.4403 225.576L114.764 223.918L114.774 223.908Z" fill="white"/>
<path d="M186.65 177.473C186.801 177.124 186.831 176.735 186.737 176.367C186.643 175.999 186.429 175.672 186.129 175.439C182.803 173.015 179.007 171.311 174.986 170.436C168.097 168.848 160.86 170.058 154.863 173.801C148.866 177.544 144.599 183.514 143 190.4C140.783 199.973 146.037 206.47 152.37 207.935C154.987 208.595 157.723 208.63 160.356 208.035C162.989 207.441 165.445 206.234 167.524 204.513C167.577 206.567 168.331 208.542 169.66 210.109C170.989 211.677 172.813 212.743 174.831 213.131C184.732 215.426 196.83 208.784 200.792 191.663C205.062 173.231 195.075 157.354 176.518 153.103C154.231 147.946 133.331 161.702 127.913 185.108C123.402 204.619 133.9 221.961 152.871 226.357C160.4 228.102 166.579 228.131 172.903 226.463C173.304 226.357 173.652 226.108 173.882 225.764C174.113 225.42 174.21 225.004 174.157 224.593L173.54 219.773C173.506 219.53 173.42 219.296 173.289 219.088C173.158 218.881 172.983 218.703 172.778 218.568C172.574 218.431 172.342 218.34 172.098 218.303C171.855 218.267 171.606 218.285 171.371 218.356C166.309 219.64 161.008 219.64 155.947 218.356C141.178 214.934 133.669 202.18 137.274 186.602C141.612 167.833 157.007 157.046 173.906 160.95C188.192 164.256 194.95 175.41 191.547 190.188C190.053 196.637 186.978 201.689 183.102 204.06C181.679 205.05 179.922 205.435 178.215 205.13C177.959 205.088 177.718 204.985 177.511 204.829C177.304 204.673 177.139 204.468 177.029 204.233C176.615 203.385 176.316 201.081 178.957 195.268L186.65 177.473ZM171.727 178.909C172.805 179.156 173.858 179.504 174.87 179.95L170.667 189.59C168.295 195.162 161.75 200.773 156.882 199.645C152.438 198.623 152.669 194.622 153.199 192.338C155.301 183.218 163.794 177.078 171.727 178.909Z" fill="white"/>
<path d="M224.13 227.736L216.823 223.591L218.375 231.91C218.375 231.91 223.446 233.587 225.952 231.197L224.13 227.736Z" fill="#FF8B7B"/>
<path d="M209.901 224.622L211.579 231.515L218.375 231.91L216.823 223.591L209.901 224.622Z" fill="#FF8B7B"/>
<path d="M229.152 128.771L227.648 128.02C227.648 128.02 228.236 129.408 229.152 128.771Z" fill="#263238"/>
<path d="M239.486 124.964C235.36 124.704 232.333 122.891 231.929 120.51C231.929 120.51 222.462 124.443 218.635 118.582C218.635 118.582 214.316 119.296 213.246 116.288C212.176 113.28 216.668 112.432 218.789 113.782C218.789 113.782 212.215 107.998 218.963 106.388C225.711 104.778 227.157 110.244 227.157 110.244C227.157 110.244 229.817 102.262 235.833 105.809C241.848 109.357 238.108 112.789 238.108 112.789C238.108 112.789 252.394 113.897 247.073 119.537C241.752 125.176 239.486 124.964 239.486 124.964Z" fill="#263238"/>
<path d="M234.319 152.669C235.129 152.746 234.773 155.561 234.406 155.753C233.568 156.206 223.465 154.134 223.802 152.572C224.151 151.822 224.634 151.142 225.229 150.567C225.672 150.239 227.215 152.081 234.319 152.669Z" fill="#263238"/>
<path d="M287.08 174.744C282.991 174.731 279.05 176.272 276.054 179.054C273.058 181.837 271.231 185.653 270.942 189.732C270.653 193.81 271.924 197.846 274.497 201.023C277.071 204.2 280.755 206.281 284.805 206.845C284.885 210.918 283.457 214.877 280.794 217.96C280.794 217.96 303.217 212.379 303.217 190.882C303.217 186.602 301.517 182.497 298.49 179.471C295.464 176.444 291.359 174.744 287.08 174.744Z" fill="#347BB1"/>
<path d="M323.393 174.744C319.304 174.731 315.363 176.272 312.368 179.054C309.372 181.837 307.544 185.653 307.255 189.732C306.966 193.81 308.237 197.846 310.811 201.023C313.384 204.2 317.068 206.281 321.118 206.845C321.212 210.912 319.801 214.87 317.156 217.96C317.156 217.96 339.579 212.379 339.579 190.882C339.58 188.758 339.162 186.655 338.348 184.693C337.535 182.732 336.342 180.95 334.838 179.451C333.334 177.951 331.549 176.764 329.585 175.956C327.621 175.148 325.517 174.737 323.393 174.744Z" fill="#347BB1"/>
</svg>
