<svg width="307" height="307" viewBox="0 0 307 307" fill="none" xmlns="http://www.w3.org/2000/svg">
<path d="M307 234.793H0V234.946H307V234.793Z" fill="#EBEBEB"/>
<path d="M276.239 244.673H255.903V244.826H276.239V244.673Z" fill="#EBEBEB"/>
<path d="M203.369 246.343H198.033V246.496H203.369V246.343Z" fill="#EBEBEB"/>
<path d="M255.289 238.975H243.506V239.128H255.289V238.975Z" fill="#EBEBEB"/>
<path d="M58.7291 240.006H32.2104V240.159H58.7291V240.006Z" fill="#EBEBEB"/>
<path d="M68.0866 240.006H64.2V240.159H68.0866V240.006Z" fill="#EBEBEB"/>
<path d="M138.242 242.597H80.7227V242.75H138.242V242.597Z" fill="#EBEBEB"/>
<path d="M145.518 207.409H26.9607C26.032 207.407 25.1418 207.037 24.4856 206.38C23.8295 205.722 23.4609 204.832 23.4609 203.903V37.2448C23.469 36.3213 23.8411 35.4384 24.4964 34.7877C25.1517 34.137 26.0373 33.7711 26.9607 33.7695H145.518C146.448 33.7695 147.34 34.1389 147.997 34.7964C148.655 35.4539 149.024 36.3456 149.024 37.2755V203.903C149.024 204.833 148.655 205.724 147.997 206.382C147.34 207.039 146.448 207.409 145.518 207.409ZM26.9607 33.8923C26.0727 33.894 25.2216 34.2479 24.5942 34.8764C23.9668 35.5049 23.6144 36.3567 23.6144 37.2448V203.903C23.6144 204.791 23.9668 205.643 24.5942 206.271C25.2216 206.9 26.0727 207.254 26.9607 207.255H145.518C146.407 207.254 147.258 206.9 147.887 206.272C148.515 205.643 148.869 204.791 148.87 203.903V37.2448C148.869 36.3561 148.515 35.5044 147.887 34.876C147.258 34.2477 146.407 33.894 145.518 33.8923H26.9607Z" fill="#EBEBEB"/>
<path d="M278.332 207.409H159.769C158.84 207.407 157.949 207.037 157.292 206.38C156.634 205.723 156.265 204.832 156.263 203.903V37.2448C156.273 36.3208 156.646 35.4378 157.302 34.7873C157.959 34.1368 158.845 33.7711 159.769 33.7695H278.332C279.255 33.7727 280.139 34.1393 280.793 34.7898C281.447 35.4404 281.818 36.3224 281.826 37.2448V203.903C281.826 204.831 281.458 205.72 280.803 206.378C280.149 207.035 279.26 207.405 278.332 207.409ZM159.769 33.8923C158.88 33.894 158.028 34.2477 157.4 34.876C156.772 35.5044 156.418 36.3561 156.416 37.2448V203.903C156.418 204.791 156.772 205.643 157.4 206.272C158.028 206.9 158.88 207.254 159.769 207.255H278.332C279.221 207.254 280.073 206.9 280.701 206.272C281.329 205.643 281.683 204.791 281.685 203.903V37.2448C281.683 36.3561 281.329 35.5044 280.701 34.876C280.073 34.2477 279.221 33.894 278.332 33.8923H159.769Z" fill="#EBEBEB"/>
<path d="M82.8837 122.584H34.697L38.9643 69.5039H78.6103L82.8837 122.584Z" fill="#EBEBEB"/>
<path d="M60.0983 122.585H57.4766V234.793H60.0983V122.585Z" fill="#F5F5F5"/>
<path d="M69.4742 234.794H48.1008C48.1008 234.189 48.3408 233.61 48.768 233.183C49.1952 232.756 49.7746 232.516 50.3788 232.516H67.2024C67.8055 232.517 68.3833 232.758 68.8092 233.185C69.235 233.612 69.4742 234.19 69.4742 234.794Z" fill="#F0F0F0"/>
<path d="M57.4766 126.705L60.0983 124.206V122.585H57.4766V126.705Z" fill="#E0E0E0"/>
<path d="M253.975 47.8301H101.863V120.687H253.975V47.8301Z" fill="#E0E0E0"/>
<path d="M259.562 47.8301H104.3V120.687H259.562V47.8301Z" fill="#F5F5F5"/>
<path d="M112.337 60.5947V107.922L251.531 107.922V60.5947L112.337 60.5947Z" fill="white"/>
<path d="M243.144 234.787H268.232C271.966 234.787 274.992 231.761 274.992 228.027V172.656C274.992 168.923 271.966 165.896 268.232 165.896H243.144C239.41 165.896 236.384 168.923 236.384 172.656V228.027C236.384 231.761 239.41 234.787 243.144 234.787Z" fill="#F5F5F5"/>
<path d="M231.582 234.787H256.671C260.404 234.787 263.431 231.761 263.431 228.027V172.656C263.431 168.923 260.404 165.896 256.671 165.896H231.582C227.849 165.896 224.822 168.923 224.822 172.656V228.027C224.822 231.761 227.849 234.787 231.582 234.787Z" fill="#E6E6E6"/>
<path d="M254.086 165.896H266.224C266.591 165.896 266.887 165.6 266.887 165.233V164.656C266.887 164.29 266.591 163.993 266.224 163.993H254.086C253.719 163.993 253.422 164.29 253.422 164.656V165.233C253.422 165.6 253.719 165.896 254.086 165.896Z" fill="#F5F5F5"/>
<path d="M250.051 165.896H262.19C262.556 165.896 262.853 165.6 262.853 165.233V164.656C262.853 164.29 262.556 163.993 262.19 163.993H250.051C249.685 163.993 249.388 164.29 249.388 164.656V165.233C249.388 165.6 249.685 165.896 250.051 165.896Z" fill="#E6E6E6"/>
<path d="M114.486 234.793L254.521 234.793C256.373 234.793 257.874 233.292 257.874 231.441V206.027C257.874 204.176 256.373 202.675 254.521 202.675H114.486C112.635 202.675 111.134 204.176 111.134 206.027V231.441C111.134 233.292 112.635 234.793 114.486 234.793Z" fill="#F0F0F0"/>
<path d="M101.132 143.325H220.426C224.177 143.325 227.481 146.714 227.794 150.89L230.968 192.795C231.288 196.97 228.512 200.36 224.742 200.36H105.436C101.678 200.36 98.3811 196.97 98.068 192.795L94.912 150.902C94.5866 146.745 97.3803 143.325 101.132 143.325Z" fill="#EBEBEB"/>
<path d="M110.36 143.325H229.667C233.424 143.325 236.722 146.714 237.035 150.89L240.197 192.795C240.51 196.97 237.741 200.36 233.965 200.36H114.658C110.901 200.36 107.603 196.97 107.29 192.795L104.128 150.902C103.815 146.745 106.603 143.325 110.36 143.325Z" fill="#FAFAFA"/>
<path d="M177.041 192.795L173.879 150.908C173.578 146.935 170.446 143.7 166.897 143.7V142.92C170.845 142.92 174.327 146.475 174.658 150.847L177.814 192.74L177.041 192.795Z" fill="#F0F0F0"/>
<path d="M104.558 234.787H129.646C133.38 234.787 136.406 231.761 136.406 228.027V172.656C136.406 168.923 133.38 165.896 129.646 165.896H104.558C100.825 165.896 97.7979 168.923 97.7979 172.656V228.027C97.7979 231.761 100.825 234.787 104.558 234.787Z" fill="#F5F5F5"/>
<path d="M132.771 205.598L257.671 205.598C259.882 205.598 261.675 203.805 261.675 201.594V191.813C261.675 189.602 259.882 187.81 257.671 187.81H132.771C130.56 187.81 128.768 189.602 128.768 191.813V201.594C128.768 203.805 130.56 205.598 132.771 205.598Z" fill="#F5F5F5"/>
<path d="M191.421 205.984V205.211C193.299 205.211 194.828 203.485 194.828 201.373V192.034C194.828 189.916 193.299 188.197 191.421 188.197V187.417C193.729 187.417 195.608 189.486 195.608 192.034V201.392C195.608 203.915 193.729 205.984 191.421 205.984Z" fill="#EBEBEB"/>
<path d="M93.0027 234.787H118.091C121.824 234.787 124.851 231.761 124.851 228.027L124.851 172.656C124.851 168.923 121.824 165.896 118.091 165.896H93.0027C89.2691 165.896 86.2425 168.923 86.2425 172.656V228.027C86.2425 231.761 89.2691 234.787 93.0027 234.787Z" fill="#E6E6E6"/>
<path d="M214.636 140.66C231.392 142.165 234.02 163.262 235.205 171.231C236.39 179.201 221.384 170.931 212.027 171.845C202.669 172.76 199.624 176.407 189.186 174.737C178.748 173.067 174.388 171.888 167.211 173.073C160.033 174.258 147.409 174.688 146.108 172.429C144.88 170.347 141.49 148.446 134.853 144.056C133.785 143.35 134.19 142.349 135.719 141.894C148.33 138.149 199.55 139.31 214.636 140.66Z" fill="#E6E6E6"/>
<path d="M153.5 262.522C219.249 262.522 272.549 259.41 272.549 255.572C272.549 251.733 219.249 248.621 153.5 248.621C87.7515 248.621 34.4517 251.733 34.4517 255.572C34.4517 259.41 87.7515 262.522 153.5 262.522Z" fill="#F5F5F5"/>
<path d="M243.807 78.3527C243.823 76.8134 243.48 75.2915 242.806 73.9074C242.229 72.8943 240.694 70.2234 221.556 70.2234V69.6094C241.05 69.6094 242.597 72.3233 243.34 73.6249C244.063 75.0952 244.431 76.7145 244.415 78.3527H243.807Z" fill="#347BB1"/>
<path d="M243.107 88.9813L242.493 88.8401C242.946 86.9133 243.298 84.9643 243.549 83.001L244.163 83.0808C243.918 85.0652 243.565 87.0349 243.107 88.9813Z" fill="#347BB1"/>
<path d="M241.474 74.6631C238.901 70.144 202.681 71.7159 195.964 73.6438C186.877 76.2595 182.794 99.7204 182.1 105.381C182.1 105.381 187.436 99.7818 192.139 98.3635C194.38 99.1494 219.081 103.466 223.68 104.694C228.936 106.1 234.517 104.694 237.084 100.113C239.65 95.5329 244.157 79.3847 241.474 74.6631Z" fill="#347BB1"/>
<path d="M233.351 81.2019C233.277 81.208 233.203 81.208 233.13 81.2019C215.999 78.7459 196.173 80.4958 195.976 80.5142C195.775 80.5324 195.572 80.5106 195.379 80.4502C195.185 80.3899 195.006 80.292 194.851 80.1623C194.695 80.0326 194.567 79.8736 194.473 79.6943C194.379 79.515 194.321 79.3189 194.303 79.1174C194.285 78.9158 194.307 78.7126 194.367 78.5194C194.428 78.3263 194.526 78.1469 194.655 77.9915C194.785 77.8361 194.944 77.7078 195.123 77.6139C195.303 77.52 195.499 77.4624 195.7 77.4442C195.903 77.4442 216.085 75.6575 233.566 78.1503C233.973 78.1788 234.352 78.3679 234.62 78.6759C234.887 78.9839 235.022 79.3857 234.993 79.7928C234.965 80.1999 234.776 80.579 234.468 80.8467C234.16 81.1144 233.758 81.2488 233.351 81.2203V81.2019Z" fill="white"/>
<path d="M230.864 89.4173C230.774 89.4264 230.684 89.4264 230.594 89.4173C218.228 87.3056 205.676 86.4826 193.14 86.9613C192.733 86.9858 192.333 86.8475 192.027 86.5769C191.722 86.3063 191.537 85.9255 191.513 85.5184C191.488 85.1113 191.627 84.7112 191.897 84.406C192.168 84.1009 192.549 83.9158 192.956 83.8913C205.728 83.386 218.519 84.2091 231.122 86.3473C231.323 86.3643 231.52 86.4207 231.7 86.5135C231.879 86.6063 232.039 86.7336 232.17 86.8881C232.3 87.0426 232.399 87.2213 232.46 87.414C232.522 87.6068 232.545 87.8097 232.528 88.0113C232.511 88.2128 232.455 88.4091 232.362 88.5889C232.269 88.7686 232.142 88.9284 231.987 89.0589C231.833 89.1895 231.654 89.2883 231.461 89.3498C231.269 89.4113 231.066 89.4343 230.864 89.4173Z" fill="white"/>
<path d="M220.721 97.8288C220.578 97.8286 220.435 97.81 220.297 97.7735C210.911 95.1485 201.181 93.9664 191.439 94.2676C191.032 94.2936 190.631 94.1569 190.325 93.8874C190.019 93.618 189.832 93.2379 189.806 92.8308C189.78 92.4237 189.917 92.0229 190.186 91.7166C190.455 91.4103 190.836 91.2236 191.243 91.1976C201.335 90.8432 211.421 92.0633 221.138 94.814C221.493 94.9173 221.798 95.1448 221.998 95.4547C222.198 95.7646 222.28 96.1363 222.229 96.5017C222.177 96.8671 221.996 97.2017 221.718 97.4442C221.44 97.6868 221.084 97.8212 220.715 97.8226L220.721 97.8288Z" fill="white"/>
<path d="M68.3749 69.0441C70.3458 64.2303 95.9066 61.8603 102.814 62.9041C112.159 64.3286 119.441 88.7351 120.62 95.4461C120.62 95.4461 114.615 90.5709 109.765 89.7727C107.646 90.8349 94.519 95.4829 89.871 96.5267C84.5599 97.6995 79.1199 97.8959 75.9885 93.6962C72.8571 89.4964 66.3118 74.0666 68.3749 69.0441Z" fill="#DA2C38"/>
<path opacity="0.1" d="M102.814 62.9105C95.9067 61.8544 70.3459 64.2306 68.3811 69.0505C68.0063 70.1682 67.8867 71.3558 68.0311 72.5258C72.9431 80.2929 80.4708 86.2609 89.1159 86.6478C99.6091 86.9916 110.035 81.8033 114.081 75.6633C111.036 69.1733 107.155 63.5736 102.814 62.9105Z" fill="black"/>
<path d="M113.158 70.8072C119.245 63.0322 117.877 51.7943 110.102 45.7067C102.328 39.6191 91.0897 40.987 85.0021 48.762C78.9145 56.537 80.2824 67.7748 88.0573 73.8624C95.8323 79.95 107.07 78.5821 113.158 70.8072Z" fill="#347BB1"/>
<path opacity="0.4" d="M113.158 70.8072C119.245 63.0322 117.877 51.7943 110.102 45.7067C102.328 39.6191 91.0897 40.987 85.0021 48.762C78.9145 56.537 80.2824 67.7748 88.0573 73.8624C95.8323 79.95 107.07 78.5821 113.158 70.8072Z" fill="white"/>
<path d="M98.2398 54.2279C98.4547 54.6639 97.8039 55.3577 96.7846 55.7752C95.7654 56.1927 94.7707 56.1866 94.5497 55.7752C94.3286 55.3638 94.9856 54.6454 96.0048 54.2279C97.0241 53.8104 98.0065 53.7981 98.2398 54.2279Z" fill="#347BB1"/>
<path d="M93.4629 49.844C94.6158 49.4038 95.8391 49.177 97.0732 49.1747C97.6895 49.1671 98.3054 49.2082 98.9152 49.2975C99.5427 49.3878 100.16 49.54 100.757 49.7519C100.901 49.7874 101.027 49.8735 101.112 49.9944C101.197 50.1153 101.236 50.2628 101.221 50.41C101.206 50.5571 101.138 50.6939 101.031 50.7952C100.923 50.8965 100.782 50.9556 100.634 50.9615C100.155 51.0167 99.6213 51.1211 99.1117 51.2255C98.6021 51.3299 98.0986 51.4895 97.5951 51.6553C96.5711 51.9952 95.5998 52.4767 94.7093 53.0859C94.9996 52.5892 95.3617 52.1382 95.7838 51.7474C96.2189 51.3704 96.6946 51.0429 97.2021 50.7711C97.7108 50.5002 98.2431 50.2762 98.7924 50.1019C99.3485 49.9141 99.9226 49.7844 100.505 49.715L100.34 50.8939C99.808 50.7181 99.2668 50.5726 98.7187 50.458C98.1538 50.329 97.589 50.2369 97.0118 50.1571C96.4346 50.0773 95.8513 50.0036 95.2619 49.9668C94.6725 49.9299 94.0769 49.8992 93.4629 49.844Z" fill="#263238"/>
<path d="M110.25 46.2651C109.93 46.4174 109.622 46.5939 109.329 46.7931C109.053 46.969 108.798 47.1749 108.567 47.4071C108.342 47.6322 108.136 47.8767 107.953 48.1378C107.773 48.3864 107.617 48.6516 107.487 48.9298L106.768 48.3158C107.148 48.0806 107.563 47.9066 107.996 47.8001C108.419 47.6909 108.856 47.6454 109.292 47.665C110.145 47.6835 110.969 47.9811 111.637 48.5123C111.249 48.4303 110.855 48.3769 110.459 48.3527C110.081 48.3288 109.703 48.3452 109.329 48.4018C108.965 48.457 108.607 48.5475 108.26 48.672C107.927 48.7912 107.606 48.9434 107.303 49.1263C107.249 49.1603 107.188 49.1832 107.126 49.1938C107.063 49.2045 106.998 49.2026 106.936 49.1884C106.874 49.1741 106.815 49.1477 106.763 49.1108C106.711 49.0738 106.667 49.0269 106.633 48.9728C106.599 48.9043 106.581 48.8286 106.581 48.7518C106.581 48.675 106.599 48.5993 106.633 48.5307C106.783 48.1606 106.99 47.8165 107.247 47.5115C107.484 47.2347 107.759 46.9928 108.064 46.7931C108.387 46.5838 108.741 46.4283 109.114 46.3326C109.485 46.2408 109.87 46.2179 110.25 46.2651Z" fill="#263238"/>
<path d="M113.056 50.808C113.099 51.2747 112.288 51.7229 111.214 51.815C110.139 51.9071 109.292 51.5755 109.255 51.1273C109.218 50.6791 110.023 50.2125 111.066 50.1204C112.11 50.0283 113.007 50.3475 113.056 50.808Z" fill="#347BB1"/>
<path d="M98.6881 56.5858C102.843 54.4895 107.354 53.188 111.987 52.7483C112.169 52.734 112.35 52.7895 112.493 52.9035C112.635 53.0176 112.729 53.1816 112.755 53.3623C113.264 58.5936 103.704 61.3443 98.6328 57.6603C98.5394 57.6024 98.4632 57.5205 98.4121 57.4232C98.3611 57.3258 98.3372 57.2165 98.3429 57.1067C98.3485 56.9969 98.3835 56.8907 98.4442 56.7991C98.505 56.7074 98.5892 56.6338 98.6881 56.5858Z" fill="#263238"/>
<path d="M108.217 55.6344C107.89 55.8029 107.583 56.0089 107.303 56.2484C106.402 56.0447 105.458 56.1666 104.638 56.5922C104.087 56.8255 103.6 57.1867 103.217 57.6458C102.833 58.105 102.565 58.6489 102.434 59.2324C103.652 59.4386 104.895 59.4511 106.118 59.2693C107.043 59.1399 107.948 58.8966 108.813 58.5448C110.123 58.068 111.262 57.2133 112.086 56.0888C111.367 55.0941 109.746 54.8976 108.217 55.6344Z" fill="#347BB1"/>
<path d="M146.519 21.0971C138.457 12.9247 120.436 18.7147 127.307 30.086C134.177 41.4573 149.546 49.734 152.548 54.075C154.593 45.215 160.291 39.5662 163.993 32.1613C167.696 24.7565 157.97 13.8334 146.519 21.0971Z" fill="#DA2C38"/>
<path opacity="0.3" d="M146.519 21.0971C138.457 12.9247 120.436 18.7147 127.307 30.086C134.177 41.4573 149.546 49.734 152.548 54.075C154.593 45.215 160.291 39.5662 163.993 32.1613C167.696 24.7565 157.97 13.8334 146.519 21.0971Z" fill="black"/>
<path d="M176.635 193.767H181.449L201.3 255.572H199.691L176.635 193.767Z" fill="#DA2C38"/>
<path d="M157.172 193.767H161.992L169.507 255.572H167.898L157.172 193.767Z" fill="#DA2C38"/>
<path d="M129.124 193.767H124.304L104.46 255.572H106.068L129.124 193.767Z" fill="#DA2C38"/>
<path d="M148.582 193.767H143.768L136.253 255.572H137.861L148.582 193.767Z" fill="#DA2C38"/>
<path d="M172.491 207.465C149.245 207.735 116.206 206.962 101.598 178.355C91.7008 158.971 81.1154 117.803 110.115 106.032C139.114 94.262 183.647 107.549 183.224 130.341C182.8 153.132 206.691 158.714 214.538 174.229C224.233 193.503 203.123 207.109 172.491 207.465Z" fill="#347BB1"/>
<path opacity="0.7" d="M172.491 207.465C149.245 207.735 116.206 206.962 101.598 178.355C91.7008 158.971 81.1154 117.803 110.115 106.032C139.114 94.262 183.647 107.549 183.224 130.341C182.8 153.132 206.691 158.714 214.538 174.229C224.233 193.503 203.123 207.109 172.491 207.465Z" fill="white"/>
<path opacity="0.3" d="M196.885 185.759C196.639 189.29 179.853 190.997 159.394 189.572C138.936 188.148 126.005 187.067 122.259 179.012C114.707 162.759 113.731 115.156 134.196 116.592C154.66 118.029 197.131 182.229 196.885 185.759Z" fill="#347BB1"/>
<path d="M166.062 115.205L166.222 116.304L166.412 117.477L166.824 119.847C167.124 121.425 167.438 123.009 167.788 124.581C168.478 127.693 169.331 130.767 170.342 133.791C170.606 134.528 170.845 135.289 171.146 136.007C171.447 136.726 171.687 137.481 172.012 138.181C172.337 138.881 172.626 139.667 172.853 140.164C172.97 140.428 173.062 140.655 173.111 140.778C173.16 140.901 173.191 140.913 172.675 140.649C172.167 140.41 171.608 140.301 171.048 140.33C170.668 140.352 170.294 140.44 169.943 140.588C169.8 140.654 169.66 140.727 169.525 140.809C169.42 140.879 169.32 140.954 169.224 141.036C169.033 141.175 168.885 141.364 168.795 141.583C168.795 141.662 168.795 141.668 168.862 141.625C169.218 141.186 169.498 140.69 169.691 140.158C170.274 138.844 170.778 137.223 171.318 135.725L176.445 135.977C176.783 137.856 176.898 139.768 176.789 141.675C176.726 142.836 176.495 143.982 176.101 145.076C175.952 145.478 175.765 145.864 175.542 146.23C175.202 146.797 174.766 147.3 174.253 147.716C174.072 147.862 173.881 147.995 173.682 148.115C173.458 148.256 173.222 148.375 172.976 148.472C172.429 148.703 171.844 148.834 171.251 148.858C170.263 148.895 169.283 148.666 168.414 148.195C167.544 147.722 166.764 147.098 166.111 146.353C165.688 145.884 165.298 145.385 164.945 144.861C164.395 144.04 163.896 143.185 163.453 142.301C162.581 140.674 161.794 139.004 161.095 137.297C159.709 133.948 158.57 130.503 157.687 126.988C157.239 125.244 156.865 123.488 156.533 121.72C156.367 120.835 156.22 119.951 156.085 119.055C156.023 118.607 155.962 118.152 155.907 117.698C155.851 117.244 155.802 116.814 155.747 116.261L166.062 115.205Z" fill="#FF8B7B"/>
<path d="M152.769 113.504C149.644 119.325 157.485 134.749 157.485 134.749L171.607 127.068C171.607 127.068 170.545 122.985 167.057 115.175C163.232 106.671 156.57 106.45 152.769 113.504Z" fill="#263238"/>
<path d="M171.085 137.395L171.361 130.481L179.233 133.128C179.233 133.128 178.22 139.378 174.818 139.378L171.085 137.395Z" fill="#FF8B7B"/>
<path d="M176.611 125.563L179.214 126.957C179.715 127.227 180.103 127.666 180.311 128.195C180.519 128.725 180.533 129.311 180.35 129.849L179.233 133.128L171.361 130.482L173.338 126.595C173.483 126.31 173.684 126.058 173.928 125.851C174.171 125.645 174.454 125.49 174.758 125.394C175.063 125.298 175.384 125.263 175.702 125.292C176.02 125.321 176.329 125.414 176.611 125.563Z" fill="#FF8B7B"/>
<path d="M160.18 108.457C152.318 106.76 144.238 106.303 136.234 107.1C133.715 107.356 131.356 108.455 129.539 110.219C127.722 111.983 126.555 114.309 126.226 116.82C123.027 141.005 125.053 153.869 124.9 160.488L161.353 163.717C161.058 156.791 161.611 138.715 165.037 115.494C165.267 113.924 164.894 112.326 163.992 111.02C163.091 109.715 161.729 108.799 160.18 108.457Z" fill="#263238"/>
<path d="M190.088 190.623L196.928 190.789L199.832 175.027L192.986 174.855L190.088 190.623Z" fill="#FF8B7B"/>
<path d="M197.898 189.591L190.788 187.344C190.664 187.3 190.528 187.305 190.407 187.358C190.287 187.41 190.19 187.506 190.137 187.626L187.589 193.208C187.529 193.35 187.499 193.504 187.501 193.658C187.503 193.813 187.537 193.966 187.601 194.106C187.665 194.247 187.757 194.373 187.873 194.476C187.988 194.58 188.124 194.658 188.271 194.706C190.849 195.467 191.721 195.529 194.945 196.548C198.715 197.739 200.231 198.648 204.652 200.048C207.323 200.889 208.649 198.341 207.587 197.721C204.235 195.768 200.471 192.686 199.353 190.61C199.016 190.098 198.495 189.734 197.898 189.591Z" fill="#263238"/>
<path opacity="0.2" d="M199.826 175.033L198.334 183.156L191.488 182.985L192.98 174.861L199.826 175.033Z" fill="black"/>
<path d="M202.927 134.043C194.558 129.861 173.32 152.352 146.39 162.391C145.806 172.663 157.313 177.95 169.63 176.452C181.83 174.966 186.337 168.5 190.088 159.597C187.976 168.74 189.984 178.238 189.984 178.238L200.6 181.235C200.6 181.235 210.602 137.862 202.927 134.043Z" fill="#347BB1"/>
<path opacity="0.2" d="M202.927 134.043C194.558 129.861 173.32 152.352 146.39 162.391C145.806 172.663 157.313 177.95 169.63 176.452C181.83 174.966 186.337 168.5 190.088 159.597C187.976 168.74 189.984 178.238 189.984 178.238L200.6 181.235C200.6 181.235 210.602 137.862 202.927 134.043Z" fill="black"/>
<path d="M201.828 182.555L188.117 181.29L187.823 176.777L203.13 177.95L201.828 182.555Z" fill="#263238"/>
<path d="M197.094 189.572C197.068 189.557 197.047 189.535 197.032 189.51C197.017 189.484 197.009 189.455 197.008 189.425C197.008 189.391 197.019 189.358 197.039 189.331C197.059 189.304 197.086 189.283 197.118 189.272C197.444 189.155 200.366 188.16 201.122 188.737C201.193 188.791 201.25 188.862 201.285 188.944C201.321 189.026 201.334 189.115 201.324 189.204C201.321 189.351 201.282 189.495 201.21 189.623C201.138 189.752 201.036 189.861 200.913 189.941C200.078 190.493 198.174 189.941 197.118 189.579L197.094 189.572ZM200.87 188.958C200.385 188.707 198.831 189.063 197.683 189.419C199.145 189.879 200.268 189.972 200.753 189.665C200.834 189.61 200.901 189.537 200.948 189.452C200.995 189.366 201.021 189.271 201.023 189.173C201.029 189.138 201.025 189.102 201.011 189.069C200.997 189.037 200.973 189.009 200.944 188.989L200.87 188.958Z" fill="#347BB1"/>
<path d="M197.094 189.573L197.057 189.542C197.036 189.523 197.022 189.498 197.014 189.471C197.006 189.444 197.006 189.416 197.014 189.389C197.014 189.315 197.468 187.516 198.432 186.933C198.569 186.846 198.721 186.788 198.881 186.763C199.04 186.737 199.203 186.745 199.359 186.785C199.795 186.89 199.888 187.135 199.894 187.319C199.894 188.099 198.082 189.339 197.217 189.585C197.176 189.597 197.132 189.593 197.094 189.573ZM199.439 187.148C199.388 187.123 199.335 187.105 199.28 187.092C199.164 187.065 199.045 187.06 198.928 187.079C198.811 187.098 198.699 187.14 198.598 187.203C197.984 187.59 197.573 188.646 197.413 189.168C198.316 188.781 199.581 187.786 199.568 187.326C199.55 187.27 199.55 187.215 199.409 187.148H199.439Z" fill="#347BB1"/>
<path d="M154.845 108.727C150.823 106.928 151.541 104.521 152.861 101.887L144.401 94.1816C144.701 97.5648 144.64 103.226 142.307 106.185C141.936 106.638 141.752 107.215 141.794 107.798C141.835 108.381 142.097 108.927 142.528 109.323C145.183 111.793 148.513 113.417 152.094 113.989C156.226 114.714 157.147 112.976 156.877 111.226C156.773 110.673 156.533 110.155 156.178 109.719C155.823 109.282 155.365 108.942 154.845 108.727Z" fill="#FF8B7B"/>
<path opacity="0.2" d="M147.851 97.3252C146.948 97.0121 146.746 98.2401 146.746 99.9716C146.746 101.703 149.687 104.748 151.897 104.484C152.094 103.576 152.423 102.7 152.874 101.887L147.851 97.3252Z" fill="black"/>
<path d="M162.636 91.7009C164.963 89.4537 167.941 83.2461 167.321 80.1823C164.924 79.0575 162.22 78.7699 159.64 79.3656C157.494 80.018 155.486 81.0586 153.715 82.4356L157.485 85.653L157.411 87.8265L159.511 90.1536L158.897 92.2535C158.844 92.4388 158.845 92.6357 158.902 92.8199C158.959 93.0042 159.069 93.1677 159.218 93.2904C159.367 93.4131 159.548 93.4896 159.74 93.5105C159.932 93.5313 160.125 93.4956 160.297 93.4078L162.636 91.7009Z" fill="#263238"/>
<path d="M146.064 83.6824C144.314 90.2338 142.951 93.9853 145.106 98.3386C148.348 104.884 157.294 104.528 160.978 98.6149C164.294 93.2915 166.597 83.4736 161.138 78.8686C159.929 77.8496 158.482 77.1538 156.931 76.8464C155.381 76.5389 153.777 76.63 152.271 77.1109C150.765 77.5918 149.406 78.4469 148.32 79.5962C147.235 80.7455 146.459 82.1514 146.064 83.6824Z" fill="#FF8B7B"/>
<path d="M143.062 87.6245C142.724 83.5782 142.448 80.5328 142.448 76.9593C144.216 76.5111 146.942 75.2954 149.816 76.6462C151.806 77.6846 153.59 79.0789 155.078 80.76L150.78 83.216L150.461 85.3711L148.005 87.2806L148.226 89.4542C148.245 89.646 148.208 89.8393 148.119 90.0103C148.03 90.1812 147.892 90.3224 147.724 90.4164C147.556 90.5103 147.363 90.553 147.171 90.5391C146.979 90.5253 146.795 90.4555 146.642 90.3384L143.062 87.6245Z" fill="#263238"/>
<path d="M167.327 82.1352C170.44 80.5081 174.695 72.6427 167.401 72.9743C162.691 73.1892 156.92 73.8155 152.014 71.0586C152.014 71.0586 153.438 73.5146 157.098 73.8339C165.049 74.5584 165.301 73.269 167.677 73.8339C171.858 74.7426 167.327 82.1352 167.327 82.1352Z" fill="#263238"/>
<path d="M167.954 75.0371C162.704 72.1083 156.938 74.3863 152.475 72.6916C148.011 70.997 143.216 73.6495 142.405 76.9896L155.06 80.7903C159.855 84.2348 160.954 84.9532 163.582 84.1734C167.401 83.0191 173.197 77.9782 167.954 75.0371Z" fill="#263238"/>
<path d="M143.479 76.2588C141.232 76.6763 140.035 78.6472 141.975 81.1708C141.269 78.4508 143.43 77.5236 143.43 77.5236L143.479 76.2588Z" fill="#263238"/>
<path d="M140.907 88.9814C141.052 89.8121 141.36 90.606 141.813 91.3172C142.266 92.0285 142.855 92.6432 143.547 93.1259C145.389 94.403 147.084 92.9171 147.194 90.7804C147.286 88.8586 146.433 85.8684 144.259 85.4509C142.086 85.0334 140.569 86.9245 140.907 88.9814Z" fill="#FF8B7B"/>
<path d="M154.826 88.2134C154.654 88.7353 154.789 89.2511 155.133 89.3616C155.477 89.4721 155.895 89.1405 156.073 88.6186C156.251 88.0967 156.109 87.581 155.766 87.4705C155.422 87.3599 155.004 87.6915 154.826 88.2134Z" fill="#263238"/>
<path d="M161.181 90.5777C161.009 91.0996 161.144 91.6153 161.488 91.7258C161.832 91.8364 162.249 91.5048 162.427 90.9829C162.605 90.461 162.464 89.9452 162.12 89.8347C161.777 89.7242 161.359 90.0558 161.181 90.5777Z" fill="#263238"/>
<path d="M159.21 90.2588C159.21 90.2588 159.394 93.6603 160.223 95.5453C158.995 96.1041 157.558 95.2015 157.558 95.2015L159.21 90.2588Z" fill="#FF5652"/>
<path d="M154.875 95.846C154.314 95.589 153.812 95.2193 153.4 94.7598C152.988 94.3003 152.675 93.7608 152.481 93.1751C152.475 93.1545 152.473 93.133 152.476 93.1119C152.479 93.0907 152.486 93.0703 152.496 93.0518C152.507 93.0332 152.521 93.017 152.538 93.0039C152.554 92.9908 152.574 92.9812 152.594 92.9755C152.615 92.9699 152.636 92.9683 152.657 92.971C152.679 92.9736 152.699 92.9804 152.718 92.991C152.736 93.0015 152.752 93.0156 152.765 93.0325C152.779 93.0493 152.788 93.0685 152.794 93.0891C153.021 93.7345 153.398 94.3172 153.893 94.7898C154.388 95.2624 154.987 95.6116 155.643 95.8091C155.664 95.8146 155.683 95.8244 155.7 95.8379C155.716 95.8513 155.73 95.8681 155.74 95.8872C155.75 95.9063 155.756 95.9273 155.757 95.9487C155.758 95.9702 155.755 95.9916 155.747 96.0117C155.741 96.032 155.731 96.0508 155.717 96.0671C155.703 96.0834 155.687 96.0968 155.668 96.1065C155.649 96.1162 155.628 96.1221 155.607 96.1237C155.586 96.1254 155.565 96.1228 155.545 96.1161C155.315 96.0432 155.091 95.9529 154.875 95.846Z" fill="#263238"/>
<path d="M154.003 85.0643C153.952 85.038 153.908 85.0002 153.874 84.9538C153.827 84.8827 153.81 84.7959 153.826 84.7121C153.842 84.6282 153.89 84.5541 153.96 84.5056C154.378 84.2024 154.863 84.0031 155.373 83.9241C155.883 83.845 156.405 83.8886 156.895 84.0512C156.936 84.0673 156.972 84.0912 157.003 84.1216C157.035 84.1519 157.059 84.188 157.076 84.228C157.094 84.2679 157.103 84.3108 157.103 84.3542C157.104 84.3976 157.096 84.4407 157.079 84.481C157.063 84.5213 157.039 84.5581 157.009 84.5891C156.979 84.6202 156.943 84.645 156.903 84.6621C156.863 84.6792 156.82 84.6883 156.777 84.6888C156.733 84.6894 156.69 84.6813 156.65 84.6652C156.26 84.5421 155.847 84.5124 155.444 84.5785C155.041 84.6446 154.659 84.8048 154.329 85.0459C154.281 85.0785 154.226 85.0975 154.169 85.1008C154.111 85.104 154.054 85.0914 154.003 85.0643Z" fill="#263238"/>
<path d="M164.552 88.944C164.501 88.9274 164.454 88.8978 164.418 88.8579C164.381 88.8181 164.355 88.7695 164.343 88.7169C164.257 88.3202 164.076 87.9502 163.816 87.6382C163.556 87.3261 163.226 87.0812 162.851 86.924C162.772 86.8936 162.708 86.8336 162.673 86.7569C162.637 86.6802 162.633 86.5926 162.661 86.5128C162.689 86.433 162.747 86.3672 162.823 86.3294C162.898 86.2915 162.985 86.2846 163.066 86.31C163.541 86.5039 163.963 86.8093 164.295 87.2004C164.628 87.5916 164.861 88.0569 164.976 88.5572C164.994 88.641 164.98 88.7287 164.935 88.802C164.891 88.8753 164.819 88.9284 164.736 88.9502C164.676 88.9666 164.611 88.9645 164.552 88.944Z" fill="#263238"/>
<path d="M213.297 245.815L218.909 241.898L211.904 227.481L206.292 231.399L213.297 245.815Z" fill="#FF8B7B"/>
<path d="M218.762 240.037L211.947 243.058C211.824 243.108 211.725 243.202 211.669 243.321C211.613 243.441 211.605 243.577 211.646 243.703L213.426 249.573C213.476 249.719 213.555 249.854 213.659 249.969C213.763 250.083 213.89 250.175 214.031 250.238C214.173 250.301 214.326 250.334 214.481 250.334C214.635 250.335 214.789 250.304 214.931 250.242C217.387 249.112 218.056 248.578 221.15 247.215C224.767 245.612 226.505 245.293 230.747 243.414C233.308 242.278 232.589 239.491 231.41 239.73C227.604 240.479 222.741 240.657 220.53 239.841C219.937 239.683 219.306 239.753 218.762 240.037Z" fill="#263238"/>
<path opacity="0.2" d="M211.904 227.487L215.514 234.917L209.902 238.834L206.292 231.405L211.904 227.487Z" fill="black"/>
<path d="M181.652 189.609C135.485 188.166 123.936 188.559 124.912 160.487L148.373 162.569C148.373 162.569 189.265 165.092 194.337 178.705C201.963 199.182 215.882 230.735 215.882 230.735L206.672 236.826C206.672 236.826 187.761 213.709 181.652 189.609Z" fill="#347BB1"/>
<path d="M217.97 232.362L206.181 239.472L203.265 236.009L216.294 227.88L217.97 232.362Z" fill="#263238"/>
<path d="M218.13 240.578C218.099 240.585 218.068 240.583 218.039 240.573C218.01 240.563 217.984 240.546 217.964 240.523C217.946 240.496 217.936 240.464 217.936 240.431C217.936 240.398 217.946 240.366 217.964 240.339C218.136 240.032 219.665 237.361 220.616 237.269C220.705 237.263 220.794 237.28 220.874 237.317C220.955 237.355 221.024 237.412 221.077 237.484C221.171 237.596 221.237 237.73 221.268 237.873C221.299 238.016 221.294 238.165 221.255 238.306C220.991 239.276 219.21 240.148 218.185 240.547L218.13 240.578ZM220.555 237.625C220.027 237.754 219.093 239.049 218.473 240.081C219.873 239.467 220.776 238.785 220.929 238.239C220.954 238.145 220.955 238.046 220.934 237.951C220.913 237.856 220.869 237.767 220.807 237.692C220.787 237.662 220.759 237.638 220.727 237.623C220.694 237.608 220.658 237.602 220.622 237.606L220.555 237.625Z" fill="#347BB1"/>
<path d="M218.129 240.578H218.08C218.052 240.578 218.024 240.57 218 240.555C217.976 240.54 217.957 240.518 217.945 240.492C217.908 240.424 217.049 238.785 217.38 237.711C217.428 237.554 217.506 237.409 217.612 237.284C217.718 237.16 217.848 237.058 217.994 236.986C218.393 236.777 218.608 236.894 218.75 237.029C219.278 237.606 218.75 239.743 218.24 240.504C218.228 240.524 218.212 240.54 218.193 240.553C218.174 240.566 218.152 240.574 218.129 240.578ZM218.283 237.207C218.229 237.222 218.177 237.245 218.129 237.275C218.023 237.328 217.928 237.403 217.852 237.495C217.776 237.587 217.72 237.694 217.687 237.809C217.472 238.515 217.872 239.565 218.099 240.062C218.522 239.178 218.811 237.606 218.492 237.25C218.473 237.226 218.424 237.176 218.283 237.207Z" fill="#347BB1"/>
<path d="M178.674 128.535L171.306 128.419C171.044 128.412 170.783 128.459 170.54 128.557C170.298 128.655 170.077 128.803 169.894 128.99L160.727 141.27C160.63 141.392 160.583 141.545 160.596 141.7C160.609 141.855 160.679 142 160.794 142.105C161.028 142.344 161.322 142.283 161.771 142.289L169.022 142.399C169.284 142.407 169.546 142.361 169.79 142.264C170.034 142.167 170.255 142.021 170.44 141.835L179.509 129.696C179.822 129.284 179.865 128.535 178.674 128.535Z" fill="#DA2C38"/>
<path d="M140.213 115.285L140.33 116.746L140.471 118.288C140.575 119.319 140.686 120.351 140.809 121.358C141.06 123.421 141.337 125.484 141.699 127.498C142.331 131.485 143.317 135.407 144.646 139.219C144.965 140.134 145.352 141.03 145.727 141.865C145.899 142.301 145.978 142.393 145.954 142.479C145.929 142.565 146.095 142.713 146.617 142.743C147.313 142.763 148.007 142.672 148.674 142.473C149.539 142.225 150.386 141.919 151.21 141.558C152.088 141.171 152.972 140.723 153.862 140.244C154.752 139.765 155.643 139.25 156.521 138.697C157.399 138.144 158.308 137.573 159.118 137.039L162.691 140.723C161.918 141.693 161.181 142.534 160.358 143.388C159.536 144.241 158.707 145.04 157.804 145.813C156.894 146.616 155.937 147.362 154.937 148.048C153.878 148.793 152.756 149.444 151.584 149.995C150.225 150.64 148.776 151.077 147.286 151.29C146.379 151.406 145.461 151.406 144.554 151.29C143.523 151.147 142.523 150.834 141.594 150.363C140.662 149.894 139.815 149.271 139.089 148.521C138.445 147.84 137.888 147.081 137.432 146.261C136.818 145.15 136.253 144.069 135.755 142.952C133.865 138.628 132.451 134.111 131.537 129.481C131.083 127.215 130.696 124.95 130.42 122.678C130.272 121.536 130.149 120.4 130.057 119.252C130.008 118.674 129.959 118.103 129.928 117.52C129.898 116.937 129.867 116.39 129.849 115.715L140.213 115.285Z" fill="#FF8B7B"/>
<path d="M128.897 112.031C125.164 117.483 131.31 133.656 131.31 133.656L146.157 127.516C146.157 127.516 145.543 123.341 142.902 115.236C140.029 106.351 133.422 105.424 128.897 112.031Z" fill="#263238"/>
<path d="M157.853 138.009L162.931 133.306L166.615 140.729C166.615 140.729 161.5 144.413 159.094 142.031L157.853 138.009Z" fill="#FF8B7B"/>
<path d="M170.121 133.527L170.981 136.345C171.147 136.889 171.115 137.474 170.89 137.996C170.665 138.518 170.262 138.942 169.753 139.194L166.646 140.729L162.962 133.306L167.106 131.943C167.408 131.849 167.726 131.815 168.041 131.844C168.356 131.873 168.662 131.963 168.942 132.11C169.222 132.257 169.47 132.458 169.672 132.701C169.875 132.944 170.027 133.225 170.121 133.527Z" fill="#FF8B7B"/>
</svg>
